<svg xmlns="http://www.w3.org/2000/svg" xmlns:xlink="http://www.w3.org/1999/xlink" contentStyleType="text/css" data-diagram-type="DESCRIPTION" height="598px" preserveAspectRatio="none" style="width:3092px;height:598px;background:#FFFFFF;" version="1.1" viewBox="0 0 3092 598" width="3092px" zoomAndPan="magnify"><title>Arquitectura - API Recetas del Mundo</title><defs/><g><g class="title" data-source-line="1"><text fill="#000000" font-family="sans-serif" font-size="22" font-weight="bold" lengthAdjust="spacing" textLength="466.5117" x="1306.0337" y="30.4209">Arquitectura - API Recetas del Mundo</text></g><!--cluster Client--><g class="cluster" data-entity="Client" data-source-line="16" data-uid="ent0003" id="cluster_Client"><polygon fill="none" points="232.8,303.4694,242.8,293.4694,455.2,293.4694,455.2,413.4694,445.2,423.4694,232.8,423.4694,232.8,303.4694" style="stroke:#181818;stroke-width:1;"/><line style="stroke:#181818;stroke-width:1;" x1="445.2" x2="455.2" y1="303.4694" y2="293.4694"/><line style="stroke:#181818;stroke-width:1;" x1="232.8" x2="445.2" y1="303.4694" y2="303.4694"/><line style="stroke:#181818;stroke-width:1;" x1="445.2" x2="445.2" y1="303.4694" y2="423.4694"/><text fill="#000000" font-family="sans-serif" font-size="16" font-weight="bold" lengthAdjust="spacing" textLength="63.4531" x="308.2734" y="321.3209">Cliente</text></g><!--cluster Backend--><g class="cluster" data-entity="Backend" data-source-line="24" data-uid="ent0007" id="cluster_Backend"><rect fill="none" height="101" rx="2.5" ry="2.5" style="stroke:#181818;stroke-width:1;" width="254.67" x="1468.63" y="266.4694"/><text fill="#000000" font-family="sans-serif" font-size="16" font-weight="bold" lengthAdjust="spacing" textLength="207.8672" x="1492.0314" y="283.3209">API Gateway / Backend</text></g><!--cluster External--><g class="cluster" data-entity="External" data-source-line="35" data-uid="ent0012" id="cluster_External"><rect fill="none" height="192" rx="2.5" ry="2.5" style="stroke:#181818;stroke-width:1;" width="191.33" x="2145.63" y="400.4694"/><text fill="#000000" font-family="sans-serif" font-size="16" font-weight="bold" lengthAdjust="spacing" textLength="166.7031" x="2157.9434" y="417.3209">Servicios externos</text></g><!--entity Navegador / App--><g class="entity" data-entity="Navegador . App" data-source-line="17" data-uid="ent0004" id="entity_Navegador . App"><rect fill="#F8F9FB" height="48.625" rx="2.5" ry="2.5" style="stroke:#1B4965;stroke-width:0.5;" width="174.3906" x="256.8" y="351.1594"/><rect fill="#F8F9FB" height="10" style="stroke:#1B4965;stroke-width:0.5;" width="15" x="411.1906" y="356.1594"/><rect fill="#F8F9FB" height="2" style="stroke:#1B4965;stroke-width:0.5;" width="4" x="409.1906" y="358.1594"/><rect fill="#F8F9FB" height="2" style="stroke:#1B4965;stroke-width:0.5;" width="4" x="409.1906" y="362.1594"/><text fill="#000000" font-family="sans-serif" font-size="16" lengthAdjust="spacing" textLength="134.3906" x="271.8" y="386.0109">Navegador / App</text></g><!--entity API--><g class="entity" data-entity="API" data-source-line="25" data-uid="ent0008" id="entity_API"><rect fill="#F8F9FB" height="48.625" rx="2.5" ry="2.5" style="stroke:#1B4965;stroke-width:0.5;" width="222.6719" x="1484.63" y="303.1594"/><rect fill="#F8F9FB" height="10" style="stroke:#1B4965;stroke-width:0.5;" width="15" x="1687.3019" y="308.1594"/><rect fill="#F8F9FB" height="2" style="stroke:#1B4965;stroke-width:0.5;" width="4" x="1685.3019" y="310.1594"/><rect fill="#F8F9FB" height="2" style="stroke:#1B4965;stroke-width:0.5;" width="4" x="1685.3019" y="314.1594"/><text fill="#000000" font-family="sans-serif" font-size="16" lengthAdjust="spacing" textLength="182.6719" x="1499.63" y="338.0109">Spring Boot (API REST)</text></g><!--entity Stripe--><g class="entity" data-entity="Stripe" data-source-line="36" data-uid="ent0013" id="entity_Stripe"><rect fill="#F8F9FB" height="48.625" rx="2.5" ry="2.5" style="stroke:#1B4965;stroke-width:0.5;" width="87.4531" x="2197.57" y="453.1594"/><rect fill="#F8F9FB" height="10" style="stroke:#1B4965;stroke-width:0.5;" width="15" x="2265.0231" y="458.1594"/><rect fill="#F8F9FB" height="2" style="stroke:#1B4965;stroke-width:0.5;" width="4" x="2263.0231" y="460.1594"/><rect fill="#F8F9FB" height="2" style="stroke:#1B4965;stroke-width:0.5;" width="4" x="2263.0231" y="464.1594"/><text fill="#000000" font-family="sans-serif" font-size="16" lengthAdjust="spacing" textLength="47.4531" x="2212.57" y="488.0109">Stripe</text></g><!--entity SMTP / Email--><g class="entity" data-entity="SMTP . Email" data-source-line="37" data-uid="ent0014" id="entity_SMTP . Email"><rect fill="#F8F9FB" height="48.625" rx="2.5" ry="2.5" style="stroke:#1B4965;stroke-width:0.5;" width="143.3359" x="2169.63" y="520.1594"/><rect fill="#F8F9FB" height="10" style="stroke:#1B4965;stroke-width:0.5;" width="15" x="2292.9659" y="525.1594"/><rect fill="#F8F9FB" height="2" style="stroke:#1B4965;stroke-width:0.5;" width="4" x="2290.9659" y="527.1594"/><rect fill="#F8F9FB" height="2" style="stroke:#1B4965;stroke-width:0.5;" width="4" x="2290.9659" y="531.1594"/><text fill="#000000" font-family="sans-serif" font-size="16" lengthAdjust="spacing" textLength="103.3359" x="2184.63" y="555.0109">SMTP / Email</text></g><!--entity User--><g class="entity" data-entity="User" data-source-line="15" data-uid="ent0002" id="entity_User"><ellipse cx="36.4023" cy="296.6594" fill="#F1F1F1" rx="8" ry="8" style="stroke:#181818;stroke-width:0.5;"/><path d="M36.4023,304.6594 L36.4023,331.6594 M23.4023,312.6594 L49.4023,312.6594 M36.4023,331.6594 L23.4023,346.6594 M36.4023,331.6594 L49.4023,346.6594" fill="none" style="stroke:#181818;stroke-width:0.5;"/><text fill="#000000" font-family="sans-serif" font-size="16" lengthAdjust="spacing" textLength="60.8047" x="6" y="363.0109">Usuario</text></g><!--entity Nginx--><g class="entity" data-entity="Nginx" data-source-line="20" data-uid="ent0005" id="entity_Nginx"><polygon fill="#F1F1F1" points="608.2,313.1594,618.2,303.1594,832.8563,303.1594,832.8563,341.7844,822.8563,351.7844,608.2,351.7844,608.2,313.1594" style="stroke:#181818;stroke-width:0.5;"/><line style="stroke:#181818;stroke-width:0.5;" x1="822.8563" x2="832.8563" y1="313.1594" y2="303.1594"/><line style="stroke:#181818;stroke-width:0.5;" x1="608.2" x2="822.8563" y1="313.1594" y2="313.1594"/><line style="stroke:#181818;stroke-width:0.5;" x1="822.8563" x2="822.8563" y1="313.1594" y2="351.7844"/><text fill="#000000" font-family="sans-serif" font-size="16" lengthAdjust="spacing" textLength="184.6563" x="623.2" y="338.0109">Reverse Proxy (NGINX)</text></g><!--entity Frontend--><g class="entity" data-entity="Frontend" data-source-line="22" data-uid="ent0006" id="entity_Frontend"><rect fill="#F1F1F1" height="38.625" rx="2.5" ry="2.5" style="stroke:#181818;stroke-width:0.5;" width="171.7734" x="1082.85" y="308.1594"/><text fill="#000000" font-family="sans-serif" font-size="16" lengthAdjust="spacing" textLength="151.7734" x="1092.85" y="333.0109">Frontend - React.js</text></g><!--entity Worker--><g class="entity" data-entity="Worker" data-source-line="28" data-uid="ent0009" id="entity_Worker"><rect fill="#F8F9FB" height="48.625" rx="2.5" ry="2.5" style="stroke:#1B4965;stroke-width:0.5;" width="219.2813" x="2131.65" y="206.1594"/><rect fill="#F8F9FB" height="10" style="stroke:#1B4965;stroke-width:0.5;" width="15" x="2330.9313" y="211.1594"/><rect fill="#F8F9FB" height="2" style="stroke:#1B4965;stroke-width:0.5;" width="4" x="2328.9313" y="213.1594"/><rect fill="#F8F9FB" height="2" style="stroke:#1B4965;stroke-width:0.5;" width="4" x="2328.9313" y="217.1594"/><text fill="#000000" font-family="sans-serif" font-size="16" lengthAdjust="spacing" textLength="179.2813" x="2146.65" y="241.0109">Tareas en background</text></g><!--entity Redis--><g class="entity" data-entity="Redis" data-source-line="29" data-uid="ent0010" id="entity_Redis"><path d="M2139.64,282.6594 C2139.64,272.6594 2241.2963,272.6594 2241.2963,272.6594 C2241.2963,272.6594 2342.9525,272.6594 2342.9525,282.6594 L2342.9525,310.2844 C2342.9525,320.2844 2241.2963,320.2844 2241.2963,320.2844 C2241.2963,320.2844 2139.64,320.2844 2139.64,310.2844 L2139.64,282.6594" fill="#F1F1F1" style="stroke:#181818;stroke-width:0.5;"/><path d="M2139.64,282.6594 C2139.64,292.6594 2241.2963,292.6594 2241.2963,292.6594 C2241.2963,292.6594 2342.9525,292.6594 2342.9525,282.6594" fill="none" style="stroke:#181818;stroke-width:0.5;"/><text fill="#000000" font-family="sans-serif" font-size="16" lengthAdjust="spacing" textLength="183.3125" x="2149.64" y="311.5109">Redis (cache/sesiones)</text></g><!--entity PG--><g class="entity" data-entity="PG" data-source-line="33" data-uid="ent0011" id="entity_PG"><path d="M2963.29,328.6594 C2963.29,318.6594 3019.4345,318.6594 3019.4345,318.6594 C3019.4345,318.6594 3075.5791,318.6594 3075.5791,328.6594 L3075.5791,356.2844 C3075.5791,366.2844 3019.4345,366.2844 3019.4345,366.2844 C3019.4345,366.2844 2963.29,366.2844 2963.29,356.2844 L2963.29,328.6594" fill="#F1F1F1" style="stroke:#181818;stroke-width:0.5;"/><path d="M2963.29,328.6594 C2963.29,338.6594 3019.4345,338.6594 3019.4345,338.6594 C3019.4345,338.6594 3075.5791,338.6594 3075.5791,328.6594" fill="none" style="stroke:#181818;stroke-width:0.5;"/><text fill="#000000" font-family="sans-serif" font-size="16" lengthAdjust="spacing" textLength="92.2891" x="2973.29" y="357.5109">PostgreSQL</text></g><g class="entity" data-entity="GMN24" data-source-line="52" data-uid="ent0025" id="entity_GMN24"><path d="M1994.3,52.6094 L1994.3,188.3281 L2488.2922,188.3281 L2488.2922,62.6094 L2478.2922,52.6094 L1994.3,52.6094" fill="#FEFFDD" style="stroke:#181818;stroke-width:0.5;"/><path d="M2478.2922,52.6094 L2478.2922,62.6094 L2488.2922,62.6094 L2478.2922,52.6094" fill="#FEFFDD" style="stroke:#181818;stroke-width:1;"/><text fill="#000000" font-family="sans-serif" font-size="12" lengthAdjust="spacing" textLength="122.9297" x="2000.3" y="68.748">Componentes clave:</text><text fill="#000000" font-family="sans-serif" font-size="12" lengthAdjust="spacing" textLength="232.8516" x="2000.3" y="82.7168">- Backend: Spring Boot (`Springboot/`)</text><text fill="#000000" font-family="sans-serif" font-size="12" lengthAdjust="spacing" textLength="189.4219" x="2000.3" y="96.6855">- Base de datos: PostgreSQL 15</text><text fill="#000000" font-family="sans-serif" font-size="12" lengthAdjust="spacing" textLength="248.8184" x="2000.3" y="110.6543">- Cache y sesiones: Redis (recomendado)</text><text fill="#000000" font-family="sans-serif" font-size="12" lengthAdjust="spacing" textLength="472.9922" x="2000.3" y="124.623">- Im&#225;genes: alojadas en servidores p&#250;blicos / (no se almacenan en el servidor)</text><text fill="#000000" font-family="sans-serif" font-size="12" lengthAdjust="spacing" textLength="305.7773" x="2000.3" y="138.5918">- TLS/HTTPS: Reverse proxy NGINX (recomendada)</text><text fill="#000000" font-family="sans-serif" font-size="12" lengthAdjust="spacing" textLength="267.4453" x="2000.3" y="152.5605">- Contenedores: Docker Compose disponible</text><text fill="#000000" font-family="sans-serif" font-size="12" lengthAdjust="spacing" textLength="3.8145" x="2000.3" y="166.5293">&#160;</text><text fill="#000000" font-family="sans-serif" font-size="12" lengthAdjust="spacing" textLength="3.8145" x="2000.3" y="180.498">&#160;</text></g><!--link User to Client--><g class="link" data-entity-1="User" data-entity-2="Client" data-source-line="40" data-uid="lnk15" id="link_User_Client"><path d="M67.26,327.4694 C105.11,327.4694 172.5,327.4694 231.1825,327.4694 C231.641,327.4694 226.0989,327.4694 226.5563,327.4694" fill="none" id="User-to-Client" style="stroke:#181818;stroke-width:1;"/><polygon fill="#181818" points="232.5563,327.4694,223.5563,323.4694,227.5563,327.4694,223.5563,331.4694,232.5563,327.4694" style="stroke:#181818;stroke-width:1;"/><text fill="#000000" font-family="sans-serif" font-size="16" lengthAdjust="spacing" textLength="110.8438" x="97.8" y="323.3209">Interacci&#243;n UI</text></g><!--link Client to Nginx--><g class="link" data-entity-1="Client" data-entity-2="Nginx" data-source-line="41" data-uid="lnk16" id="link_Client_Nginx"><path d="M455.6108,327.4694 C456.0356,327.4694 456.4611,327.4694 456.8872,327.4694 C463.7048,327.4694 470.6825,327.4694 477.7743,327.4694 C491.958,327.4694 506.5984,327.4694 521.3294,327.4694 C550.7913,327.4694 574.615,327.4694 601.87,327.4694" fill="none" id="Client-to-Nginx" style="stroke:#181818;stroke-width:1;"/><polygon fill="#181818" points="607.87,327.4694,598.87,323.4694,602.87,327.4694,598.87,331.4694,607.87,327.4694" style="stroke:#181818;stroke-width:1;"/><text fill="#000000" font-family="sans-serif" font-size="16" lengthAdjust="spacing" textLength="97.7969" x="480.2" y="323.3209">HTTPS (TLS)</text></g><!--link Nginx to Frontend--><g class="link" data-entity-1="Nginx" data-entity-2="Frontend" data-source-line="42" data-uid="lnk17" id="link_Nginx_Frontend"><path d="M833.26,327.4694 C910.57,327.4694 1005.89,327.4694 1076.67,327.4694" fill="none" id="Nginx-to-Frontend" style="stroke:#181818;stroke-width:1;"/><polygon fill="#181818" points="1082.67,327.4694,1073.67,323.4694,1077.67,327.4694,1073.67,331.4694,1082.67,327.4694" style="stroke:#181818;stroke-width:1;"/><text fill="#000000" font-family="sans-serif" font-size="16" lengthAdjust="spacing" textLength="188.8828" x="863.85" y="323.3209">HTTPS est&#225;ticos / Proxy</text></g><!--link Frontend to API--><g class="link" data-entity-1="Frontend" data-entity-2="API" data-source-line="43" data-uid="lnk18" id="link_Frontend_API"><path d="M1255.02,327.4694 C1320.97,327.4694 1406.78,327.4694 1478.37,327.4694" fill="none" id="Frontend-to-API" style="stroke:#181818;stroke-width:1;"/><polygon fill="#181818" points="1484.37,327.4694,1475.37,323.4694,1479.37,327.4694,1475.37,331.4694,1484.37,327.4694" style="stroke:#181818;stroke-width:1;"/><text fill="#000000" font-family="sans-serif" font-size="16" lengthAdjust="spacing" textLength="166.0469" x="1285.63" y="323.3209">Llamadas API (HTTP)</text></g><!--link API to PG--><g class="link" data-entity-1="API" data-entity-2="PG" data-source-line="44" data-uid="lnk19" id="link_API_PG"><path d="M1707.79,335.2494 C1787.45,340.4394 1897.44,346.7894 1994.3,349.4694 C2363.99,359.6994 2803.0226,348.8544 2956.9126,344.3644" fill="none" id="API-to-PG" style="stroke:#181818;stroke-width:1;"/><polygon fill="#181818" points="2962.91,344.1894,2953.7972,340.4536,2957.9121,344.3352,2954.0305,348.4502,2962.91,344.1894" style="stroke:#181818;stroke-width:1;"/><text fill="#000000" font-family="sans-serif" font-size="16" lengthAdjust="spacing" textLength="115.1875" x="2183.79" y="345.3209">Consultas SQL</text></g><!--link API to Redis--><g class="link" data-entity-1="API" data-entity-2="Redis" data-source-line="45" data-uid="lnk20" id="link_API_Redis"><path d="M1707.55,322.1394 C1828.89,316.2894 2015.977,307.2784 2133.347,301.6184" fill="none" id="API-to-Redis" style="stroke:#181818;stroke-width:1;"/><polygon fill="#181818" points="2139.34,301.3294,2130.1578,297.7675,2134.3458,301.5702,2130.5431,305.7582,2139.34,301.3294" style="stroke:#181818;stroke-width:1;"/><text fill="#000000" font-family="sans-serif" font-size="16" lengthAdjust="spacing" textLength="223.4219" x="1740.3" y="305.9609">Cache / sesiones / rate-limit</text></g><!--link API to External--><g class="link" data-entity-1="API" data-entity-2="External" data-source-line="46" data-uid="lnk21" id="link_API_External"><path d="M1640.35,352.1794 C1667.8,366.5594 1704.56,383.5594 1739.3,392.4694 C1846.59,419.9844 1970.7275,429.3044 2068.5913,431.7106 C2093.0572,432.3122 2115.881,432.4816 2136.389,432.3953 C2138.9525,432.3845 2135.4799,432.4141 2137.9697,432.3957" fill="none" id="API-to-External" style="stroke:#181818;stroke-width:1;"/><polygon fill="#181818" points="2143.9696,432.3512,2134.9402,428.418,2138.9697,432.3883,2134.9995,436.4178,2143.9696,432.3512" style="stroke:#181818;stroke-width:1;"/><text fill="#000000" font-family="sans-serif" font-size="16" lengthAdjust="spacing" textLength="178.0547" x="1762.8" y="388.3209">Pagos y notificaciones</text></g><!--link API to Worker--><g class="link" data-entity-1="API" data-entity-2="Worker" data-source-line="47" data-uid="lnk22" id="link_API_Worker"><path d="M1673.94,302.7194 C1694.96,296.6694 1717.86,290.7194 1739.3,286.4694 C1873,259.9394 2023.4768,245.4086 2125.5068,237.7486" fill="none" id="API-to-Worker" style="stroke:#181818;stroke-width:1;"/><polygon fill="#181818" points="2131.49,237.2994,2122.2158,233.9844,2126.504,237.6737,2122.8147,241.9619,2131.49,237.2994" style="stroke:#181818;stroke-width:1;"/><text fill="#000000" font-family="sans-serif" font-size="16" lengthAdjust="spacing" textLength="109.5547" x="1797.3" y="249.4309">jobs  backups</text></g><!--link Worker to PG--><g class="link" data-entity-1="Worker" data-entity-2="PG" data-source-line="48" data-uid="lnk23" id="link_Worker_PG"><path d="M2351.33,244.7494 C2394.06,250.4394 2443.49,257.1294 2488.29,263.4694 C2661.74,288.0294 2860.8393,318.2804 2957.2093,333.0504" fill="none" id="Worker-to-PG" style="stroke:#181818;stroke-width:1;"/><polygon fill="#181818" points="2963.14,333.9594,2954.8499,328.6421,2958.1977,333.2019,2953.6379,336.5498,2963.14,333.9594" style="stroke:#181818;stroke-width:1;"/><text fill="#000000" font-family="sans-serif" font-size="16" lengthAdjust="spacing" textLength="413.7188" x="2519.29" y="265.4509">Tareas programadas mantencion / procesos en lote</text></g><!--link SMTP / Email to GMN24--><g class="link" data-entity-1="SMTP . Email" data-entity-2="GMN24" data-source-line="52" data-uid="lnk26" id="link_SMTP . Email_GMN24"><path d="M2169.49,561.1594 C2082.53,576.6194 1938.33,586.0794 1862.8,501.4694 C1775.48,403.6694 1781,308.9394 1862.8,206.4694 C1895.48,165.5194 1943.23,141.5194 1993.87,127.9394" fill="none" id="SMTP / Email-GMN24" style="stroke:#181818;stroke-width:1;stroke-dasharray:7,7;"/></g><!--SRC=[TLJ1RXit4BtlLmpSGwI3BCXeWcGF1Mp5SWNOYch9I870W2ZkQ4sPkzoGNCLgqO_9iUVUSjMFvP6xacKarKNBcJUScJTlw9NNJEVsSwqyIrzRGJqwduxfbYLxuIXZJJTrcPb4yygJDsHL_k0fKnPuPSha5Lrkb1UM5auApGkg16xvN3DDjIZztSqrmIvhvC5TMcnDxKcQejBiJU8ULHa22beA-PXRWrn3eusbNqRnTuJ8U2LgxKUcz3Fr5zFWpP7JXquEhhEp8rT8Paek_oUoDFuvS73smfEnuue6Rtzs6_sT45tyKFNRqRlHHV0Ocx5jhOEBNz-zUPtyaoH2UXXExbmjh38d18xl7DiavAAJeLQucQEv-OvPFat4XdEH8R9FvrLr7svg8cvvmzQ1R6kUjjIPN8qdVtPZ_2HNvLEIX3c9CWVz9oEBDhdCCEDRHY6dQnUHU_iBS531bV3yHMoHDFG9H8IttqrbiyggCaUtnbCdAkToDk_U1nnEeSvFSs4PHowFPXm17urzHEkPy68fN6mcKuuwKiW7xZjsq1UxffleIg2smAWqD3NEvvPdVrpJkdRG9KPLrRj_6yaksXgVrOZ8Wnwr8QVyxXi3knHh4qD2xLleqz5Aitp0lqHswKFP6CJfKPdFkMDfqwiNnCtORfHK1Xq_URQbQKY-Z0UXMzgyLHNVny-R-HGCNnP2wJZOe0VgzNxRAo2bCSPZXPHgzrz9T-EaTGHCd38Wly_dqnbrvjUpRjBOWlSmyJs0dTzzzKgYkdwZcUHP5GW8BAHqhKKXicQ4r0cHtIHyzZBpfGHgUWNGq9GEwmWKY6ZSS3KZX3VC43dsKyIdXPfwMXNA7z07KbAQYXn5RSCwgfM216BO0Tbe1RYrMJgAIgehbxJcthweLckLDRbjUoX4Q2zSXnhWaEnCLAF6uaCM4-D56WUlYjtNd4Enamyed8GkXEHIb04DvXX6p1PhU4epfjh1ixSWgDfzM-f0RN_uVd8Q5XGHI-EzAJ3duVxT059gx7CAOs-_J2czMAH5SrhYq5zqMw0BUYN8qBZqMF-3rn7GCBuzC9wsi-X0cwP03hmVpLNZVPyfMZJho1B_l1LGrYdDZsJe0xgv4hhhHuM5hCsBLCKNAJv8npM89c0OHSSnNKhlZGnZZ1o5DfK3LsgfEG4u2U8CP6BzNz4Ad01gkJ0RpWXJjOpzTZxv3W00]--></g></svg>