<svg xmlns="http://www.w3.org/2000/svg" xmlns:xlink="http://www.w3.org/1999/xlink" contentStyleType="text/css" data-diagram-type="DESCRIPTION" height="598px" preserveAspectRatio="none" style="width:3193px;height:598px;background:#FFFFFF;" version="1.1" viewBox="0 0 3193 598" width="3193px" zoomAndPan="magnify"><title>Arquitectura - API Recetas del Mundo</title><defs/><g><g class="title" data-source-line="1"><text fill="#000000" font-family="sans-serif" font-size="22" font-weight="bold" lengthAdjust="spacing" textLength="466.5117" x="1356.3987" y="30.4209">Arquitectura - API Recetas del Mundo</text></g><!--cluster Client--><g class="cluster" data-entity="Client" data-source-line="16" data-uid="ent0003" id="cluster_Client"><polygon fill="none" points="333.54,303.4694,343.54,293.4694,555.93,293.4694,555.93,413.4694,545.93,423.4694,333.54,423.4694,333.54,303.4694" style="stroke:#181818;stroke-width:1;"/><line style="stroke:#181818;stroke-width:1;" x1="545.93" x2="555.93" y1="303.4694" y2="293.4694"/><line style="stroke:#181818;stroke-width:1;" x1="333.54" x2="545.93" y1="303.4694" y2="303.4694"/><line style="stroke:#181818;stroke-width:1;" x1="545.93" x2="545.93" y1="303.4694" y2="423.4694"/><text fill="#000000" font-family="sans-serif" font-size="16" font-weight="bold" lengthAdjust="spacing" textLength="63.4531" x="409.0084" y="321.3209">Cliente</text></g><!--cluster Backend--><g class="cluster" data-entity="Backend" data-source-line="24" data-uid="ent0007" id="cluster_Backend"><rect fill="none" height="101" rx="2.5" ry="2.5" style="stroke:#181818;stroke-width:1;" width="254.67" x="1569.36" y="266.4694"/><text fill="#000000" font-family="sans-serif" font-size="16" font-weight="bold" lengthAdjust="spacing" textLength="207.8672" x="1592.7614" y="283.3209">API Gateway / Backend</text></g><!--cluster External--><g class="cluster" data-entity="External" data-source-line="35" data-uid="ent0012" id="cluster_External"><rect fill="none" height="192" rx="2.5" ry="2.5" style="stroke:#181818;stroke-width:1;" width="191.34" x="2246.36" y="400.4694"/><text fill="#000000" font-family="sans-serif" font-size="16" font-weight="bold" lengthAdjust="spacing" textLength="166.7031" x="2258.6784" y="417.3209">Servicios externos</text></g><!--entity Navegador / App--><g class="entity" data-entity="Navegador . App" data-source-line="17" data-uid="ent0004" id="entity_Navegador . App"><rect fill="#F8F9FB" height="48.625" rx="2.5" ry="2.5" style="stroke:#1B4965;stroke-width:0.5;" width="174.3906" x="357.54" y="351.1594"/><rect fill="#F8F9FB" height="10" style="stroke:#1B4965;stroke-width:0.5;" width="15" x="511.9306" y="356.1594"/><rect fill="#F8F9FB" height="2" style="stroke:#1B4965;stroke-width:0.5;" width="4" x="509.9306" y="358.1594"/><rect fill="#F8F9FB" height="2" style="stroke:#1B4965;stroke-width:0.5;" width="4" x="509.9306" y="362.1594"/><text fill="#000000" font-family="sans-serif" font-size="16" lengthAdjust="spacing" textLength="134.3906" x="372.54" y="386.0109">Navegador / App</text></g><!--entity API--><g class="entity" data-entity="API" data-source-line="25" data-uid="ent0008" id="entity_API"><rect fill="#F8F9FB" height="48.625" rx="2.5" ry="2.5" style="stroke:#1B4965;stroke-width:0.5;" width="222.6719" x="1585.36" y="303.1594"/><rect fill="#F8F9FB" height="10" style="stroke:#1B4965;stroke-width:0.5;" width="15" x="1788.0319" y="308.1594"/><rect fill="#F8F9FB" height="2" style="stroke:#1B4965;stroke-width:0.5;" width="4" x="1786.0319" y="310.1594"/><rect fill="#F8F9FB" height="2" style="stroke:#1B4965;stroke-width:0.5;" width="4" x="1786.0319" y="314.1594"/><text fill="#000000" font-family="sans-serif" font-size="16" lengthAdjust="spacing" textLength="182.6719" x="1600.36" y="338.0109">Spring Boot (API REST)</text></g><!--entity Stripe--><g class="entity" data-entity="Stripe" data-source-line="36" data-uid="ent0013" id="entity_Stripe"><rect fill="#F8F9FB" height="48.625" rx="2.5" ry="2.5" style="stroke:#1B4965;stroke-width:0.5;" width="87.4531" x="2298.3" y="453.1594"/><rect fill="#F8F9FB" height="10" style="stroke:#1B4965;stroke-width:0.5;" width="15" x="2365.7531" y="458.1594"/><rect fill="#F8F9FB" height="2" style="stroke:#1B4965;stroke-width:0.5;" width="4" x="2363.7531" y="460.1594"/><rect fill="#F8F9FB" height="2" style="stroke:#1B4965;stroke-width:0.5;" width="4" x="2363.7531" y="464.1594"/><text fill="#000000" font-family="sans-serif" font-size="16" lengthAdjust="spacing" textLength="47.4531" x="2313.3" y="488.0109">Stripe</text></g><!--entity SMTP / Email--><g class="entity" data-entity="SMTP . Email" data-source-line="37" data-uid="ent0014" id="entity_SMTP . Email"><rect fill="#F8F9FB" height="48.625" rx="2.5" ry="2.5" style="stroke:#1B4965;stroke-width:0.5;" width="143.3359" x="2270.36" y="520.1594"/><rect fill="#F8F9FB" height="10" style="stroke:#1B4965;stroke-width:0.5;" width="15" x="2393.6959" y="525.1594"/><rect fill="#F8F9FB" height="2" style="stroke:#1B4965;stroke-width:0.5;" width="4" x="2391.6959" y="527.1594"/><rect fill="#F8F9FB" height="2" style="stroke:#1B4965;stroke-width:0.5;" width="4" x="2391.6959" y="531.1594"/><text fill="#000000" font-family="sans-serif" font-size="16" lengthAdjust="spacing" textLength="103.3359" x="2285.36" y="555.0109">SMTP / Email</text></g><!--entity User--><g class="entity" data-entity="User" data-source-line="15" data-uid="ent0002" id="entity_User"><ellipse cx="86.7695" cy="296.6594" fill="#F1F1F1" rx="8" ry="8" style="stroke:#181818;stroke-width:0.5;"/><path d="M86.7695,304.6594 L86.7695,331.6594 M73.7695,312.6594 L99.7695,312.6594 M86.7695,331.6594 L73.7695,346.6594 M86.7695,331.6594 L99.7695,346.6594" fill="none" style="stroke:#181818;stroke-width:0.5;"/><text fill="#000000" font-family="sans-serif" font-size="16" lengthAdjust="spacing" textLength="161.5391" x="6" y="363.0109">Usuario (Web/M&#243;vil)</text></g><!--entity Nginx--><g class="entity" data-entity="Nginx" data-source-line="20" data-uid="ent0005" id="entity_Nginx"><polygon fill="#F1F1F1" points="708.93,313.1594,718.93,303.1594,933.5863,303.1594,933.5863,341.7844,923.5863,351.7844,708.93,351.7844,708.93,313.1594" style="stroke:#181818;stroke-width:0.5;"/><line style="stroke:#181818;stroke-width:0.5;" x1="923.5863" x2="933.5863" y1="313.1594" y2="303.1594"/><line style="stroke:#181818;stroke-width:0.5;" x1="708.93" x2="923.5863" y1="313.1594" y2="313.1594"/><line style="stroke:#181818;stroke-width:0.5;" x1="923.5863" x2="923.5863" y1="313.1594" y2="351.7844"/><text fill="#000000" font-family="sans-serif" font-size="16" lengthAdjust="spacing" textLength="184.6563" x="723.93" y="338.0109">Reverse Proxy (NGINX)</text></g><!--entity Frontend--><g class="entity" data-entity="Frontend" data-source-line="22" data-uid="ent0006" id="entity_Frontend"><rect fill="#F1F1F1" height="38.625" rx="2.5" ry="2.5" style="stroke:#181818;stroke-width:0.5;" width="171.7734" x="1183.59" y="308.1594"/><text fill="#000000" font-family="sans-serif" font-size="16" lengthAdjust="spacing" textLength="151.7734" x="1193.59" y="333.0109">Frontend - React.js</text></g><!--entity Worker--><g class="entity" data-entity="Worker" data-source-line="28" data-uid="ent0009" id="entity_Worker"><rect fill="#F8F9FB" height="48.625" rx="2.5" ry="2.5" style="stroke:#1B4965;stroke-width:0.5;" width="219.2813" x="2232.39" y="206.1594"/><rect fill="#F8F9FB" height="10" style="stroke:#1B4965;stroke-width:0.5;" width="15" x="2431.6713" y="211.1594"/><rect fill="#F8F9FB" height="2" style="stroke:#1B4965;stroke-width:0.5;" width="4" x="2429.6713" y="213.1594"/><rect fill="#F8F9FB" height="2" style="stroke:#1B4965;stroke-width:0.5;" width="4" x="2429.6713" y="217.1594"/><text fill="#000000" font-family="sans-serif" font-size="16" lengthAdjust="spacing" textLength="179.2813" x="2247.39" y="241.0109">Tareas en background</text></g><!--entity Redis--><g class="entity" data-entity="Redis" data-source-line="29" data-uid="ent0010" id="entity_Redis"><path d="M2240.37,282.6594 C2240.37,272.6594 2342.0263,272.6594 2342.0263,272.6594 C2342.0263,272.6594 2443.6825,272.6594 2443.6825,282.6594 L2443.6825,310.2844 C2443.6825,320.2844 2342.0263,320.2844 2342.0263,320.2844 C2342.0263,320.2844 2240.37,320.2844 2240.37,310.2844 L2240.37,282.6594" fill="#F1F1F1" style="stroke:#181818;stroke-width:0.5;"/><path d="M2240.37,282.6594 C2240.37,292.6594 2342.0263,292.6594 2342.0263,292.6594 C2342.0263,292.6594 2443.6825,292.6594 2443.6825,282.6594" fill="none" style="stroke:#181818;stroke-width:0.5;"/><text fill="#000000" font-family="sans-serif" font-size="16" lengthAdjust="spacing" textLength="183.3125" x="2250.37" y="311.5109">Redis (cache/sesiones)</text></g><!--entity PG--><g class="entity" data-entity="PG" data-source-line="33" data-uid="ent0011" id="entity_PG"><path d="M3064.02,328.6594 C3064.02,318.6594 3120.1645,318.6594 3120.1645,318.6594 C3120.1645,318.6594 3176.3091,318.6594 3176.3091,328.6594 L3176.3091,356.2844 C3176.3091,366.2844 3120.1645,366.2844 3120.1645,366.2844 C3120.1645,366.2844 3064.02,366.2844 3064.02,356.2844 L3064.02,328.6594" fill="#F1F1F1" style="stroke:#181818;stroke-width:0.5;"/><path d="M3064.02,328.6594 C3064.02,338.6594 3120.1645,338.6594 3120.1645,338.6594 C3120.1645,338.6594 3176.3091,338.6594 3176.3091,328.6594" fill="none" style="stroke:#181818;stroke-width:0.5;"/><text fill="#000000" font-family="sans-serif" font-size="16" lengthAdjust="spacing" textLength="92.2891" x="3074.02" y="357.5109">PostgreSQL</text></g><g class="entity" data-entity="GMN24" data-source-line="52" data-uid="ent0025" id="entity_GMN24"><path d="M2095.03,52.6094 L2095.03,188.3281 L2589.0222,188.3281 L2589.0222,62.6094 L2579.0222,52.6094 L2095.03,52.6094" fill="#FEFFDD" style="stroke:#181818;stroke-width:0.5;"/><path d="M2579.0222,52.6094 L2579.0222,62.6094 L2589.0222,62.6094 L2579.0222,52.6094" fill="#FEFFDD" style="stroke:#181818;stroke-width:1;"/><text fill="#000000" font-family="sans-serif" font-size="12" lengthAdjust="spacing" textLength="122.9297" x="2101.03" y="68.748">Componentes clave:</text><text fill="#000000" font-family="sans-serif" font-size="12" lengthAdjust="spacing" textLength="232.8516" x="2101.03" y="82.7168">- Backend: Spring Boot (`Springboot/`)</text><text fill="#000000" font-family="sans-serif" font-size="12" lengthAdjust="spacing" textLength="189.4219" x="2101.03" y="96.6855">- Base de datos: PostgreSQL 15</text><text fill="#000000" font-family="sans-serif" font-size="12" lengthAdjust="spacing" textLength="248.8184" x="2101.03" y="110.6543">- Cache y sesiones: Redis (recomendado)</text><text fill="#000000" font-family="sans-serif" font-size="12" lengthAdjust="spacing" textLength="472.9922" x="2101.03" y="124.623">- Im&#225;genes: alojadas en servidores p&#250;blicos / (no se almacenan en el servidor)</text><text fill="#000000" font-family="sans-serif" font-size="12" lengthAdjust="spacing" textLength="305.7773" x="2101.03" y="138.5918">- TLS/HTTPS: Reverse proxy NGINX (recomendada)</text><text fill="#000000" font-family="sans-serif" font-size="12" lengthAdjust="spacing" textLength="267.4453" x="2101.03" y="152.5605">- Contenedores: Docker Compose disponible</text><text fill="#000000" font-family="sans-serif" font-size="12" lengthAdjust="spacing" textLength="3.8145" x="2101.03" y="166.5293">&#160;</text><text fill="#000000" font-family="sans-serif" font-size="12" lengthAdjust="spacing" textLength="3.8145" x="2101.03" y="180.498">&#160;</text></g><!--link User to Client--><g class="link" data-entity-1="User" data-entity-2="Client" data-source-line="40" data-uid="lnk15" id="link_User_Client"><path d="M167.65,327.4694 C193.48,327.4694 223.3169,327.4694 253.6242,327.4694 C268.7779,327.4694 284.0492,327.4694 298.996,327.4694 C306.4695,327.4694 313.8618,327.4694 321.1177,327.4694 C324.7457,327.4694 328.3396,327.4694 331.8925,327.4694 C332.3366,327.4694 326.7801,327.4694 327.2229,327.4694" fill="none" id="User-to-Client" style="stroke:#181818;stroke-width:1;"/><polygon fill="#181818" points="333.2229,327.4694,324.2229,323.4694,328.2229,327.4694,324.2229,331.4694,333.2229,327.4694" style="stroke:#181818;stroke-width:1;"/><text fill="#000000" font-family="sans-serif" font-size="16" lengthAdjust="spacing" textLength="110.8438" x="198.54" y="323.3209">Interacci&#243;n UI</text></g><!--link Client to Nginx--><g class="link" data-entity-1="Client" data-entity-2="Nginx" data-source-line="41" data-uid="lnk16" id="link_Client_Nginx"><path d="M556.3425,327.4694 C556.7674,327.4694 557.1928,327.4694 557.619,327.4694 C564.4368,327.4694 571.4147,327.4694 578.5067,327.4694 C592.6909,327.4694 607.332,327.4694 622.0636,327.4694 C651.5269,327.4694 675.3525,327.4694 702.61,327.4694" fill="none" id="Client-to-Nginx" style="stroke:#181818;stroke-width:1;"/><polygon fill="#181818" points="708.61,327.4694,699.61,323.4694,703.61,327.4694,699.61,331.4694,708.61,327.4694" style="stroke:#181818;stroke-width:1;"/><text fill="#000000" font-family="sans-serif" font-size="16" lengthAdjust="spacing" textLength="97.7969" x="580.93" y="323.3209">HTTPS (TLS)</text></g><!--link Nginx to Frontend--><g class="link" data-entity-1="Nginx" data-entity-2="Frontend" data-source-line="42" data-uid="lnk17" id="link_Nginx_Frontend"><path d="M933.99,327.4694 C1011.31,327.4694 1106.62,327.4694 1177.4,327.4694" fill="none" id="Nginx-to-Frontend" style="stroke:#181818;stroke-width:1;"/><polygon fill="#181818" points="1183.4,327.4694,1174.4,323.4694,1178.4,327.4694,1174.4,331.4694,1183.4,327.4694" style="stroke:#181818;stroke-width:1;"/><text fill="#000000" font-family="sans-serif" font-size="16" lengthAdjust="spacing" textLength="188.8828" x="964.59" y="323.3209">HTTPS est&#225;ticos / Proxy</text></g><!--link Frontend to API--><g class="link" data-entity-1="Frontend" data-entity-2="API" data-source-line="43" data-uid="lnk18" id="link_Frontend_API"><path d="M1355.76,327.4694 C1421.7,327.4694 1507.52,327.4694 1579.11,327.4694" fill="none" id="Frontend-to-API" style="stroke:#181818;stroke-width:1;"/><polygon fill="#181818" points="1585.11,327.4694,1576.11,323.4694,1580.11,327.4694,1576.11,331.4694,1585.11,327.4694" style="stroke:#181818;stroke-width:1;"/><text fill="#000000" font-family="sans-serif" font-size="16" lengthAdjust="spacing" textLength="166.0469" x="1386.36" y="323.3209">Llamadas API (HTTP)</text></g><!--link API to PG--><g class="link" data-entity-1="API" data-entity-2="PG" data-source-line="44" data-uid="lnk19" id="link_API_PG"><path d="M1808.53,335.2494 C1888.19,340.4394 1998.17,346.7894 2095.03,349.4694 C2464.73,359.6994 2903.7626,348.8544 3057.6526,344.3644" fill="none" id="API-to-PG" style="stroke:#181818;stroke-width:1;"/><polygon fill="#181818" points="3063.65,344.1894,3054.5372,340.4536,3058.6521,344.3352,3054.7705,348.4502,3063.65,344.1894" style="stroke:#181818;stroke-width:1;"/><text fill="#000000" font-family="sans-serif" font-size="16" lengthAdjust="spacing" textLength="115.1875" x="2284.53" y="345.3209">Consultas SQL</text></g><!--link API to Redis--><g class="link" data-entity-1="API" data-entity-2="Redis" data-source-line="45" data-uid="lnk20" id="link_API_Redis"><path d="M1808.29,322.1394 C1929.63,316.2894 2116.717,307.2784 2234.087,301.6184" fill="none" id="API-to-Redis" style="stroke:#181818;stroke-width:1;"/><polygon fill="#181818" points="2240.08,301.3294,2230.8978,297.7675,2235.0858,301.5702,2231.2831,305.7582,2240.08,301.3294" style="stroke:#181818;stroke-width:1;"/><text fill="#000000" font-family="sans-serif" font-size="16" lengthAdjust="spacing" textLength="223.4219" x="1841.03" y="305.9609">Cache / sesiones / rate-limit</text></g><!--link API to External--><g class="link" data-entity-1="API" data-entity-2="External" data-source-line="46" data-uid="lnk21" id="link_API_External"><path d="M1741.08,352.1794 C1768.54,366.5594 1805.3,383.5594 1840.03,392.4694 C1947.32,419.9844 2071.4575,429.3044 2169.3225,431.7106 C2193.7888,432.3122 2216.613,432.4816 2237.1214,432.3953 C2239.685,432.3845 2236.2125,432.4141 2238.7024,432.3957" fill="none" id="API-to-External" style="stroke:#181818;stroke-width:1;"/><polygon fill="#181818" points="2244.7022,432.3512,2235.6728,428.418,2239.7023,432.3883,2235.7321,436.4178,2244.7022,432.3512" style="stroke:#181818;stroke-width:1;"/><text fill="#000000" font-family="sans-serif" font-size="16" lengthAdjust="spacing" textLength="178.0547" x="1863.53" y="388.3209">Pagos y notificaciones</text></g><!--link API to Worker--><g class="link" data-entity-1="API" data-entity-2="Worker" data-source-line="47" data-uid="lnk22" id="link_API_Worker"><path d="M1774.68,302.7194 C1795.7,296.6694 1818.59,290.7194 1840.03,286.4694 C1973.74,259.9394 2124.2068,245.4085 2226.2468,237.7485" fill="none" id="API-to-Worker" style="stroke:#181818;stroke-width:1;"/><polygon fill="#181818" points="2232.23,237.2994,2222.9558,233.9843,2227.244,237.6737,2223.5547,241.9619,2232.23,237.2994" style="stroke:#181818;stroke-width:1;"/><text fill="#000000" font-family="sans-serif" font-size="16" lengthAdjust="spacing" textLength="109.5547" x="1898.03" y="249.4309">jobs  backups</text></g><!--link Worker to PG--><g class="link" data-entity-1="Worker" data-entity-2="PG" data-source-line="48" data-uid="lnk23" id="link_Worker_PG"><path d="M2452.06,244.7494 C2494.79,250.4394 2544.23,257.1294 2589.02,263.4694 C2762.47,288.0294 2961.5693,318.2804 3057.9393,333.0504" fill="none" id="Worker-to-PG" style="stroke:#181818;stroke-width:1;"/><polygon fill="#181818" points="3063.87,333.9594,3055.5799,328.6421,3058.9277,333.2019,3054.3679,336.5498,3063.87,333.9594" style="stroke:#181818;stroke-width:1;"/><text fill="#000000" font-family="sans-serif" font-size="16" lengthAdjust="spacing" textLength="413.7188" x="2620.02" y="265.4509">Tareas programadas mantencion / procesos en lote</text></g><!--link SMTP / Email to GMN24--><g class="link" data-entity-1="SMTP . Email" data-entity-2="GMN24" data-source-line="52" data-uid="lnk26" id="link_SMTP . Email_GMN24"><path d="M2270.23,561.1594 C2183.27,576.6194 2039.07,586.0794 1963.53,501.4694 C1876.21,403.6694 1881.73,308.9394 1963.53,206.4694 C1996.22,165.5194 2043.96,141.5194 2094.6,127.9394" fill="none" id="SMTP / Email-GMN24" style="stroke:#181818;stroke-width:1;stroke-dasharray:7,7;"/></g><!--SRC=[TLJ1RXit4BtlLmpSGwI3BCXeWcGF1Mp5SWNOYch9I870W2ZkQ4sPkzoGNCLgqO_9iUVSSjMFzP6xacKarKLBpXlEp7kFzCfhfdFxkLQUfQ-je1wTJyTqovAzS9Inffkwp4oYUUN96x8gV_2KAGkyCcNoYYutoWjB2oU5vWLL0gTyhfccMfJ-xkQQi2zhrC5PMcnDxKcQejBiJU8ULHaI2beA-PXRWrf3eusbNqRnTuJ8U2LgxKUcz3Fr5zFWpL7GXqaEeREper0ePaek_oUpDFuvSN3s8fAnuue6Rtzs6lsT45tyqFNRqRlHHOWOcx5jTmSNlxvxyphv9qc4zDWukNEriCfGvoCl-pUxRnkbkoS4mkySsoGKffEXLYZ3SRlvZYK_JSI6Sv7Xc3wTLzLzEBR9kEKDMmVchNdQKcToDPxysHmxoLNvb2H1D57cqE9aP34pbna4lsLqTRfs4RdVVm4EbhWIdh-8BOg6eO68yFQxwMnMMLNc6DruwaGRNSxctVk0mohq-MakB6F9vP7W4V3Hs4UCdWalbiB5OJBbg2E5VE2-OmUpiMkcYQ44rWlqIaDJutnkUVR7DQrh1vD2jwhU_TluTz7s-6nDP1xCgGqvvNVV6TYbM9kO4dhVmgoELfhb0_ubgaiVseOGfqTjFjUEhKslNX0tOxjHKXbC_EJPbgOX-J8kX6vfyrPLV1y_R-PJC7nP2AMZiC4FrElzjdT0IcF8OuMKQlUjfBjnqWO29geCoE_p-NH6dVdrh9iqUo5wK7mFOETtNxsIwAxVU2PvTWKI0WifNMjHYAoHa3eXivk4prvclfH0JQy06fhIuMu21IAQC4ADX8W63L5Zho8-BTpKqwfG_e0-a9BILEHeQXlkfbefM22c7P2DLu1RcwMZwAIwSacxtTitrNgjiYQtxGo52EE5uz030fATYMxKU0LWYudn8et2gsBtDUVGxEG36YUX2o6v56L0Wpd69hJ5DJob6LFj4Ddl8AdQVL_gG6r_-7vo6YueCfR6UrD0v-7-4G5IQjpd59kz_MLAwSL5MZIh9HRzHRS5kk1NWWsDIu_zFtWT0GtZsmFZQQj51zuq1MhW_MYE6k_dJ36YMKUM-EUZWB9EQNuaGn_GpP7mNJywB5HjNgGglaZnGJhkGJG9msWwZkLIUczaa35o5CPK3boffUO4u2IOCv29w_-ALk04KCk5sN16KDKoxhVpoNy0]--></g></svg>