<svg xmlns="http://www.w3.org/2000/svg" xmlns:xlink="http://www.w3.org/1999/xlink" contentStyleType="text/css" data-diagram-type="DESCRIPTION" height="598px" preserveAspectRatio="none" style="width:2781px;height:598px;background:#FFFFFF;" version="1.1" viewBox="0 0 2781 598" width="2781px" zoomAndPan="magnify"><title>Arquitectura - API Recetas del Mundo</title><defs/><g><g class="title" data-source-line="1"><text fill="#000000" font-family="sans-serif" font-size="22" font-weight="bold" lengthAdjust="spacing" textLength="466.5117" x="1150.5137" y="30.4209">Arquitectura - API Recetas del Mundo</text></g><!--cluster Client--><g class="cluster" data-entity="Client" data-source-line="16" data-uid="ent0003" id="cluster_Client"><polygon fill="none" points="333.54,303.4694,343.54,293.4694,555.93,293.4694,555.93,413.4694,545.93,423.4694,333.54,423.4694,333.54,303.4694" style="stroke:#181818;stroke-width:1;"/><line style="stroke:#181818;stroke-width:1;" x1="545.93" x2="555.93" y1="303.4694" y2="293.4694"/><line style="stroke:#181818;stroke-width:1;" x1="333.54" x2="545.93" y1="303.4694" y2="303.4694"/><line style="stroke:#181818;stroke-width:1;" x1="545.93" x2="545.93" y1="303.4694" y2="423.4694"/><text fill="#000000" font-family="sans-serif" font-size="16" font-weight="bold" lengthAdjust="spacing" textLength="63.4531" x="409.0084" y="321.3209">Cliente</text></g><!--cluster Backend--><g class="cluster" data-entity="Backend" data-source-line="22" data-uid="ent0006" id="cluster_Backend"><rect fill="none" height="101" rx="2.5" ry="2.5" style="stroke:#181818;stroke-width:1;" width="254.67" x="1157.59" y="266.4694"/><text fill="#000000" font-family="sans-serif" font-size="16" font-weight="bold" lengthAdjust="spacing" textLength="207.8672" x="1180.9914" y="283.3209">API Gateway / Backend</text></g><!--cluster External--><g class="cluster" data-entity="External" data-source-line="33" data-uid="ent0011" id="cluster_External"><rect fill="none" height="192" rx="2.5" ry="2.5" style="stroke:#181818;stroke-width:1;" width="191.33" x="1834.59" y="400.4694"/><text fill="#000000" font-family="sans-serif" font-size="16" font-weight="bold" lengthAdjust="spacing" textLength="166.7031" x="1846.9034" y="417.3209">Servicios externos</text></g><!--entity Navegador / App--><g class="entity" data-entity="Navegador . App" data-source-line="17" data-uid="ent0004" id="entity_Navegador . App"><rect fill="#F8F9FB" height="48.625" rx="2.5" ry="2.5" style="stroke:#1B4965;stroke-width:0.5;" width="174.3906" x="357.54" y="351.1594"/><rect fill="#F8F9FB" height="10" style="stroke:#1B4965;stroke-width:0.5;" width="15" x="511.9306" y="356.1594"/><rect fill="#F8F9FB" height="2" style="stroke:#1B4965;stroke-width:0.5;" width="4" x="509.9306" y="358.1594"/><rect fill="#F8F9FB" height="2" style="stroke:#1B4965;stroke-width:0.5;" width="4" x="509.9306" y="362.1594"/><text fill="#000000" font-family="sans-serif" font-size="16" lengthAdjust="spacing" textLength="134.3906" x="372.54" y="386.0109">Navegador / App</text></g><!--entity API--><g class="entity" data-entity="API" data-source-line="23" data-uid="ent0007" id="entity_API"><rect fill="#F8F9FB" height="48.625" rx="2.5" ry="2.5" style="stroke:#1B4965;stroke-width:0.5;" width="222.6719" x="1173.59" y="303.1594"/><rect fill="#F8F9FB" height="10" style="stroke:#1B4965;stroke-width:0.5;" width="15" x="1376.2619" y="308.1594"/><rect fill="#F8F9FB" height="2" style="stroke:#1B4965;stroke-width:0.5;" width="4" x="1374.2619" y="310.1594"/><rect fill="#F8F9FB" height="2" style="stroke:#1B4965;stroke-width:0.5;" width="4" x="1374.2619" y="314.1594"/><text fill="#000000" font-family="sans-serif" font-size="16" lengthAdjust="spacing" textLength="182.6719" x="1188.59" y="338.0109">Spring Boot (API REST)</text></g><!--entity Stripe--><g class="entity" data-entity="Stripe" data-source-line="34" data-uid="ent0012" id="entity_Stripe"><rect fill="#F8F9FB" height="48.625" rx="2.5" ry="2.5" style="stroke:#1B4965;stroke-width:0.5;" width="87.4531" x="1886.53" y="453.1594"/><rect fill="#F8F9FB" height="10" style="stroke:#1B4965;stroke-width:0.5;" width="15" x="1953.9831" y="458.1594"/><rect fill="#F8F9FB" height="2" style="stroke:#1B4965;stroke-width:0.5;" width="4" x="1951.9831" y="460.1594"/><rect fill="#F8F9FB" height="2" style="stroke:#1B4965;stroke-width:0.5;" width="4" x="1951.9831" y="464.1594"/><text fill="#000000" font-family="sans-serif" font-size="16" lengthAdjust="spacing" textLength="47.4531" x="1901.53" y="488.0109">Stripe</text></g><!--entity SMTP / Email--><g class="entity" data-entity="SMTP . Email" data-source-line="35" data-uid="ent0013" id="entity_SMTP . Email"><rect fill="#F8F9FB" height="48.625" rx="2.5" ry="2.5" style="stroke:#1B4965;stroke-width:0.5;" width="143.3359" x="1858.59" y="520.1594"/><rect fill="#F8F9FB" height="10" style="stroke:#1B4965;stroke-width:0.5;" width="15" x="1981.9259" y="525.1594"/><rect fill="#F8F9FB" height="2" style="stroke:#1B4965;stroke-width:0.5;" width="4" x="1979.9259" y="527.1594"/><rect fill="#F8F9FB" height="2" style="stroke:#1B4965;stroke-width:0.5;" width="4" x="1979.9259" y="531.1594"/><text fill="#000000" font-family="sans-serif" font-size="16" lengthAdjust="spacing" textLength="103.3359" x="1873.59" y="555.0109">SMTP / Email</text></g><!--entity User--><g class="entity" data-entity="User" data-source-line="15" data-uid="ent0002" id="entity_User"><ellipse cx="86.7695" cy="296.6594" fill="#F1F1F1" rx="8" ry="8" style="stroke:#181818;stroke-width:0.5;"/><path d="M86.7695,304.6594 L86.7695,331.6594 M73.7695,312.6594 L99.7695,312.6594 M86.7695,331.6594 L73.7695,346.6594 M86.7695,331.6594 L99.7695,346.6594" fill="none" style="stroke:#181818;stroke-width:0.5;"/><text fill="#000000" font-family="sans-serif" font-size="16" lengthAdjust="spacing" textLength="161.5391" x="6" y="363.0109">Usuario (Web/M&#243;vil)</text></g><!--entity Nginx--><g class="entity" data-entity="Nginx" data-source-line="20" data-uid="ent0005" id="entity_Nginx"><polygon fill="#F1F1F1" points="708.93,313.1594,718.93,303.1594,933.5863,303.1594,933.5863,341.7844,923.5863,351.7844,708.93,351.7844,708.93,313.1594" style="stroke:#181818;stroke-width:0.5;"/><line style="stroke:#181818;stroke-width:0.5;" x1="923.5863" x2="933.5863" y1="313.1594" y2="303.1594"/><line style="stroke:#181818;stroke-width:0.5;" x1="708.93" x2="923.5863" y1="313.1594" y2="313.1594"/><line style="stroke:#181818;stroke-width:0.5;" x1="923.5863" x2="923.5863" y1="313.1594" y2="351.7844"/><text fill="#000000" font-family="sans-serif" font-size="16" lengthAdjust="spacing" textLength="184.6563" x="723.93" y="338.0109">Reverse Proxy (NGINX)</text></g><!--entity Worker--><g class="entity" data-entity="Worker" data-source-line="26" data-uid="ent0008" id="entity_Worker"><rect fill="#F8F9FB" height="48.625" rx="2.5" ry="2.5" style="stroke:#1B4965;stroke-width:0.5;" width="219.2813" x="1820.61" y="206.1594"/><rect fill="#F8F9FB" height="10" style="stroke:#1B4965;stroke-width:0.5;" width="15" x="2019.8913" y="211.1594"/><rect fill="#F8F9FB" height="2" style="stroke:#1B4965;stroke-width:0.5;" width="4" x="2017.8913" y="213.1594"/><rect fill="#F8F9FB" height="2" style="stroke:#1B4965;stroke-width:0.5;" width="4" x="2017.8913" y="217.1594"/><text fill="#000000" font-family="sans-serif" font-size="16" lengthAdjust="spacing" textLength="179.2813" x="1835.61" y="241.0109">Tareas en background</text></g><!--entity Redis--><g class="entity" data-entity="Redis" data-source-line="27" data-uid="ent0009" id="entity_Redis"><path d="M1828.6,282.6594 C1828.6,272.6594 1930.2563,272.6594 1930.2563,272.6594 C1930.2563,272.6594 2031.9125,272.6594 2031.9125,282.6594 L2031.9125,310.2844 C2031.9125,320.2844 1930.2563,320.2844 1930.2563,320.2844 C1930.2563,320.2844 1828.6,320.2844 1828.6,310.2844 L1828.6,282.6594" fill="#F1F1F1" style="stroke:#181818;stroke-width:0.5;"/><path d="M1828.6,282.6594 C1828.6,292.6594 1930.2563,292.6594 1930.2563,292.6594 C1930.2563,292.6594 2031.9125,292.6594 2031.9125,282.6594" fill="none" style="stroke:#181818;stroke-width:0.5;"/><text fill="#000000" font-family="sans-serif" font-size="16" lengthAdjust="spacing" textLength="183.3125" x="1838.6" y="311.5109">Redis (cache/sesiones)</text></g><!--entity PG--><g class="entity" data-entity="PG" data-source-line="31" data-uid="ent0010" id="entity_PG"><path d="M2652.25,328.6594 C2652.25,318.6594 2708.3945,318.6594 2708.3945,318.6594 C2708.3945,318.6594 2764.5391,318.6594 2764.5391,328.6594 L2764.5391,356.2844 C2764.5391,366.2844 2708.3945,366.2844 2708.3945,366.2844 C2708.3945,366.2844 2652.25,366.2844 2652.25,356.2844 L2652.25,328.6594" fill="#F1F1F1" style="stroke:#181818;stroke-width:0.5;"/><path d="M2652.25,328.6594 C2652.25,338.6594 2708.3945,338.6594 2708.3945,338.6594 C2708.3945,338.6594 2764.5391,338.6594 2764.5391,328.6594" fill="none" style="stroke:#181818;stroke-width:0.5;"/><text fill="#000000" font-family="sans-serif" font-size="16" lengthAdjust="spacing" textLength="92.2891" x="2662.25" y="357.5109">PostgreSQL</text></g><g class="entity" data-entity="GMN22" data-source-line="49" data-uid="ent0023" id="entity_GMN22"><path d="M1683.26,52.6094 L1683.26,188.3281 L2177.2522,188.3281 L2177.2522,62.6094 L2167.2522,52.6094 L1683.26,52.6094" fill="#FEFFDD" style="stroke:#181818;stroke-width:0.5;"/><path d="M2167.2522,52.6094 L2167.2522,62.6094 L2177.2522,62.6094 L2167.2522,52.6094" fill="#FEFFDD" style="stroke:#181818;stroke-width:1;"/><text fill="#000000" font-family="sans-serif" font-size="12" lengthAdjust="spacing" textLength="122.9297" x="1689.26" y="68.748">Componentes clave:</text><text fill="#000000" font-family="sans-serif" font-size="12" lengthAdjust="spacing" textLength="232.8516" x="1689.26" y="82.7168">- Backend: Spring Boot (`Springboot/`)</text><text fill="#000000" font-family="sans-serif" font-size="12" lengthAdjust="spacing" textLength="189.4219" x="1689.26" y="96.6855">- Base de datos: PostgreSQL 15</text><text fill="#000000" font-family="sans-serif" font-size="12" lengthAdjust="spacing" textLength="248.8184" x="1689.26" y="110.6543">- Cache y sesiones: Redis (recomendado)</text><text fill="#000000" font-family="sans-serif" font-size="12" lengthAdjust="spacing" textLength="472.9922" x="1689.26" y="124.623">- Im&#225;genes: alojadas en servidores p&#250;blicos / (no se almacenan en el servidor)</text><text fill="#000000" font-family="sans-serif" font-size="12" lengthAdjust="spacing" textLength="305.7773" x="1689.26" y="138.5918">- TLS/HTTPS: Reverse proxy NGINX (recomendada)</text><text fill="#000000" font-family="sans-serif" font-size="12" lengthAdjust="spacing" textLength="267.4453" x="1689.26" y="152.5605">- Contenedores: Docker Compose disponible</text><text fill="#000000" font-family="sans-serif" font-size="12" lengthAdjust="spacing" textLength="3.8145" x="1689.26" y="166.5293">&#160;</text><text fill="#000000" font-family="sans-serif" font-size="12" lengthAdjust="spacing" textLength="3.8145" x="1689.26" y="180.498">&#160;</text></g><!--link User to Client--><g class="link" data-entity-1="User" data-entity-2="Client" data-source-line="38" data-uid="lnk14" id="link_User_Client"><path d="M167.65,327.4694 C193.48,327.4694 223.3169,327.4694 253.6242,327.4694 C268.7779,327.4694 284.0492,327.4694 298.996,327.4694 C306.4695,327.4694 313.8618,327.4694 321.1177,327.4694 C324.7457,327.4694 328.3396,327.4694 331.8925,327.4694 C332.3366,327.4694 326.7801,327.4694 327.2229,327.4694" fill="none" id="User-to-Client" style="stroke:#181818;stroke-width:1;"/><polygon fill="#181818" points="333.2229,327.4694,324.2229,323.4694,328.2229,327.4694,324.2229,331.4694,333.2229,327.4694" style="stroke:#181818;stroke-width:1;"/><text fill="#000000" font-family="sans-serif" font-size="16" lengthAdjust="spacing" textLength="110.8438" x="198.54" y="323.3209">Interacci&#243;n UI</text></g><!--link Client to Nginx--><g class="link" data-entity-1="Client" data-entity-2="Nginx" data-source-line="39" data-uid="lnk15" id="link_Client_Nginx"><path d="M556.3425,327.4694 C556.7674,327.4694 557.1928,327.4694 557.619,327.4694 C564.4368,327.4694 571.4147,327.4694 578.5067,327.4694 C592.6909,327.4694 607.332,327.4694 622.0636,327.4694 C651.5269,327.4694 675.3525,327.4694 702.61,327.4694" fill="none" id="Client-to-Nginx" style="stroke:#181818;stroke-width:1;"/><polygon fill="#181818" points="708.61,327.4694,699.61,323.4694,703.61,327.4694,699.61,331.4694,708.61,327.4694" style="stroke:#181818;stroke-width:1;"/><text fill="#000000" font-family="sans-serif" font-size="16" lengthAdjust="spacing" textLength="97.7969" x="580.93" y="323.3209">HTTPS (TLS)</text></g><!--link Nginx to API--><g class="link" data-entity-1="Nginx" data-entity-2="API" data-source-line="40" data-uid="lnk16" id="link_Nginx_API"><path d="M934.01,327.4694 C1006.6,327.4694 1094.82,327.4694 1167.2,327.4694" fill="none" id="Nginx-to-API" style="stroke:#181818;stroke-width:1;"/><polygon fill="#181818" points="1173.2,327.4694,1164.2,323.4694,1168.2,327.4694,1164.2,331.4694,1173.2,327.4694" style="stroke:#181818;stroke-width:1;"/><text fill="#000000" font-family="sans-serif" font-size="16" lengthAdjust="spacing" textLength="176.5391" x="964.59" y="323.3209">HTTP (interna) / Proxy</text></g><!--link API to PG--><g class="link" data-entity-1="API" data-entity-2="PG" data-source-line="41" data-uid="lnk17" id="link_API_PG"><path d="M1396.75,335.2494 C1476.41,340.4394 1586.4,346.7894 1683.26,349.4694 C2052.95,359.6994 2491.9826,348.8544 2645.8726,344.3644" fill="none" id="API-to-PG" style="stroke:#181818;stroke-width:1;"/><polygon fill="#181818" points="2651.87,344.1894,2642.7572,340.4536,2646.8721,344.3352,2642.9905,348.4502,2651.87,344.1894" style="stroke:#181818;stroke-width:1;"/><text fill="#000000" font-family="sans-serif" font-size="16" lengthAdjust="spacing" textLength="115.1875" x="1872.75" y="345.3209">Consultas SQL</text></g><!--link API to Redis--><g class="link" data-entity-1="API" data-entity-2="Redis" data-source-line="42" data-uid="lnk18" id="link_API_Redis"><path d="M1396.51,322.1394 C1517.85,316.2894 1704.937,307.2784 1822.307,301.6184" fill="none" id="API-to-Redis" style="stroke:#181818;stroke-width:1;"/><polygon fill="#181818" points="1828.3,301.3294,1819.1178,297.7675,1823.3058,301.5702,1819.5031,305.7582,1828.3,301.3294" style="stroke:#181818;stroke-width:1;"/><text fill="#000000" font-family="sans-serif" font-size="16" lengthAdjust="spacing" textLength="223.4219" x="1429.26" y="305.9609">Cache / sesiones / rate-limit</text></g><!--link API to External--><g class="link" data-entity-1="API" data-entity-2="External" data-source-line="43" data-uid="lnk19" id="link_API_External"><path d="M1329.31,352.1794 C1356.77,366.5594 1393.52,383.5594 1428.26,392.4694 C1535.55,419.9844 1659.6875,429.3044 1757.5513,431.7106 C1782.0172,432.3122 1804.841,432.4816 1825.349,432.3953 C1827.9125,432.3845 1824.4399,432.4141 1826.9297,432.3957" fill="none" id="API-to-External" style="stroke:#181818;stroke-width:1;"/><polygon fill="#181818" points="1832.9296,432.3512,1823.9002,428.418,1827.9297,432.3883,1823.9595,436.4178,1832.9296,432.3512" style="stroke:#181818;stroke-width:1;"/><text fill="#000000" font-family="sans-serif" font-size="16" lengthAdjust="spacing" textLength="178.0547" x="1451.76" y="388.3209">Pagos y notificaciones</text></g><!--link API to Worker--><g class="link" data-entity-1="API" data-entity-2="Worker" data-source-line="44" data-uid="lnk20" id="link_API_Worker"><path d="M1362.9,302.7194 C1383.92,296.6694 1406.82,290.7194 1428.26,286.4694 C1561.96,259.9394 1712.4368,245.4086 1814.4668,237.7486" fill="none" id="API-to-Worker" style="stroke:#181818;stroke-width:1;"/><polygon fill="#181818" points="1820.45,237.2994,1811.1758,233.9844,1815.464,237.6737,1811.7747,241.9619,1820.45,237.2994" style="stroke:#181818;stroke-width:1;"/><text fill="#000000" font-family="sans-serif" font-size="16" lengthAdjust="spacing" textLength="109.5547" x="1486.26" y="249.4309">jobs  backups</text></g><!--link Worker to PG--><g class="link" data-entity-1="Worker" data-entity-2="PG" data-source-line="45" data-uid="lnk21" id="link_Worker_PG"><path d="M2040.29,244.7494 C2083.02,250.4394 2132.45,257.1294 2177.25,263.4694 C2350.7,288.0294 2549.7993,318.2804 2646.1693,333.0504" fill="none" id="Worker-to-PG" style="stroke:#181818;stroke-width:1;"/><polygon fill="#181818" points="2652.1,333.9594,2643.8099,328.6421,2647.1577,333.2019,2642.5979,336.5498,2652.1,333.9594" style="stroke:#181818;stroke-width:1;"/><text fill="#000000" font-family="sans-serif" font-size="16" lengthAdjust="spacing" textLength="413.7188" x="2208.25" y="265.4509">Tareas programadas mantencion / procesos en lote</text></g><!--link SMTP / Email to GMN22--><g class="link" data-entity-1="SMTP . Email" data-entity-2="GMN22" data-source-line="49" data-uid="lnk24" id="link_SMTP . Email_GMN22"><path d="M1858.45,561.1594 C1771.49,576.6194 1627.3,586.0794 1551.76,501.4694 C1464.44,403.6694 1469.96,308.9394 1551.76,206.4694 C1584.44,165.5194 1632.19,141.5194 1682.83,127.9394" fill="none" id="SMTP / Email-GMN22" style="stroke:#181818;stroke-width:1;stroke-dasharray:7,7;"/></g><!--SRC=[TLHDRnit4BtlhnWuXqW7MP2H1CaU0jYAxGYmLJMIaGA10L7SqPesbzoGNCLgqH_JOy-vvQe_raUk9Cj8gej8pflFzsQ32fhfr7rjL60P6YUeHwUJ4NrYoK5uAbZJTMCAcsbU1WgMd2hl0XNA0Q-ioLxI-Ke5uMZkfT0yfreWojU6QQA52JVNLuHtsI0FOccnjaqWQQjQSx2PVr0cEbIq4FAXT1QvXbPRHoykqky0KV1ID3fSM1Ecwa-cmPi3OuYTx4qd9mUccCmQDl_ZQMnuSXoSFBCKxBccmTjVHQE_CgApdwf-U_7kuYnQh2lORLy7Pw_UlNcT_PrbGWOy7DtuHZXbgVEP5_thpVULqjqZmi1lFBii9gQZeLP8m-cvFQUKNyPYnQKe4APFftLz6yEs7fzunSvZyiu-hgaplXoD_sZ3Zajb7hCiaYPC2IwE8ikN8l0tiKQSs0UR8c6tvpRPj7RAbEZ61keaPPnFPztRYCCjfluo4uvnPNF0OG9yjku1tHGYY8NmgRv2UUf88U-uxzb3F-pR0fCfWvhYnAIbYVMXT3pz_Ohk6m_TWOgwsVpRIdA-hV59RV3SwqrRyYfiVZ2m2t5laqkiVGtzULfgbdVubyWkGomRipq-AFCfTofjSlbiS5DsAoMLHSUFWPsnFg7EqqNexTY2KpNVfkFrR889drT2wSHLf9XwlVSxKdCQWMOdf5IRxuPkHjdM4369E40-pcQJANLcLzDkrhv5QsogjL57cLH05xaI_raqzWhxpG0ukGHkQ8t70g5OjDQQOMf9WJMo0kSTBpWwwAEdLQN27hrlCwU9A364TLmWjLGWDRdjaItxmDtRXQUaZQRssVQvjojggvxQsHBh9GgSA_389eP33J18zZRfIsDLGVJO1f4dAbMr-QVaMEpuDnHEGbT2iX4ceja7nYFOmguSqvIfyR3iNk1KRtuij9BMzuSVniTnY-2ni27O2imDTviEfDHOkXoFlTrwvFHiDURjRO5BVzxT0drK845OrkU7YXwyJe1suklznFCj5nsepLR8WILlGursVUPeqTwdAV6lMy78EiR-F0ozHxSXeQH-4bNCsduswlJPI5-Dmnf4wm3rW1LEwNBwO6MaCSqejgayPgKMcZE0i_ZvYCF4Gh-a9MO2gEFAhhWWiEeO6-j3zXy0]--></g></svg>