<svg xmlns="http://www.w3.org/2000/svg" xmlns:xlink="http://www.w3.org/1999/xlink" contentStyleType="text/css" data-diagram-type="DESCRIPTION" height="108px" preserveAspectRatio="xMidYMid meet" style="width:671px;height:108px;background:#FFFFFF;" version="1.1" viewBox="0 0 871 140" width="671px" zoomAndPan="magnify"><title>Endpoints - Autenticaci&#243;n</title><defs/><g><g class="title" data-source-line="1"><text fill="#000000" font-family="sans-serif" font-size="12.6" font-weight="bold" lengthAdjust="spacing" textLength="156.0973" x="351.6803" y="22.0799">Endpoints - Autenticaci&#243;n</text></g><!--cluster Autenticaci?n--><g class="cluster" data-entity="Autenticaci.n" data-source-line="8" data-uid="ent0002" id="cluster_Autenticaci.n"><path d="M7.65,40.1625 L103.7602,40.1625 A3.375,3.375 0 0 1 106.0102,42.4125 L112.3102,63.675 L359.55,63.675 A2.25,2.25 0 0 1 361.8,65.925 L361.8,132.4125 A2.25,2.25 0 0 1 359.55,134.6625 L7.65,134.6625 A2.25,2.25 0 0 1 5.4,132.4125 L5.4,42.4125 A2.25,2.25 0 0 1 7.65,40.1625" fill="none" style="stroke:#000000;stroke-width:1.35;"/><line style="stroke:#000000;stroke-width:1.35;" x1="5.4" x2="112.3102" y1="63.675" y2="63.675"/><text fill="#000000" font-family="sans-serif" font-size="14.4" font-weight="bold" lengthAdjust="spacing" textLength="95.2102" x="9" y="56.9109">Autenticaci&#243;n</text></g><!--entity POST /auth/register--><g class="entity" data-entity="POST .auth.register" data-source-line="9" data-uid="ent0003" id="entity_POST .auth.register"><rect fill="#F1F1F1" height="45.1125" rx="2.25" ry="2.25" style="stroke:#181818;stroke-width:0.45;" width="163.2516" x="20.25" y="75.2625"/><rect fill="#F1F1F1" height="9" style="stroke:#181818;stroke-width:0.45;" width="13.5" x="165.5016" y="79.7625"/><rect fill="#F1F1F1" height="1.8" style="stroke:#181818;stroke-width:0.45;" width="3.6" x="163.7016" y="81.5625"/><rect fill="#F1F1F1" height="1.8" style="stroke:#181818;stroke-width:0.45;" width="3.6" x="163.7016" y="85.1625"/><text fill="#000000" font-family="sans-serif" font-size="14.4" lengthAdjust="spacing" textLength="127.2516" x="33.75" y="108.2109">POST /auth/register</text></g><!--entity POST /auth/login--><g class="entity" data-entity="POST .auth.login" data-source-line="10" data-uid="ent0004" id="entity_POST .auth.login"><rect fill="#F1F1F1" height="45.1125" rx="2.25" ry="2.25" style="stroke:#181818;stroke-width:0.45;" width="145.6594" x="201.6" y="75.2625"/><rect fill="#F1F1F1" height="9" style="stroke:#181818;stroke-width:0.45;" width="13.5" x="329.2594" y="79.7625"/><rect fill="#F1F1F1" height="1.8" style="stroke:#181818;stroke-width:0.45;" width="3.6" x="327.4594" y="81.5625"/><rect fill="#F1F1F1" height="1.8" style="stroke:#181818;stroke-width:0.45;" width="3.6" x="327.4594" y="85.1625"/><text fill="#000000" font-family="sans-serif" font-size="14.4" lengthAdjust="spacing" textLength="109.6594" x="215.1" y="108.2109">POST /auth/login</text></g><g class="entity" data-entity="GMN5" data-source-line="14" data-uid="ent0006" id="entity_GMN5"><path d="M376.2,84.2625 L376.2,94.1625 L347.589,97.7625 L376.2,101.3625 L376.2,111.375 A0,0 0 0 0 376.2,111.375 L865.7578,111.375 A0,0 0 0 0 865.7578,111.375 L865.7578,93.2625 L856.7578,84.2625 L376.2,84.2625 A0,0 0 0 0 376.2,84.2625" fill="#FAFAFA" style="stroke:#181818;stroke-width:0.45;"/><path d="M856.7578,84.2625 L856.7578,93.2625 L865.7578,93.2625 L856.7578,84.2625" fill="#FAFAFA" style="stroke:#181818;stroke-width:0.45;"/></g></g></svg>





