<svg xmlns="http://www.w3.org/2000/svg" xmlns:xlink="http://www.w3.org/1999/xlink" contentStyleType="text/css" data-diagram-type="DESCRIPTION" height="102px" preserveAspectRatio="xMidYMid meet" style="width:541px;height:102px;background:#FFFFFF;" version="1.1" viewBox="0 0 741 140" width="541px" zoomAndPan="magnify"><title>Endpoints - Donaciones</title><defs/><g><g class="title" data-source-line="1"><text fill="#000000" font-family="sans-serif" font-size="12.6" font-weight="bold" lengthAdjust="spacing" textLength="144.2048" x="292.5031" y="22.0799">Endpoints - Donaciones</text></g><!--cluster Donaciones--><g class="cluster" data-entity="Donaciones" data-source-line="8" data-uid="ent0002" id="cluster_Donaciones"><path d="M7.65,40.1625 L90.1688,40.1625 A3.375,3.375 0 0 1 92.4188,42.4125 L98.7188,63.675 L458.55,63.675 A2.25,2.25 0 0 1 460.8,65.925 L460.8,132.4125 A2.25,2.25 0 0 1 458.55,134.6625 L7.65,134.6625 A2.25,2.25 0 0 1 5.4,132.4125 L5.4,42.4125 A2.25,2.25 0 0 1 7.65,40.1625" fill="none" style="stroke:#000000;stroke-width:1.35;"/><line style="stroke:#000000;stroke-width:1.35;" x1="5.4" x2="98.7188" y1="63.675" y2="63.675"/><text fill="#000000" font-family="sans-serif" font-size="14.4" font-weight="bold" lengthAdjust="spacing" textLength="81.6188" x="9" y="56.9109">Donaciones</text></g><!--entity POST /recetas/donaciones--><g class="entity" data-entity="POST .recetas.donaciones" data-source-line="9" data-uid="ent0003" id="entity_POST .recetas.donaciones"><rect fill="#F1F1F1" height="45.1125" rx="2.25" ry="2.25" style="stroke:#181818;stroke-width:0.45;" width="208.0898" x="20.25" y="75.2625"/><rect fill="#F1F1F1" height="9" style="stroke:#181818;stroke-width:0.45;" width="13.5" x="210.3398" y="79.7625"/><rect fill="#F1F1F1" height="1.8" style="stroke:#181818;stroke-width:0.45;" width="3.6" x="208.5398" y="81.5625"/><rect fill="#F1F1F1" height="1.8" style="stroke:#181818;stroke-width:0.45;" width="3.6" x="208.5398" y="85.1625"/><text fill="#000000" font-family="sans-serif" font-size="14.4" lengthAdjust="spacing" textLength="172.0898" x="33.75" y="108.2109">POST /recetas/donaciones</text></g><!--entity POST /admin/donaciones--><g class="entity" data-entity="POST .admin.donaciones" data-source-line="10" data-uid="ent0004" id="entity_POST .admin.donaciones"><rect fill="#F1F1F1" height="45.1125" rx="2.25" ry="2.25" style="stroke:#181818;stroke-width:0.45;" width="200.0883" x="246.6" y="75.2625"/><rect fill="#F1F1F1" height="9" style="stroke:#181818;stroke-width:0.45;" width="13.5" x="428.6883" y="79.7625"/><rect fill="#F1F1F1" height="1.8" style="stroke:#181818;stroke-width:0.45;" width="3.6" x="426.8883" y="81.5625"/><rect fill="#F1F1F1" height="1.8" style="stroke:#181818;stroke-width:0.45;" width="3.6" x="426.8883" y="85.1625"/><text fill="#000000" font-family="sans-serif" font-size="14.4" lengthAdjust="spacing" textLength="164.0883" x="260.1" y="108.2109">POST /admin/donaciones</text></g><g class="entity" data-entity="GMN5" data-source-line="14" data-uid="ent0006" id="entity_GMN5"><path d="M475.65,84.2625 L475.65,94.1625 L446.481,97.7625 L475.65,101.3625 L475.65,111.375 A0,0 0 0 0 475.65,111.375 L735.5109,111.375 A0,0 0 0 0 735.5109,111.375 L735.5109,93.2625 L726.5109,84.2625 L475.65,84.2625 A0,0 0 0 0 475.65,84.2625" fill="#FAFAFA" style="stroke:#181818;stroke-width:0.45;"/><path d="M726.5109,84.2625 L726.5109,93.2625 L735.5109,93.2625 L726.5109,84.2625" fill="#FAFAFA" style="stroke:#181818;stroke-width:0.45;"/></g></g></svg>





