<svg xmlns="http://www.w3.org/2000/svg" xmlns:xlink="http://www.w3.org/1999/xlink" contentStyleType="text/css" data-diagram-type="DESCRIPTION" height="178px" preserveAspectRatio="xMidYMid meet" style="width:1250px;height:178px;background:#FFFFFF;" version="1.1" viewBox="0 0 1450 207" width="1250px" zoomAndPan="magnify"><title>Endpoints - Pa&#237;ses y Categor&#237;as</title><defs/><g><g class="title" data-source-line="1"><text fill="#000000" font-family="sans-serif" font-size="12.6" font-weight="bold" lengthAdjust="spacing" textLength="191.8547" x="623.1727" y="22.0799">Endpoints - Pa&#237;ses y Categor&#237;as</text></g><!--cluster Pa?ses--><g class="cluster" data-entity="Pa.ses" data-source-line="8" data-uid="ent0002" id="cluster_Pa.ses"><path d="M844.65,40.1625 L891.1898,40.1625 A3.375,3.375 0 0 1 893.4398,42.4125 L899.7398,63.675 L1442.25,63.675 A2.25,2.25 0 0 1 1444.5,65.925 L1444.5,199.0125 A2.25,2.25 0 0 1 1442.25,201.2625 L844.65,201.2625 A2.25,2.25 0 0 1 842.4,199.0125 L842.4,42.4125 A2.25,2.25 0 0 1 844.65,40.1625" fill="none" style="stroke:#000000;stroke-width:1.35;"/><line style="stroke:#000000;stroke-width:1.35;" x1="842.4" x2="899.7398" y1="63.675" y2="63.675"/><text fill="#000000" font-family="sans-serif" font-size="14.4" font-weight="bold" lengthAdjust="spacing" textLength="45.6398" x="846" y="56.9109">Pa&#237;ses</text></g><!--cluster Categor?as--><g class="cluster" data-entity="Categor.as" data-source-line="17" data-uid="ent0009" id="cluster_Categor.as"><path d="M7.65,40.1625 L82.9758,40.1625 A3.375,3.375 0 0 1 85.2258,42.4125 L91.5258,63.675 L550.35,63.675 A2.25,2.25 0 0 1 552.6,65.925 L552.6,199.0125 A2.25,2.25 0 0 1 550.35,201.2625 L7.65,201.2625 A2.25,2.25 0 0 1 5.4,199.0125 L5.4,42.4125 A2.25,2.25 0 0 1 7.65,40.1625" fill="none" style="stroke:#000000;stroke-width:1.35;"/><line style="stroke:#000000;stroke-width:1.35;" x1="5.4" x2="91.5258" y1="63.675" y2="63.675"/><text fill="#000000" font-family="sans-serif" font-size="14.4" font-weight="bold" lengthAdjust="spacing" textLength="74.4258" x="9" y="56.9109">Categor&#237;as</text></g><!--entity GET /paises--><g class="entity" data-entity="GET .paises" data-source-line="9" data-uid="ent0003" id="entity_GET .paises"><rect fill="#F1F1F1" height="45.1125" rx="2.25" ry="2.25" style="stroke:#181818;stroke-width:0.45;" width="115.2281" x="869.4" y="75.2625"/><rect fill="#F1F1F1" height="9" style="stroke:#181818;stroke-width:0.45;" width="13.5" x="966.6281" y="79.7625"/><rect fill="#F1F1F1" height="1.8" style="stroke:#181818;stroke-width:0.45;" width="3.6" x="964.8281" y="81.5625"/><rect fill="#F1F1F1" height="1.8" style="stroke:#181818;stroke-width:0.45;" width="3.6" x="964.8281" y="85.1625"/><text fill="#000000" font-family="sans-serif" font-size="14.4" lengthAdjust="spacing" textLength="79.2281" x="882.9" y="108.2109">GET /paises</text></g><!--entity POST /paises--><g class="entity" data-entity="POST .paises" data-source-line="10" data-uid="ent0004" id="entity_POST .paises"><rect fill="#F1F1F1" height="45.1125" rx="2.25" ry="2.25" style="stroke:#181818;stroke-width:0.45;" width="124.8328" x="1003.05" y="75.2625"/><rect fill="#F1F1F1" height="9" style="stroke:#181818;stroke-width:0.45;" width="13.5" x="1109.8828" y="79.7625"/><rect fill="#F1F1F1" height="1.8" style="stroke:#181818;stroke-width:0.45;" width="3.6" x="1108.0828" y="81.5625"/><rect fill="#F1F1F1" height="1.8" style="stroke:#181818;stroke-width:0.45;" width="3.6" x="1108.0828" y="85.1625"/><text fill="#000000" font-family="sans-serif" font-size="14.4" lengthAdjust="spacing" textLength="88.8328" x="1016.55" y="108.2109">POST /paises</text></g><!--entity GET /paises/{id}--><g class="entity" data-entity="GET .paises..id." data-source-line="11" data-uid="ent0005" id="entity_GET .paises..id."><rect fill="#F1F1F1" height="45.1125" rx="2.25" ry="2.25" style="stroke:#181818;stroke-width:0.45;" width="140.0555" x="1146.6" y="75.2625"/><rect fill="#F1F1F1" height="9" style="stroke:#181818;stroke-width:0.45;" width="13.5" x="1268.6555" y="79.7625"/><rect fill="#F1F1F1" height="1.8" style="stroke:#181818;stroke-width:0.45;" width="3.6" x="1266.8555" y="81.5625"/><rect fill="#F1F1F1" height="1.8" style="stroke:#181818;stroke-width:0.45;" width="3.6" x="1266.8555" y="85.1625"/><text fill="#000000" font-family="sans-serif" font-size="14.4" lengthAdjust="spacing" textLength="104.0555" x="1160.1" y="108.2109">GET /paises/{id}</text></g><!--entity PUT /paises/{id}--><g class="entity" data-entity="PUT .paises..id." data-source-line="12" data-uid="ent0006" id="entity_PUT .paises..id."><rect fill="#F1F1F1" height="45.1125" rx="2.25" ry="2.25" style="stroke:#181818;stroke-width:0.45;" width="139.2539" x="857.25" y="141.8625"/><rect fill="#F1F1F1" height="9" style="stroke:#181818;stroke-width:0.45;" width="13.5" x="978.5039" y="146.3625"/><rect fill="#F1F1F1" height="1.8" style="stroke:#181818;stroke-width:0.45;" width="3.6" x="976.7039" y="148.1625"/><rect fill="#F1F1F1" height="1.8" style="stroke:#181818;stroke-width:0.45;" width="3.6" x="976.7039" y="151.7625"/><text fill="#000000" font-family="sans-serif" font-size="14.4" lengthAdjust="spacing" textLength="103.2539" x="870.75" y="174.8109">PUT /paises/{id}</text></g><!--entity DELETE /paises/{id}--><g class="entity" data-entity="DELETE .paises..id." data-source-line="13" data-uid="ent0007" id="entity_DELETE .paises..id."><rect fill="#F1F1F1" height="45.1125" rx="2.25" ry="2.25" style="stroke:#181818;stroke-width:0.45;" width="166.4719" x="1014.75" y="141.8625"/><rect fill="#F1F1F1" height="9" style="stroke:#181818;stroke-width:0.45;" width="13.5" x="1163.2219" y="146.3625"/><rect fill="#F1F1F1" height="1.8" style="stroke:#181818;stroke-width:0.45;" width="3.6" x="1161.4219" y="148.1625"/><rect fill="#F1F1F1" height="1.8" style="stroke:#181818;stroke-width:0.45;" width="3.6" x="1161.4219" y="151.7625"/><text fill="#000000" font-family="sans-serif" font-size="14.4" lengthAdjust="spacing" textLength="130.4719" x="1028.25" y="174.8109">DELETE /paises/{id}</text></g><!--entity GET /paises/nombre/{nombre}--><g class="entity" data-entity="GET .paises.nombre..nombre." data-source-line="14" data-uid="ent0008" id="entity_GET .paises.nombre..nombre."><rect fill="#F1F1F1" height="45.1125" rx="2.25" ry="2.25" style="stroke:#181818;stroke-width:0.45;" width="230.4984" x="1199.7" y="141.8625"/><rect fill="#F1F1F1" height="9" style="stroke:#181818;stroke-width:0.45;" width="13.5" x="1412.1984" y="146.3625"/><rect fill="#F1F1F1" height="1.8" style="stroke:#181818;stroke-width:0.45;" width="3.6" x="1410.3984" y="148.1625"/><rect fill="#F1F1F1" height="1.8" style="stroke:#181818;stroke-width:0.45;" width="3.6" x="1410.3984" y="151.7625"/><text fill="#000000" font-family="sans-serif" font-size="14.4" lengthAdjust="spacing" textLength="194.4984" x="1213.2" y="174.8109">GET /paises/nombre/{nombre}</text></g><!--entity GET /categorias--><g class="entity" data-entity="GET .categorias" data-source-line="18" data-uid="ent0010" id="entity_GET .categorias"><rect fill="#F1F1F1" height="45.1125" rx="2.25" ry="2.25" style="stroke:#181818;stroke-width:0.45;" width="140.0414" x="19.8" y="75.2625"/><rect fill="#F1F1F1" height="9" style="stroke:#181818;stroke-width:0.45;" width="13.5" x="141.8414" y="79.7625"/><rect fill="#F1F1F1" height="1.8" style="stroke:#181818;stroke-width:0.45;" width="3.6" x="140.0414" y="81.5625"/><rect fill="#F1F1F1" height="1.8" style="stroke:#181818;stroke-width:0.45;" width="3.6" x="140.0414" y="85.1625"/><text fill="#000000" font-family="sans-serif" font-size="14.4" lengthAdjust="spacing" textLength="104.0414" x="33.3" y="108.2109">GET /categorias</text></g><!--entity POST /categorias--><g class="entity" data-entity="POST .categorias" data-source-line="19" data-uid="ent0011" id="entity_POST .categorias"><rect fill="#F1F1F1" height="45.1125" rx="2.25" ry="2.25" style="stroke:#181818;stroke-width:0.45;" width="149.6461" x="178.2" y="75.2625"/><rect fill="#F1F1F1" height="9" style="stroke:#181818;stroke-width:0.45;" width="13.5" x="309.8461" y="79.7625"/><rect fill="#F1F1F1" height="1.8" style="stroke:#181818;stroke-width:0.45;" width="3.6" x="308.0461" y="81.5625"/><rect fill="#F1F1F1" height="1.8" style="stroke:#181818;stroke-width:0.45;" width="3.6" x="308.0461" y="85.1625"/><text fill="#000000" font-family="sans-serif" font-size="14.4" lengthAdjust="spacing" textLength="113.6461" x="191.7" y="108.2109">POST /categorias</text></g><!--entity GET /categorias/{id}--><g class="entity" data-entity="GET .categorias..id." data-source-line="20" data-uid="ent0012" id="entity_GET .categorias..id."><rect fill="#F1F1F1" height="45.1125" rx="2.25" ry="2.25" style="stroke:#181818;stroke-width:0.45;" width="164.8688" x="20.25" y="141.8625"/><rect fill="#F1F1F1" height="9" style="stroke:#181818;stroke-width:0.45;" width="13.5" x="167.1188" y="146.3625"/><rect fill="#F1F1F1" height="1.8" style="stroke:#181818;stroke-width:0.45;" width="3.6" x="165.3188" y="148.1625"/><rect fill="#F1F1F1" height="1.8" style="stroke:#181818;stroke-width:0.45;" width="3.6" x="165.3188" y="151.7625"/><text fill="#000000" font-family="sans-serif" font-size="14.4" lengthAdjust="spacing" textLength="128.8688" x="33.75" y="174.8109">GET /categorias/{id}</text></g><!--entity PUT /categorias/{id}--><g class="entity" data-entity="PUT .categorias..id." data-source-line="21" data-uid="ent0013" id="entity_PUT .categorias..id."><rect fill="#F1F1F1" height="45.1125" rx="2.25" ry="2.25" style="stroke:#181818;stroke-width:0.45;" width="164.0672" x="203.4" y="141.8625"/><rect fill="#F1F1F1" height="9" style="stroke:#181818;stroke-width:0.45;" width="13.5" x="349.4672" y="146.3625"/><rect fill="#F1F1F1" height="1.8" style="stroke:#181818;stroke-width:0.45;" width="3.6" x="347.6672" y="148.1625"/><rect fill="#F1F1F1" height="1.8" style="stroke:#181818;stroke-width:0.45;" width="3.6" x="347.6672" y="151.7625"/><text fill="#000000" font-family="sans-serif" font-size="14.4" lengthAdjust="spacing" textLength="128.0672" x="216.9" y="174.8109">PUT /categorias/{id}</text></g><!--entity DELETE /categorias/{id}--><g class="entity" data-entity="DELETE .categorias..id." data-source-line="22" data-uid="ent0014" id="entity_DELETE .categorias..id."><rect fill="#F1F1F1" height="45.1125" rx="2.25" ry="2.25" style="stroke:#181818;stroke-width:0.45;" width="191.2852" x="346.05" y="75.2625"/><rect fill="#F1F1F1" height="9" style="stroke:#181818;stroke-width:0.45;" width="13.5" x="519.3352" y="79.7625"/><rect fill="#F1F1F1" height="1.8" style="stroke:#181818;stroke-width:0.45;" width="3.6" x="517.5352" y="81.5625"/><rect fill="#F1F1F1" height="1.8" style="stroke:#181818;stroke-width:0.45;" width="3.6" x="517.5352" y="85.1625"/><text fill="#000000" font-family="sans-serif" font-size="14.4" lengthAdjust="spacing" textLength="155.2852" x="359.55" y="108.2109">DELETE /categorias/{id}</text></g><g class="entity" data-entity="GMN15" data-source-line="26" data-uid="ent0016" id="entity_GMN15"><path d="M567.45,84.2625 L567.45,94.1625 L537.75,97.7625 L567.45,101.3625 L567.45,111.375 A0,0 0 0 0 567.45,111.375 L827.3109,111.375 A0,0 0 0 0 827.3109,111.375 L827.3109,93.2625 L818.3109,84.2625 L567.45,84.2625 A0,0 0 0 0 567.45,84.2625" fill="#FAFAFA" style="stroke:#181818;stroke-width:0.45;"/><path d="M818.3109,84.2625 L818.3109,93.2625 L827.3109,93.2625 L818.3109,84.2625" fill="#FAFAFA" style="stroke:#181818;stroke-width:0.45;"/></g></g></svg>





