<svg xmlns="http://www.w3.org/2000/svg" xmlns:xlink="http://www.w3.org/1999/xlink" contentStyleType="text/css" data-diagram-type="DESCRIPTION" height="283.5px" preserveAspectRatio="none" style="width:786px;height:283px;background:#FFFFFF;" version="1.1" viewBox="0 0 1186 283" width="1186.875px" zoomAndPan="magnify"><title>Endpoints - Usuarios</title><defs/><g><g class="title" data-source-line="1"><text fill="#000000" font-family="sans-serif" font-size="15.75" font-weight="bold" lengthAdjust="spacing" textLength="158.3844" x="506.746" y="27.5999">Endpoints - Usuarios</text></g><!--cluster Usuarios--><g class="cluster" data-entity="Usuarios" data-source-line="8" data-uid="ent0002" id="cluster_Usuarios"><path d="M9.5625,51.1919 L106.9717,51.1919 A4.2188,4.2188 0 0 1 109.7842,54.0044 L117.6592,86.2427 L758.8125,86.2427 A2.8125,2.8125 0 0 1 761.625,89.0552 L761.625,273.3794 A2.8125,2.8125 0 0 1 758.8125,276.1919 L9.5625,276.1919 A2.8125,2.8125 0 0 1 6.75,273.3794 L6.75,54.0044 A2.8125,2.8125 0 0 1 9.5625,51.1919" fill="none" style="stroke:#000000;stroke-width:1.6875;"/><line style="stroke:#000000;stroke-width:1.6875;" x1="6.75" x2="117.6592" y1="86.2427" y2="86.2427"/><text fill="#000000" font-family="sans-serif" font-size="22.5" font-weight="bold" lengthAdjust="spacing" textLength="96.2842" x="11.25" y="76.7988">Usuarios</text></g><!--entity GET /usuarios--><g class="entity" data-entity="GET .usuarios" data-source-line="9" data-uid="ent0003" id="entity_GET .usuarios"><rect fill="#F1F1F1" height="62.0508" rx="2.8125" ry="2.8125" style="stroke:#181818;stroke-width:0.5625;" width="188.8" x="24.75" y="100.6919"/><rect fill="#F1F1F1" height="11.25" style="stroke:#181818;stroke-width:0.5625;" width="16.875" x="191.05" y="106.3169"/><rect fill="#F1F1F1" height="2.25" style="stroke:#181818;stroke-width:0.5625;" width="4.5" x="188.8" y="108.5669"/><rect fill="#F1F1F1" height="2.25" style="stroke:#181818;stroke-width:0.5625;" width="4.5" x="188.8" y="113.0669"/><text fill="#000000" font-family="sans-serif" font-size="22.5" lengthAdjust="spacing" textLength="143.8" x="41.625" y="146.5488">GET /usuarios</text></g><!--entity POST /usuarios--><g class="entity" data-entity="POST .usuarios" data-source-line="10" data-uid="ent0004" id="entity_POST .usuarios"><rect fill="#F1F1F1" height="62.0508" rx="2.8125" ry="2.8125" style="stroke:#181818;stroke-width:0.5625;" width="203.8074" x="242.4375" y="100.6919"/><rect fill="#F1F1F1" height="11.25" style="stroke:#181818;stroke-width:0.5625;" width="16.875" x="423.7449" y="106.3169"/><rect fill="#F1F1F1" height="2.25" style="stroke:#181818;stroke-width:0.5625;" width="4.5" x="421.4949" y="108.5669"/><rect fill="#F1F1F1" height="2.25" style="stroke:#181818;stroke-width:0.5625;" width="4.5" x="421.4949" y="113.0669"/><text fill="#000000" font-family="sans-serif" font-size="22.5" lengthAdjust="spacing" textLength="158.8074" x="259.3125" y="146.5488">POST /usuarios</text></g><!--entity GET /usuarios/{id}--><g class="entity" data-entity="GET .usuarios..id." data-source-line="11" data-uid="ent0005" id="entity_GET .usuarios..id."><rect fill="#F1F1F1" height="62.0508" rx="2.8125" ry="2.8125" style="stroke:#181818;stroke-width:0.5625;" width="227.5928" x="24.75" y="196.3169"/><rect fill="#F1F1F1" height="11.25" style="stroke:#181818;stroke-width:0.5625;" width="16.875" x="229.8428" y="201.9419"/><rect fill="#F1F1F1" height="2.25" style="stroke:#181818;stroke-width:0.5625;" width="4.5" x="227.5928" y="204.1919"/><rect fill="#F1F1F1" height="2.25" style="stroke:#181818;stroke-width:0.5625;" width="4.5" x="227.5928" y="208.6919"/><text fill="#000000" font-family="sans-serif" font-size="22.5" lengthAdjust="spacing" textLength="182.5928" x="41.625" y="242.1738">GET /usuarios/{id}</text></g><!--entity PUT /usuarios/{id}--><g class="entity" data-entity="PUT .usuarios..id." data-source-line="12" data-uid="ent0006" id="entity_PUT .usuarios..id."><rect fill="#F1F1F1" height="62.0508" rx="2.8125" ry="2.8125" style="stroke:#181818;stroke-width:0.5625;" width="226.3403" x="280.6875" y="196.3169"/><rect fill="#F1F1F1" height="11.25" style="stroke:#181818;stroke-width:0.5625;" width="16.875" x="484.5278" y="201.9419"/><rect fill="#F1F1F1" height="2.25" style="stroke:#181818;stroke-width:0.5625;" width="4.5" x="482.2778" y="204.1919"/><rect fill="#F1F1F1" height="2.25" style="stroke:#181818;stroke-width:0.5625;" width="4.5" x="482.2778" y="208.6919"/><text fill="#000000" font-family="sans-serif" font-size="22.5" lengthAdjust="spacing" textLength="181.3403" x="297.5625" y="242.1738">PUT /usuarios/{id}</text></g><!--entity DELETE /usuarios/{id}--><g class="entity" data-entity="DELETE .usuarios..id." data-source-line="13" data-uid="ent0007" id="entity_DELETE .usuarios..id."><rect fill="#F1F1F1" height="62.0508" rx="2.8125" ry="2.8125" style="stroke:#181818;stroke-width:0.5625;" width="268.8684" x="474.1875" y="100.6919"/><rect fill="#F1F1F1" height="11.25" style="stroke:#181818;stroke-width:0.5625;" width="16.875" x="720.5559" y="106.3169"/><rect fill="#F1F1F1" height="2.25" style="stroke:#181818;stroke-width:0.5625;" width="4.5" x="718.3059" y="108.5669"/><rect fill="#F1F1F1" height="2.25" style="stroke:#181818;stroke-width:0.5625;" width="4.5" x="718.3059" y="113.0669"/><text fill="#000000" font-family="sans-serif" font-size="22.5" lengthAdjust="spacing" textLength="223.8684" x="491.0625" y="146.5488">DELETE /usuarios/{id}</text></g><g class="entity" data-entity="GMN8" data-source-line="17" data-uid="ent0009" id="entity_GMN8"><path d="M779.625,111.9419 L779.625,127.1294 L743.13,131.6294 L779.625,136.1294 L779.625,151.4927 A0,0 0 0 0 779.625,151.4927 L1179.7515,151.4927 A0,0 0 0 0 1179.7515,151.4927 L1179.7515,123.1919 L1168.5015,111.9419 L779.625,111.9419 A0,0 0 0 0 779.625,111.9419" fill="#FAFAFA" style="stroke:#181818;stroke-width:0.5625;"/><path d="M1168.5015,111.9419 L1168.5015,123.1919 L1179.7515,123.1919 L1168.5015,111.9419" fill="#FAFAFA" style="stroke:#181818;stroke-width:0.5625;"/></g></g></svg>

