<svg xmlns="http://www.w3.org/2000/svg" xmlns:xlink="http://www.w3.org/1999/xlink" contentStyleType="text/css" data-diagram-type="DESCRIPTION" height="666px" preserveAspectRatio="none" style="width:2665px;height:666px;background:#FFFFFF;" version="1.1" viewBox="0 0 3065 666" width="3065.625px" zoomAndPan="magnify"><title>Endpoints - Recetas</title><defs/><g><g class="title" data-source-line="1"><text fill="#000000" font-family="sans-serif" font-size="15.75" font-weight="bold" lengthAdjust="spacing" textLength="151.4015" x="1449.6125" y="27.5999">Endpoints - Recetas</text></g><!--cluster Recetas--><g class="cluster" data-entity="Recetas" data-source-line="8" data-uid="ent0002" id="cluster_Recetas"><path d="M9.5625,51.1919 L96.9961,51.1919 A4.2188,4.2188 0 0 1 99.8086,54.0044 L107.6836,86.2427 L2637.5625,86.2427 A2.8125,2.8125 0 0 1 2640.375,89.0552 L2640.375,655.8794 A2.8125,2.8125 0 0 1 2637.5625,658.6919 L9.5625,658.6919 A2.8125,2.8125 0 0 1 6.75,655.8794 L6.75,54.0044 A2.8125,2.8125 0 0 1 9.5625,51.1919" fill="none" style="stroke:#000000;stroke-width:1.6875;"/><line style="stroke:#000000;stroke-width:1.6875;" x1="6.75" x2="107.6836" y1="86.2427" y2="86.2427"/><text fill="#000000" font-family="sans-serif" font-size="22.5" font-weight="bold" lengthAdjust="spacing" textLength="86.3086" x="11.25" y="76.7988">Recetas</text></g><!--entity GET /recetas--><g class="entity" data-entity="GET .recetas" data-source-line="9" data-uid="ent0003" id="entity_GET .recetas"><rect fill="#F1F1F1" height="62.0508" rx="2.8125" ry="2.8125" style="stroke:#181818;stroke-width:0.5625;" width="177.5391" x="108" y="100.6919"/><rect fill="#F1F1F1" height="11.25" style="stroke:#181818;stroke-width:0.5625;" width="16.875" x="263.0391" y="106.3169"/><rect fill="#F1F1F1" height="2.25" style="stroke:#181818;stroke-width:0.5625;" width="4.5" x="260.7891" y="108.5669"/><rect fill="#F1F1F1" height="2.25" style="stroke:#181818;stroke-width:0.5625;" width="4.5" x="260.7891" y="113.0669"/><text fill="#000000" font-family="sans-serif" font-size="22.5" lengthAdjust="spacing" textLength="132.5391" x="124.875" y="146.5488">GET /recetas</text></g><!--entity POST /recetas--><g class="entity" data-entity="POST .recetas" data-source-line="10" data-uid="ent0004" id="entity_POST .recetas"><rect fill="#F1F1F1" height="62.0508" rx="2.8125" ry="2.8125" style="stroke:#181818;stroke-width:0.5625;" width="192.5464" x="314.4375" y="100.6919"/><rect fill="#F1F1F1" height="11.25" style="stroke:#181818;stroke-width:0.5625;" width="16.875" x="484.4839" y="106.3169"/><rect fill="#F1F1F1" height="2.25" style="stroke:#181818;stroke-width:0.5625;" width="4.5" x="482.2339" y="108.5669"/><rect fill="#F1F1F1" height="2.25" style="stroke:#181818;stroke-width:0.5625;" width="4.5" x="482.2339" y="113.0669"/><text fill="#000000" font-family="sans-serif" font-size="22.5" lengthAdjust="spacing" textLength="147.5464" x="331.3125" y="146.5488">POST /recetas</text></g><!--entity GET /recetas/{id}--><g class="entity" data-entity="GET .recetas..id." data-source-line="11" data-uid="ent0005" id="entity_GET .recetas..id."><rect fill="#F1F1F1" height="62.0508" rx="2.8125" ry="2.8125" style="stroke:#181818;stroke-width:0.5625;" width="216.3318" x="535.5" y="100.6919"/><rect fill="#F1F1F1" height="11.25" style="stroke:#181818;stroke-width:0.5625;" width="16.875" x="729.3318" y="106.3169"/><rect fill="#F1F1F1" height="2.25" style="stroke:#181818;stroke-width:0.5625;" width="4.5" x="727.0818" y="108.5669"/><rect fill="#F1F1F1" height="2.25" style="stroke:#181818;stroke-width:0.5625;" width="4.5" x="727.0818" y="113.0669"/><text fill="#000000" font-family="sans-serif" font-size="22.5" lengthAdjust="spacing" textLength="171.3318" x="552.375" y="146.5488">GET /recetas/{id}</text></g><!--entity PUT /recetas/{id}--><g class="entity" data-entity="PUT .recetas..id." data-source-line="12" data-uid="ent0006" id="entity_PUT .recetas..id."><rect fill="#F1F1F1" height="62.0508" rx="2.8125" ry="2.8125" style="stroke:#181818;stroke-width:0.5625;" width="215.0793" x="780.1875" y="100.6919"/><rect fill="#F1F1F1" height="11.25" style="stroke:#181818;stroke-width:0.5625;" width="16.875" x="972.7668" y="106.3169"/><rect fill="#F1F1F1" height="2.25" style="stroke:#181818;stroke-width:0.5625;" width="4.5" x="970.5168" y="108.5669"/><rect fill="#F1F1F1" height="2.25" style="stroke:#181818;stroke-width:0.5625;" width="4.5" x="970.5168" y="113.0669"/><text fill="#000000" font-family="sans-serif" font-size="22.5" lengthAdjust="spacing" textLength="170.0793" x="797.0625" y="146.5488">PUT /recetas/{id}</text></g><!--entity DELETE /recetas/{id}--><g class="entity" data-entity="DELETE .recetas..id." data-source-line="13" data-uid="ent0007" id="entity_DELETE .recetas..id."><rect fill="#F1F1F1" height="62.0508" rx="2.8125" ry="2.8125" style="stroke:#181818;stroke-width:0.5625;" width="257.6074" x="1023.1875" y="100.6919"/><rect fill="#F1F1F1" height="11.25" style="stroke:#181818;stroke-width:0.5625;" width="16.875" x="1258.2949" y="106.3169"/><rect fill="#F1F1F1" height="2.25" style="stroke:#181818;stroke-width:0.5625;" width="4.5" x="1256.0449" y="108.5669"/><rect fill="#F1F1F1" height="2.25" style="stroke:#181818;stroke-width:0.5625;" width="4.5" x="1256.0449" y="113.0669"/><text fill="#000000" font-family="sans-serif" font-size="22.5" lengthAdjust="spacing" textLength="212.6074" x="1040.0625" y="146.5488">DELETE /recetas/{id}</text></g><!--entity GET /recetas/usuario/{usuarioId}--><g class="entity" data-entity="GET .recetas.usuario..usuarioId." data-source-line="15" data-uid="ent0008" id="entity_GET .recetas.usuario..usuarioId."><rect fill="#F1F1F1" height="62.0508" rx="2.8125" ry="2.8125" style="stroke:#181818;stroke-width:0.5625;" width="371.4258" x="1309.5" y="100.6919"/><rect fill="#F1F1F1" height="11.25" style="stroke:#181818;stroke-width:0.5625;" width="16.875" x="1658.4258" y="106.3169"/><rect fill="#F1F1F1" height="2.25" style="stroke:#181818;stroke-width:0.5625;" width="4.5" x="1656.1758" y="108.5669"/><rect fill="#F1F1F1" height="2.25" style="stroke:#181818;stroke-width:0.5625;" width="4.5" x="1656.1758" y="113.0669"/><text fill="#000000" font-family="sans-serif" font-size="22.5" lengthAdjust="spacing" textLength="326.4258" x="1326.375" y="146.5488">GET /recetas/usuario/{usuarioId}</text></g><!--entity GET /recetas/trending--><g class="entity" data-entity="GET .recetas.trending" data-source-line="16" data-uid="ent0009" id="entity_GET .recetas.trending"><rect fill="#F1F1F1" height="62.0508" rx="2.8125" ry="2.8125" style="stroke:#181818;stroke-width:0.5625;" width="265.1001" x="64.125" y="196.3169"/><rect fill="#F1F1F1" height="11.25" style="stroke:#181818;stroke-width:0.5625;" width="16.875" x="306.7251" y="201.9419"/><rect fill="#F1F1F1" height="2.25" style="stroke:#181818;stroke-width:0.5625;" width="4.5" x="304.4751" y="204.1919"/><rect fill="#F1F1F1" height="2.25" style="stroke:#181818;stroke-width:0.5625;" width="4.5" x="304.4751" y="208.6919"/><text fill="#000000" font-family="sans-serif" font-size="22.5" lengthAdjust="spacing" textLength="220.1001" x="81" y="242.1738">GET /recetas/trending</text></g><!--entity GET /recetas/pais/{idPais}--><g class="entity" data-entity="GET .recetas.pais..idPais." data-source-line="17" data-uid="ent0010" id="entity_GET .recetas.pais..idPais."><rect fill="#F1F1F1" height="62.0508" rx="2.8125" ry="2.8125" style="stroke:#181818;stroke-width:0.5625;" width="307.6282" x="358.3125" y="196.3169"/><rect fill="#F1F1F1" height="11.25" style="stroke:#181818;stroke-width:0.5625;" width="16.875" x="643.4407" y="201.9419"/><rect fill="#F1F1F1" height="2.25" style="stroke:#181818;stroke-width:0.5625;" width="4.5" x="641.1907" y="204.1919"/><rect fill="#F1F1F1" height="2.25" style="stroke:#181818;stroke-width:0.5625;" width="4.5" x="641.1907" y="208.6919"/><text fill="#000000" font-family="sans-serif" font-size="22.5" lengthAdjust="spacing" textLength="262.6282" x="375.1875" y="242.1738">GET /recetas/pais/{idPais}</text></g><!--entity GET /recetas/nombre/{nombre}--><g class="entity" data-entity="GET .recetas.nombre..nombre." data-source-line="18" data-uid="ent0011" id="entity_GET .recetas.nombre..nombre."><rect fill="#F1F1F1" height="62.0508" rx="2.8125" ry="2.8125" style="stroke:#181818;stroke-width:0.5625;" width="357.6489" x="694.125" y="196.3169"/><rect fill="#F1F1F1" height="11.25" style="stroke:#181818;stroke-width:0.5625;" width="16.875" x="1029.2739" y="201.9419"/><rect fill="#F1F1F1" height="2.25" style="stroke:#181818;stroke-width:0.5625;" width="4.5" x="1027.0239" y="204.1919"/><rect fill="#F1F1F1" height="2.25" style="stroke:#181818;stroke-width:0.5625;" width="4.5" x="1027.0239" y="208.6919"/><text fill="#000000" font-family="sans-serif" font-size="22.5" lengthAdjust="spacing" textLength="312.6489" x="711" y="242.1738">GET /recetas/nombre/{nombre}</text></g><!--entity GET /recetas/del-dia--><g class="entity" data-entity="GET .recetas.del-dia" data-source-line="19" data-uid="ent0012" id="entity_GET .recetas.del-dia"><rect fill="#F1F1F1" height="62.0508" rx="2.8125" ry="2.8125" style="stroke:#181818;stroke-width:0.5625;" width="251.3342" x="1080.5625" y="196.3169"/><rect fill="#F1F1F1" height="11.25" style="stroke:#181818;stroke-width:0.5625;" width="16.875" x="1309.3967" y="201.9419"/><rect fill="#F1F1F1" height="2.25" style="stroke:#181818;stroke-width:0.5625;" width="4.5" x="1307.1467" y="204.1919"/><rect fill="#F1F1F1" height="2.25" style="stroke:#181818;stroke-width:0.5625;" width="4.5" x="1307.1467" y="208.6919"/><text fill="#000000" font-family="sans-serif" font-size="22.5" lengthAdjust="spacing" textLength="206.3342" x="1097.4375" y="242.1738">GET /recetas/del-dia</text></g><!--entity GET /recetas/carrusel--><g class="entity" data-entity="GET .recetas.carrusel" data-source-line="20" data-uid="ent0013" id="entity_GET .recetas.carrusel"><rect fill="#F1F1F1" height="62.0508" rx="2.8125" ry="2.8125" style="stroke:#181818;stroke-width:0.5625;" width="263.8147" x="1359.5625" y="196.3169"/><rect fill="#F1F1F1" height="11.25" style="stroke:#181818;stroke-width:0.5625;" width="16.875" x="1600.8772" y="201.9419"/><rect fill="#F1F1F1" height="2.25" style="stroke:#181818;stroke-width:0.5625;" width="4.5" x="1598.6272" y="204.1919"/><rect fill="#F1F1F1" height="2.25" style="stroke:#181818;stroke-width:0.5625;" width="4.5" x="1598.6272" y="208.6919"/><text fill="#000000" font-family="sans-serif" font-size="22.5" lengthAdjust="spacing" textLength="218.8147" x="1376.4375" y="242.1738">GET /recetas/carrusel</text></g><!--entity GET /recetas/megusta--><g class="entity" data-entity="GET .recetas.megusta" data-source-line="22" data-uid="ent0014" id="entity_GET .recetas.megusta"><rect fill="#F1F1F1" height="62.0508" rx="2.8125" ry="2.8125" style="stroke:#181818;stroke-width:0.5625;" width="270.0879" x="1652.625" y="196.3169"/><rect fill="#F1F1F1" height="11.25" style="stroke:#181818;stroke-width:0.5625;" width="16.875" x="1900.2129" y="201.9419"/><rect fill="#F1F1F1" height="2.25" style="stroke:#181818;stroke-width:0.5625;" width="4.5" x="1897.9629" y="204.1919"/><rect fill="#F1F1F1" height="2.25" style="stroke:#181818;stroke-width:0.5625;" width="4.5" x="1897.9629" y="208.6919"/><text fill="#000000" font-family="sans-serif" font-size="22.5" lengthAdjust="spacing" textLength="225.0879" x="1669.5" y="242.1738">GET /recetas/megusta</text></g><!--entity POST /recetas/megusta--><g class="entity" data-entity="POST .recetas.megusta" data-source-line="23" data-uid="ent0015" id="entity_POST .recetas.megusta"><rect fill="#F1F1F1" height="62.0508" rx="2.8125" ry="2.8125" style="stroke:#181818;stroke-width:0.5625;" width="285.0952" x="54.5625" y="291.9419"/><rect fill="#F1F1F1" height="11.25" style="stroke:#181818;stroke-width:0.5625;" width="16.875" x="317.1577" y="297.5669"/><rect fill="#F1F1F1" height="2.25" style="stroke:#181818;stroke-width:0.5625;" width="4.5" x="314.9077" y="299.8169"/><rect fill="#F1F1F1" height="2.25" style="stroke:#181818;stroke-width:0.5625;" width="4.5" x="314.9077" y="304.3169"/><text fill="#000000" font-family="sans-serif" font-size="22.5" lengthAdjust="spacing" textLength="240.0952" x="71.4375" y="337.7988">POST /recetas/megusta</text></g><!--entity DELETE /recetas/megusta--><g class="entity" data-entity="DELETE .recetas.megusta" data-source-line="24" data-uid="ent0016" id="entity_DELETE .recetas.megusta"><rect fill="#F1F1F1" height="62.0508" rx="2.8125" ry="2.8125" style="stroke:#181818;stroke-width:0.5625;" width="311.3635" x="367.3125" y="291.9419"/><rect fill="#F1F1F1" height="11.25" style="stroke:#181818;stroke-width:0.5625;" width="16.875" x="656.176" y="297.5669"/><rect fill="#F1F1F1" height="2.25" style="stroke:#181818;stroke-width:0.5625;" width="4.5" x="653.926" y="299.8169"/><rect fill="#F1F1F1" height="2.25" style="stroke:#181818;stroke-width:0.5625;" width="4.5" x="653.926" y="304.3169"/><text fill="#000000" font-family="sans-serif" font-size="22.5" lengthAdjust="spacing" textLength="266.3635" x="384.1875" y="337.7988">DELETE /recetas/megusta</text></g><!--entity PUT /recetas/megusta/{id}--><g class="entity" data-entity="PUT .recetas.megusta..id." data-source-line="25" data-uid="ent0017" id="entity_PUT .recetas.megusta..id."><rect fill="#F1F1F1" height="62.0508" rx="2.8125" ry="2.8125" style="stroke:#181818;stroke-width:0.5625;" width="307.6282" x="707.0625" y="291.9419"/><rect fill="#F1F1F1" height="11.25" style="stroke:#181818;stroke-width:0.5625;" width="16.875" x="992.1907" y="297.5669"/><rect fill="#F1F1F1" height="2.25" style="stroke:#181818;stroke-width:0.5625;" width="4.5" x="989.9407" y="299.8169"/><rect fill="#F1F1F1" height="2.25" style="stroke:#181818;stroke-width:0.5625;" width="4.5" x="989.9407" y="304.3169"/><text fill="#000000" font-family="sans-serif" font-size="22.5" lengthAdjust="spacing" textLength="262.6282" x="723.9375" y="337.7988">PUT /recetas/megusta/{id}</text></g><!--entity GET /recetas/favoritos--><g class="entity" data-entity="GET .recetas.favoritos" data-source-line="27" data-uid="ent0018" id="entity_GET .recetas.favoritos"><rect fill="#F1F1F1" height="62.0508" rx="2.8125" ry="2.8125" style="stroke:#181818;stroke-width:0.5625;" width="268.8245" x="1042.3125" y="291.9419"/><rect fill="#F1F1F1" height="11.25" style="stroke:#181818;stroke-width:0.5625;" width="16.875" x="1288.637" y="297.5669"/><rect fill="#F1F1F1" height="2.25" style="stroke:#181818;stroke-width:0.5625;" width="4.5" x="1286.387" y="299.8169"/><rect fill="#F1F1F1" height="2.25" style="stroke:#181818;stroke-width:0.5625;" width="4.5" x="1286.387" y="304.3169"/><text fill="#000000" font-family="sans-serif" font-size="22.5" lengthAdjust="spacing" textLength="223.8245" x="1059.1875" y="337.7988">GET /recetas/favoritos</text></g><!--entity POST /recetas/favoritos--><g class="entity" data-entity="POST .recetas.favoritos" data-source-line="28" data-uid="ent0019" id="entity_POST .recetas.favoritos"><rect fill="#F1F1F1" height="62.0508" rx="2.8125" ry="2.8125" style="stroke:#181818;stroke-width:0.5625;" width="283.8318" x="1339.875" y="291.9419"/><rect fill="#F1F1F1" height="11.25" style="stroke:#181818;stroke-width:0.5625;" width="16.875" x="1601.2068" y="297.5669"/><rect fill="#F1F1F1" height="2.25" style="stroke:#181818;stroke-width:0.5625;" width="4.5" x="1598.9568" y="299.8169"/><rect fill="#F1F1F1" height="2.25" style="stroke:#181818;stroke-width:0.5625;" width="4.5" x="1598.9568" y="304.3169"/><text fill="#000000" font-family="sans-serif" font-size="22.5" lengthAdjust="spacing" textLength="238.8318" x="1356.75" y="337.7988">POST /recetas/favoritos</text></g><!--entity DELETE /recetas/favoritos--><g class="entity" data-entity="DELETE .recetas.favoritos" data-source-line="29" data-uid="ent0020" id="entity_DELETE .recetas.favoritos"><rect fill="#F1F1F1" height="62.0508" rx="2.8125" ry="2.8125" style="stroke:#181818;stroke-width:0.5625;" width="310.1001" x="1651.5" y="291.9419"/><rect fill="#F1F1F1" height="11.25" style="stroke:#181818;stroke-width:0.5625;" width="16.875" x="1939.1001" y="297.5669"/><rect fill="#F1F1F1" height="2.25" style="stroke:#181818;stroke-width:0.5625;" width="4.5" x="1936.8501" y="299.8169"/><rect fill="#F1F1F1" height="2.25" style="stroke:#181818;stroke-width:0.5625;" width="4.5" x="1936.8501" y="304.3169"/><text fill="#000000" font-family="sans-serif" font-size="22.5" lengthAdjust="spacing" textLength="265.1001" x="1668.375" y="337.7988">DELETE /recetas/favoritos</text></g><!--entity PUT /recetas/favoritos/{id}--><g class="entity" data-entity="PUT .recetas.favoritos..id." data-source-line="30" data-uid="ent0021" id="entity_PUT .recetas.favoritos..id."><rect fill="#F1F1F1" height="62.0508" rx="2.8125" ry="2.8125" style="stroke:#181818;stroke-width:0.5625;" width="306.3647" x="43.875" y="387.5669"/><rect fill="#F1F1F1" height="11.25" style="stroke:#181818;stroke-width:0.5625;" width="16.875" x="327.7397" y="393.1919"/><rect fill="#F1F1F1" height="2.25" style="stroke:#181818;stroke-width:0.5625;" width="4.5" x="325.4897" y="395.4419"/><rect fill="#F1F1F1" height="2.25" style="stroke:#181818;stroke-width:0.5625;" width="4.5" x="325.4897" y="399.9419"/><text fill="#000000" font-family="sans-serif" font-size="22.5" lengthAdjust="spacing" textLength="261.3647" x="60.75" y="433.4238">PUT /recetas/favoritos/{id}</text></g><!--entity GET /recetas/estrellas--><g class="entity" data-entity="GET .recetas.estrellas" data-source-line="32" data-uid="ent0022" id="entity_GET .recetas.estrellas"><rect fill="#F1F1F1" height="62.0508" rx="2.8125" ry="2.8125" style="stroke:#181818;stroke-width:0.5625;" width="267.572" x="378" y="387.5669"/><rect fill="#F1F1F1" height="11.25" style="stroke:#181818;stroke-width:0.5625;" width="16.875" x="623.072" y="393.1919"/><rect fill="#F1F1F1" height="2.25" style="stroke:#181818;stroke-width:0.5625;" width="4.5" x="620.822" y="395.4419"/><rect fill="#F1F1F1" height="2.25" style="stroke:#181818;stroke-width:0.5625;" width="4.5" x="620.822" y="399.9419"/><text fill="#000000" font-family="sans-serif" font-size="22.5" lengthAdjust="spacing" textLength="222.572" x="394.875" y="433.4238">GET /recetas/estrellas</text></g><!--entity POST /recetas/estrellas--><g class="entity" data-entity="POST .recetas.estrellas" data-source-line="33" data-uid="ent0023" id="entity_POST .recetas.estrellas"><rect fill="#F1F1F1" height="62.0508" rx="2.8125" ry="2.8125" style="stroke:#181818;stroke-width:0.5625;" width="282.5793" x="674.4375" y="387.5669"/><rect fill="#F1F1F1" height="11.25" style="stroke:#181818;stroke-width:0.5625;" width="16.875" x="934.5168" y="393.1919"/><rect fill="#F1F1F1" height="2.25" style="stroke:#181818;stroke-width:0.5625;" width="4.5" x="932.2668" y="395.4419"/><rect fill="#F1F1F1" height="2.25" style="stroke:#181818;stroke-width:0.5625;" width="4.5" x="932.2668" y="399.9419"/><text fill="#000000" font-family="sans-serif" font-size="22.5" lengthAdjust="spacing" textLength="237.5793" x="691.3125" y="433.4238">POST /recetas/estrellas</text></g><!--entity PUT /recetas/estrellas/{id}--><g class="entity" data-entity="PUT .recetas.estrellas..id." data-source-line="34" data-uid="ent0024" id="entity_PUT .recetas.estrellas..id."><rect fill="#F1F1F1" height="62.0508" rx="2.8125" ry="2.8125" style="stroke:#181818;stroke-width:0.5625;" width="305.1123" x="984.9375" y="387.5669"/><rect fill="#F1F1F1" height="11.25" style="stroke:#181818;stroke-width:0.5625;" width="16.875" x="1267.5498" y="393.1919"/><rect fill="#F1F1F1" height="2.25" style="stroke:#181818;stroke-width:0.5625;" width="4.5" x="1265.2998" y="395.4419"/><rect fill="#F1F1F1" height="2.25" style="stroke:#181818;stroke-width:0.5625;" width="4.5" x="1265.2998" y="399.9419"/><text fill="#000000" font-family="sans-serif" font-size="22.5" lengthAdjust="spacing" textLength="260.1123" x="1001.8125" y="433.4238">PUT /recetas/estrellas/{id}</text></g><!--entity DELETE /recetas/estrellas/{id}--><g class="entity" data-entity="DELETE .recetas.estrellas..id." data-source-line="35" data-uid="ent0025" id="entity_DELETE .recetas.estrellas..id."><rect fill="#F1F1F1" height="62.0508" rx="2.8125" ry="2.8125" style="stroke:#181818;stroke-width:0.5625;" width="347.6404" x="1317.9375" y="387.5669"/><rect fill="#F1F1F1" height="11.25" style="stroke:#181818;stroke-width:0.5625;" width="16.875" x="1643.0779" y="393.1919"/><rect fill="#F1F1F1" height="2.25" style="stroke:#181818;stroke-width:0.5625;" width="4.5" x="1640.8279" y="395.4419"/><rect fill="#F1F1F1" height="2.25" style="stroke:#181818;stroke-width:0.5625;" width="4.5" x="1640.8279" y="399.9419"/><text fill="#000000" font-family="sans-serif" font-size="22.5" lengthAdjust="spacing" textLength="302.6404" x="1334.8125" y="433.4238">DELETE /recetas/estrellas/{id}</text></g><!--entity GET /recetas/{id}/ingredientes--><g class="entity" data-entity="GET .recetas..id..ingredientes" data-source-line="37" data-uid="ent0026" id="entity_GET .recetas..id..ingredientes"><rect fill="#F1F1F1" height="62.0508" rx="2.8125" ry="2.8125" style="stroke:#181818;stroke-width:0.5625;" width="345.1685" x="1693.6875" y="387.5669"/><rect fill="#F1F1F1" height="11.25" style="stroke:#181818;stroke-width:0.5625;" width="16.875" x="2016.356" y="393.1919"/><rect fill="#F1F1F1" height="2.25" style="stroke:#181818;stroke-width:0.5625;" width="4.5" x="2014.106" y="395.4419"/><rect fill="#F1F1F1" height="2.25" style="stroke:#181818;stroke-width:0.5625;" width="4.5" x="2014.106" y="399.9419"/><text fill="#000000" font-family="sans-serif" font-size="22.5" lengthAdjust="spacing" textLength="300.1685" x="1710.5625" y="433.4238">GET /recetas/{id}/ingredientes</text></g><!--entity PUT /recetas/{id}/ingredientes--><g class="entity" data-entity="PUT .recetas..id..ingredientes" data-source-line="38" data-uid="ent0027" id="entity_PUT .recetas..id..ingredientes"><rect fill="#F1F1F1" height="62.0508" rx="2.8125" ry="2.8125" style="stroke:#181818;stroke-width:0.5625;" width="343.916" x="24.75" y="483.1919"/><rect fill="#F1F1F1" height="11.25" style="stroke:#181818;stroke-width:0.5625;" width="16.875" x="346.166" y="488.8169"/><rect fill="#F1F1F1" height="2.25" style="stroke:#181818;stroke-width:0.5625;" width="4.5" x="343.916" y="491.0669"/><rect fill="#F1F1F1" height="2.25" style="stroke:#181818;stroke-width:0.5625;" width="4.5" x="343.916" y="495.5669"/><text fill="#000000" font-family="sans-serif" font-size="22.5" lengthAdjust="spacing" textLength="298.916" x="41.625" y="529.0488">PUT /recetas/{id}/ingredientes</text></g><!--entity POST /recetas/{id}/ingredientes--><g class="entity" data-entity="POST .recetas..id..ingredientes" data-source-line="39" data-uid="ent0028" id="entity_POST .recetas..id..ingredientes"><rect fill="#F1F1F1" height="62.0508" rx="2.8125" ry="2.8125" style="stroke:#181818;stroke-width:0.5625;" width="360.1758" x="397.125" y="483.1919"/><rect fill="#F1F1F1" height="11.25" style="stroke:#181818;stroke-width:0.5625;" width="16.875" x="734.8008" y="488.8169"/><rect fill="#F1F1F1" height="2.25" style="stroke:#181818;stroke-width:0.5625;" width="4.5" x="732.5508" y="491.0669"/><rect fill="#F1F1F1" height="2.25" style="stroke:#181818;stroke-width:0.5625;" width="4.5" x="732.5508" y="495.5669"/><text fill="#000000" font-family="sans-serif" font-size="22.5" lengthAdjust="spacing" textLength="315.1758" x="414" y="529.0488">POST /recetas/{id}/ingredientes</text></g><!--entity DELETE /recetas/{idReceta}/ingredientes/{idIngrediente}--><g class="entity" data-entity="DELETE .recetas..idReceta..ingredientes..idIngrediente." data-source-line="40" data-uid="ent0029" id="entity_DELETE .recetas..idReceta..ingredientes..idIngrediente."><rect fill="#F1F1F1" height="62.0508" rx="2.8125" ry="2.8125" style="stroke:#181818;stroke-width:0.5625;" width="609.115" x="785.8125" y="483.1919"/><rect fill="#F1F1F1" height="11.25" style="stroke:#181818;stroke-width:0.5625;" width="16.875" x="1372.4275" y="488.8169"/><rect fill="#F1F1F1" height="2.25" style="stroke:#181818;stroke-width:0.5625;" width="4.5" x="1370.1775" y="491.0669"/><rect fill="#F1F1F1" height="2.25" style="stroke:#181818;stroke-width:0.5625;" width="4.5" x="1370.1775" y="495.5669"/><text fill="#000000" font-family="sans-serif" font-size="22.5" lengthAdjust="spacing" textLength="564.115" x="802.6875" y="529.0488">DELETE /recetas/{idReceta}/ingredientes/{idIngrediente}</text></g><!--entity GET /recetas/comentarios--><g class="entity" data-entity="GET .recetas.comentarios" data-source-line="42" data-uid="ent0030" id="entity_GET .recetas.comentarios"><rect fill="#F1F1F1" height="62.0508" rx="2.8125" ry="2.8125" style="stroke:#181818;stroke-width:0.5625;" width="306.3428" x="1423.125" y="483.1919"/><rect fill="#F1F1F1" height="11.25" style="stroke:#181818;stroke-width:0.5625;" width="16.875" x="1706.9678" y="488.8169"/><rect fill="#F1F1F1" height="2.25" style="stroke:#181818;stroke-width:0.5625;" width="4.5" x="1704.7178" y="491.0669"/><rect fill="#F1F1F1" height="2.25" style="stroke:#181818;stroke-width:0.5625;" width="4.5" x="1704.7178" y="495.5669"/><text fill="#000000" font-family="sans-serif" font-size="22.5" lengthAdjust="spacing" textLength="261.3428" x="1440" y="529.0488">GET /recetas/comentarios</text></g><!--entity POST /recetas/comentarios--><g class="entity" data-entity="POST .recetas.comentarios" data-source-line="43" data-uid="ent0031" id="entity_POST .recetas.comentarios"><rect fill="#F1F1F1" height="62.0508" rx="2.8125" ry="2.8125" style="stroke:#181818;stroke-width:0.5625;" width="321.3501" x="1757.25" y="483.1919"/><rect fill="#F1F1F1" height="11.25" style="stroke:#181818;stroke-width:0.5625;" width="16.875" x="2056.1001" y="488.8169"/><rect fill="#F1F1F1" height="2.25" style="stroke:#181818;stroke-width:0.5625;" width="4.5" x="2053.8501" y="491.0669"/><rect fill="#F1F1F1" height="2.25" style="stroke:#181818;stroke-width:0.5625;" width="4.5" x="2053.8501" y="495.5669"/><text fill="#000000" font-family="sans-serif" font-size="22.5" lengthAdjust="spacing" textLength="276.3501" x="1774.125" y="529.0488">POST /recetas/comentarios</text></g><!--entity GET /recetas/comentarios/receta/{id}--><g class="entity" data-entity="GET .recetas.comentarios.receta..id." data-source-line="44" data-uid="ent0032" id="entity_GET .recetas.comentarios.receta..id."><rect fill="#F1F1F1" height="62.0508" rx="2.8125" ry="2.8125" style="stroke:#181818;stroke-width:0.5625;" width="413.9209" x="2107.125" y="483.1919"/><rect fill="#F1F1F1" height="11.25" style="stroke:#181818;stroke-width:0.5625;" width="16.875" x="2498.5459" y="488.8169"/><rect fill="#F1F1F1" height="2.25" style="stroke:#181818;stroke-width:0.5625;" width="4.5" x="2496.2959" y="491.0669"/><rect fill="#F1F1F1" height="2.25" style="stroke:#181818;stroke-width:0.5625;" width="4.5" x="2496.2959" y="495.5669"/><text fill="#000000" font-family="sans-serif" font-size="22.5" lengthAdjust="spacing" textLength="368.9209" x="2124" y="529.0488">GET /recetas/comentarios/receta/{id}</text></g><!--entity PUT /recetas/comentarios/{id}--><g class="entity" data-entity="PUT .recetas.comentarios..id." data-source-line="45" data-uid="ent0033" id="entity_PUT .recetas.comentarios..id."><rect fill="#F1F1F1" height="62.0508" rx="2.8125" ry="2.8125" style="stroke:#181818;stroke-width:0.5625;" width="343.8831" x="24.75" y="578.8169"/><rect fill="#F1F1F1" height="11.25" style="stroke:#181818;stroke-width:0.5625;" width="16.875" x="346.1331" y="584.4419"/><rect fill="#F1F1F1" height="2.25" style="stroke:#181818;stroke-width:0.5625;" width="4.5" x="343.8831" y="586.6919"/><rect fill="#F1F1F1" height="2.25" style="stroke:#181818;stroke-width:0.5625;" width="4.5" x="343.8831" y="591.1919"/><text fill="#000000" font-family="sans-serif" font-size="22.5" lengthAdjust="spacing" textLength="298.8831" x="41.625" y="624.6738">PUT /recetas/comentarios/{id}</text></g><!--entity DELETE /recetas/comentarios/{id}--><g class="entity" data-entity="DELETE .recetas.comentarios..id." data-source-line="46" data-uid="ent0034" id="entity_DELETE .recetas.comentarios..id."><rect fill="#F1F1F1" height="62.0508" rx="2.8125" ry="2.8125" style="stroke:#181818;stroke-width:0.5625;" width="386.4111" x="397.6875" y="578.8169"/><rect fill="#F1F1F1" height="11.25" style="stroke:#181818;stroke-width:0.5625;" width="16.875" x="761.5986" y="584.4419"/><rect fill="#F1F1F1" height="2.25" style="stroke:#181818;stroke-width:0.5625;" width="4.5" x="759.3486" y="586.6919"/><rect fill="#F1F1F1" height="2.25" style="stroke:#181818;stroke-width:0.5625;" width="4.5" x="759.3486" y="591.1919"/><text fill="#000000" font-family="sans-serif" font-size="22.5" lengthAdjust="spacing" textLength="341.4111" x="414.5625" y="624.6738">DELETE /recetas/comentarios/{id}</text></g><!--entity GET /recetas/categoria/{idCategoria}--><g class="entity" data-entity="GET .recetas.categoria..idCategoria." data-source-line="48" data-uid="ent0035" id="entity_GET .recetas.categoria..idCategoria."><rect fill="#F1F1F1" height="62.0508" rx="2.8125" ry="2.8125" style="stroke:#181818;stroke-width:0.5625;" width="412.7014" x="811.6875" y="578.8169"/><rect fill="#F1F1F1" height="11.25" style="stroke:#181818;stroke-width:0.5625;" width="16.875" x="1201.8889" y="584.4419"/><rect fill="#F1F1F1" height="2.25" style="stroke:#181818;stroke-width:0.5625;" width="4.5" x="1199.6389" y="586.6919"/><rect fill="#F1F1F1" height="2.25" style="stroke:#181818;stroke-width:0.5625;" width="4.5" x="1199.6389" y="591.1919"/><text fill="#000000" font-family="sans-serif" font-size="22.5" lengthAdjust="spacing" textLength="367.7014" x="828.5625" y="624.6738">GET /recetas/categoria/{idCategoria}</text></g><!--entity GET /recetas/megusta/count/{idReceta}--><g class="entity" data-entity="GET .recetas.megusta.count..idReceta." data-source-line="49" data-uid="ent0036" id="entity_GET .recetas.megusta.count..idReceta."><rect fill="#F1F1F1" height="62.0508" rx="2.8125" ry="2.8125" style="stroke:#181818;stroke-width:0.5625;" width="441.4636" x="1253.25" y="578.8169"/><rect fill="#F1F1F1" height="11.25" style="stroke:#181818;stroke-width:0.5625;" width="16.875" x="1672.2136" y="584.4419"/><rect fill="#F1F1F1" height="2.25" style="stroke:#181818;stroke-width:0.5625;" width="4.5" x="1669.9636" y="586.6919"/><rect fill="#F1F1F1" height="2.25" style="stroke:#181818;stroke-width:0.5625;" width="4.5" x="1669.9636" y="591.1919"/><text fill="#000000" font-family="sans-serif" font-size="22.5" lengthAdjust="spacing" textLength="396.4636" x="1270.125" y="624.6738">GET /recetas/megusta/count/{idReceta}</text></g><!--entity GET /recetas/favoritos/count/{idReceta}--><g class="entity" data-entity="GET .recetas.favoritos.count..idReceta." data-source-line="50" data-uid="ent0037" id="entity_GET .recetas.favoritos.count..idReceta."><rect fill="#F1F1F1" height="62.0508" rx="2.8125" ry="2.8125" style="stroke:#181818;stroke-width:0.5625;" width="440.2002" x="1722.9375" y="578.8169"/><rect fill="#F1F1F1" height="11.25" style="stroke:#181818;stroke-width:0.5625;" width="16.875" x="2140.6377" y="584.4419"/><rect fill="#F1F1F1" height="2.25" style="stroke:#181818;stroke-width:0.5625;" width="4.5" x="2138.3877" y="586.6919"/><rect fill="#F1F1F1" height="2.25" style="stroke:#181818;stroke-width:0.5625;" width="4.5" x="2138.3877" y="591.1919"/><text fill="#000000" font-family="sans-serif" font-size="22.5" lengthAdjust="spacing" textLength="395.2002" x="1739.8125" y="624.6738">GET /recetas/favoritos/count/{idReceta}</text></g><!--entity GET /recetas/estrellas/stats/{idReceta}--><g class="entity" data-entity="GET .recetas.estrellas.stats..idReceta." data-source-line="51" data-uid="ent0038" id="entity_GET .recetas.estrellas.stats..idReceta."><rect fill="#F1F1F1" height="62.0508" rx="2.8125" ry="2.8125" style="stroke:#181818;stroke-width:0.5625;" width="431.4221" x="2190.9375" y="578.8169"/><rect fill="#F1F1F1" height="11.25" style="stroke:#181818;stroke-width:0.5625;" width="16.875" x="2599.8596" y="584.4419"/><rect fill="#F1F1F1" height="2.25" style="stroke:#181818;stroke-width:0.5625;" width="4.5" x="2597.6096" y="586.6919"/><rect fill="#F1F1F1" height="2.25" style="stroke:#181818;stroke-width:0.5625;" width="4.5" x="2597.6096" y="591.1919"/><text fill="#000000" font-family="sans-serif" font-size="22.5" lengthAdjust="spacing" textLength="386.4221" x="2207.8125" y="624.6738">GET /recetas/estrellas/stats/{idReceta}</text></g><!--entity POST /recetas/donaciones--><g class="entity" data-entity="POST .recetas.donaciones" data-source-line="52" data-uid="ent0039" id="entity_POST .recetas.donaciones"><rect fill="#F1F1F1" height="62.0508" rx="2.8125" ry="2.8125" style="stroke:#181818;stroke-width:0.5625;" width="313.8904" x="2307.9375" y="100.6919"/><rect fill="#F1F1F1" height="11.25" style="stroke:#181818;stroke-width:0.5625;" width="16.875" x="2599.3279" y="106.3169"/><rect fill="#F1F1F1" height="2.25" style="stroke:#181818;stroke-width:0.5625;" width="4.5" x="2597.0779" y="108.5669"/><rect fill="#F1F1F1" height="2.25" style="stroke:#181818;stroke-width:0.5625;" width="4.5" x="2597.0779" y="113.0669"/><text fill="#000000" font-family="sans-serif" font-size="22.5" lengthAdjust="spacing" textLength="268.8904" x="2324.8125" y="146.5488">POST /recetas/donaciones</text></g><g class="entity" data-entity="GMN40" data-source-line="56" data-uid="ent0041" id="entity_GMN40"><path d="M2658.375,111.9419 L2658.375,127.1294 L2622.1388,131.6294 L2658.375,136.1294 L2658.375,151.4927 A0,0 0 0 0 2658.375,151.4927 L3058.5015,151.4927 A0,0 0 0 0 3058.5015,151.4927 L3058.5015,123.1919 L3047.2515,111.9419 L2658.375,111.9419 A0,0 0 0 0 2658.375,111.9419" fill="#FAFAFA" style="stroke:#181818;stroke-width:0.5625;"/><path d="M3047.2515,111.9419 L3047.2515,123.1919 L3058.5015,123.1919 L3047.2515,111.9419" fill="#FAFAFA" style="stroke:#181818;stroke-width:0.5625;"/></g></g></svg>

