<svg xmlns="http://www.w3.org/2000/svg" xmlns:xlink="http://www.w3.org/1999/xlink" contentStyleType="text/css" data-diagram-type="DESCRIPTION" height="155px" preserveAspectRatio="xMidYMid meet" style="width:596px;height:155px;background:#FFFFFF;" version="1.1" viewBox="0 0 796 207" width="596px" zoomAndPan="magnify"><title>Endpoints - Usuarios</title><defs/><g><g class="title" data-source-line="1"><text fill="#000000" font-family="sans-serif" font-size="12.6" font-weight="bold" lengthAdjust="spacing" textLength="126.7075" x="328.7017" y="22.0799">Endpoints - Usuarios</text></g><!--cluster Usuarios--><g class="cluster" data-entity="Usuarios" data-source-line="8" data-uid="ent0002" id="cluster_Usuarios"><path d="M7.65,40.1625 L70.1719,40.1625 A3.375,3.375 0 0 1 72.4219,42.4125 L78.7219,63.675 L513.45,63.675 A2.25,2.25 0 0 1 515.7,65.925 L515.7,199.0125 A2.25,2.25 0 0 1 513.45,201.2625 L7.65,201.2625 A2.25,2.25 0 0 1 5.4,199.0125 L5.4,42.4125 A2.25,2.25 0 0 1 7.65,40.1625" fill="none" style="stroke:#000000;stroke-width:1.35;"/><line style="stroke:#000000;stroke-width:1.35;" x1="5.4" x2="78.7219" y1="63.675" y2="63.675"/><text fill="#000000" font-family="sans-serif" font-size="14.4" font-weight="bold" lengthAdjust="spacing" textLength="61.6219" x="9" y="56.9109">Usuarios</text></g><!--entity GET /usuarios--><g class="entity" data-entity="GET .usuarios" data-source-line="9" data-uid="ent0003" id="entity_GET .usuarios"><rect fill="#F1F1F1" height="45.1125" rx="2.25" ry="2.25" style="stroke:#181818;stroke-width:0.45;" width="128.032" x="19.8" y="75.2625"/><rect fill="#F1F1F1" height="9" style="stroke:#181818;stroke-width:0.45;" width="13.5" x="129.832" y="79.7625"/><rect fill="#F1F1F1" height="1.8" style="stroke:#181818;stroke-width:0.45;" width="3.6" x="128.032" y="81.5625"/><rect fill="#F1F1F1" height="1.8" style="stroke:#181818;stroke-width:0.45;" width="3.6" x="128.032" y="85.1625"/><text fill="#000000" font-family="sans-serif" font-size="14.4" lengthAdjust="spacing" textLength="92.032" x="33.3" y="108.2109">GET /usuarios</text></g><!--entity POST /usuarios--><g class="entity" data-entity="POST .usuarios" data-source-line="10" data-uid="ent0004" id="entity_POST .usuarios"><rect fill="#F1F1F1" height="45.1125" rx="2.25" ry="2.25" style="stroke:#181818;stroke-width:0.45;" width="137.6367" x="166.05" y="75.2625"/><rect fill="#F1F1F1" height="9" style="stroke:#181818;stroke-width:0.45;" width="13.5" x="285.6867" y="79.7625"/><rect fill="#F1F1F1" height="1.8" style="stroke:#181818;stroke-width:0.45;" width="3.6" x="283.8867" y="81.5625"/><rect fill="#F1F1F1" height="1.8" style="stroke:#181818;stroke-width:0.45;" width="3.6" x="283.8867" y="85.1625"/><text fill="#000000" font-family="sans-serif" font-size="14.4" lengthAdjust="spacing" textLength="101.6367" x="179.55" y="108.2109">POST /usuarios</text></g><!--entity GET /usuarios/{id}--><g class="entity" data-entity="GET .usuarios..id." data-source-line="11" data-uid="ent0005" id="entity_GET .usuarios..id."><rect fill="#F1F1F1" height="45.1125" rx="2.25" ry="2.25" style="stroke:#181818;stroke-width:0.45;" width="152.8594" x="19.8" y="141.8625"/><rect fill="#F1F1F1" height="9" style="stroke:#181818;stroke-width:0.45;" width="13.5" x="154.6594" y="146.3625"/><rect fill="#F1F1F1" height="1.8" style="stroke:#181818;stroke-width:0.45;" width="3.6" x="152.8594" y="148.1625"/><rect fill="#F1F1F1" height="1.8" style="stroke:#181818;stroke-width:0.45;" width="3.6" x="152.8594" y="151.7625"/><text fill="#000000" font-family="sans-serif" font-size="14.4" lengthAdjust="spacing" textLength="116.8594" x="33.3" y="174.8109">GET /usuarios/{id}</text></g><!--entity PUT /usuarios/{id}--><g class="entity" data-entity="PUT .usuarios..id." data-source-line="12" data-uid="ent0006" id="entity_PUT .usuarios..id."><rect fill="#F1F1F1" height="45.1125" rx="2.25" ry="2.25" style="stroke:#181818;stroke-width:0.45;" width="152.0578" x="191.25" y="141.8625"/><rect fill="#F1F1F1" height="9" style="stroke:#181818;stroke-width:0.45;" width="13.5" x="325.3078" y="146.3625"/><rect fill="#F1F1F1" height="1.8" style="stroke:#181818;stroke-width:0.45;" width="3.6" x="323.5078" y="148.1625"/><rect fill="#F1F1F1" height="1.8" style="stroke:#181818;stroke-width:0.45;" width="3.6" x="323.5078" y="151.7625"/><text fill="#000000" font-family="sans-serif" font-size="14.4" lengthAdjust="spacing" textLength="116.0578" x="204.75" y="174.8109">PUT /usuarios/{id}</text></g><!--entity DELETE /usuarios/{id}--><g class="entity" data-entity="DELETE .usuarios..id." data-source-line="13" data-uid="ent0007" id="entity_DELETE .usuarios..id."><rect fill="#F1F1F1" height="45.1125" rx="2.25" ry="2.25" style="stroke:#181818;stroke-width:0.45;" width="179.2758" x="321.75" y="75.2625"/><rect fill="#F1F1F1" height="9" style="stroke:#181818;stroke-width:0.45;" width="13.5" x="483.0258" y="79.7625"/><rect fill="#F1F1F1" height="1.8" style="stroke:#181818;stroke-width:0.45;" width="3.6" x="481.2258" y="81.5625"/><rect fill="#F1F1F1" height="1.8" style="stroke:#181818;stroke-width:0.45;" width="3.6" x="481.2258" y="85.1625"/><text fill="#000000" font-family="sans-serif" font-size="14.4" lengthAdjust="spacing" textLength="143.2758" x="335.25" y="108.2109">DELETE /usuarios/{id}</text></g><g class="entity" data-entity="GMN8" data-source-line="17" data-uid="ent0009" id="entity_GMN8"><path d="M530.55,84.2625 L530.55,94.1625 L500.895,97.7625 L530.55,101.3625 L530.55,111.375 A0,0 0 0 0 530.55,111.375 L790.4109,111.375 A0,0 0 0 0 790.4109,111.375 L790.4109,93.2625 L781.4109,84.2625 L530.55,84.2625 A0,0 0 0 0 530.55,84.2625" fill="#FAFAFA" style="stroke:#181818;stroke-width:0.45;"/><path d="M781.4109,84.2625 L781.4109,93.2625 L790.4109,93.2625 L781.4109,84.2625" fill="#FAFAFA" style="stroke:#181818;stroke-width:0.45;"/></g></g></svg>





