<svg xmlns="http://www.w3.org/2000/svg" xmlns:xlink="http://www.w3.org/1999/xlink" contentStyleType="text/css" data-diagram-type="DESCRIPTION" height="426px" preserveAspectRatio="xMidYMid meet" style="width:1822px;height:426px;background:#FFFFFF;" version="1.1" viewBox="0 0 2022 473" width="1822px" zoomAndPan="magnify"><title>Endpoints - Recetas</title><defs/><g><g class="title" data-source-line="1"><text fill="#000000" font-family="sans-serif" font-size="12.6" font-weight="bold" lengthAdjust="spacing" textLength="121.1212" x="944.3949" y="22.0799">Endpoints - Recetas</text></g><!--cluster Recetas--><g class="cluster" data-entity="Recetas" data-source-line="8" data-uid="ent0002" id="cluster_Recetas"><path d="M7.65,40.1625 L63.7875,40.1625 A3.375,3.375 0 0 1 66.0375,42.4125 L72.3375,63.675 L1739.25,63.675 A2.25,2.25 0 0 1 1741.5,65.925 L1741.5,465.4125 A2.25,2.25 0 0 1 1739.25,467.6625 L7.65,467.6625 A2.25,2.25 0 0 1 5.4,465.4125 L5.4,42.4125 A2.25,2.25 0 0 1 7.65,40.1625" fill="none" style="stroke:#000000;stroke-width:1.35;"/><line style="stroke:#000000;stroke-width:1.35;" x1="5.4" x2="72.3375" y1="63.675" y2="63.675"/><text fill="#000000" font-family="sans-serif" font-size="14.4" font-weight="bold" lengthAdjust="spacing" textLength="55.2375" x="9" y="56.9109">Recetas</text></g><!--entity GET /recetas--><g class="entity" data-entity="GET .recetas" data-source-line="9" data-uid="ent0003" id="entity_GET .recetas"><rect fill="#F1F1F1" height="45.1125" rx="2.25" ry="2.25" style="stroke:#181818;stroke-width:0.45;" width="120.825" x="73.8" y="75.2625"/><rect fill="#F1F1F1" height="9" style="stroke:#181818;stroke-width:0.45;" width="13.5" x="176.625" y="79.7625"/><rect fill="#F1F1F1" height="1.8" style="stroke:#181818;stroke-width:0.45;" width="3.6" x="174.825" y="81.5625"/><rect fill="#F1F1F1" height="1.8" style="stroke:#181818;stroke-width:0.45;" width="3.6" x="174.825" y="85.1625"/><text fill="#000000" font-family="sans-serif" font-size="14.4" lengthAdjust="spacing" textLength="84.825" x="87.3" y="108.2109">GET /recetas</text></g><!--entity POST /recetas--><g class="entity" data-entity="POST .recetas" data-source-line="10" data-uid="ent0004" id="entity_POST .recetas"><rect fill="#F1F1F1" height="45.1125" rx="2.25" ry="2.25" style="stroke:#181818;stroke-width:0.45;" width="130.4297" x="212.85" y="75.2625"/><rect fill="#F1F1F1" height="9" style="stroke:#181818;stroke-width:0.45;" width="13.5" x="325.2797" y="79.7625"/><rect fill="#F1F1F1" height="1.8" style="stroke:#181818;stroke-width:0.45;" width="3.6" x="323.4797" y="81.5625"/><rect fill="#F1F1F1" height="1.8" style="stroke:#181818;stroke-width:0.45;" width="3.6" x="323.4797" y="85.1625"/><text fill="#000000" font-family="sans-serif" font-size="14.4" lengthAdjust="spacing" textLength="94.4297" x="226.35" y="108.2109">POST /recetas</text></g><!--entity GET /recetas/{id}--><g class="entity" data-entity="GET .recetas..id." data-source-line="11" data-uid="ent0005" id="entity_GET .recetas..id."><rect fill="#F1F1F1" height="45.1125" rx="2.25" ry="2.25" style="stroke:#181818;stroke-width:0.45;" width="145.6523" x="361.8" y="75.2625"/><rect fill="#F1F1F1" height="9" style="stroke:#181818;stroke-width:0.45;" width="13.5" x="489.4523" y="79.7625"/><rect fill="#F1F1F1" height="1.8" style="stroke:#181818;stroke-width:0.45;" width="3.6" x="487.6523" y="81.5625"/><rect fill="#F1F1F1" height="1.8" style="stroke:#181818;stroke-width:0.45;" width="3.6" x="487.6523" y="85.1625"/><text fill="#000000" font-family="sans-serif" font-size="14.4" lengthAdjust="spacing" textLength="109.6523" x="375.3" y="108.2109">GET /recetas/{id}</text></g><!--entity PUT /recetas/{id}--><g class="entity" data-entity="PUT .recetas..id." data-source-line="12" data-uid="ent0006" id="entity_PUT .recetas..id."><rect fill="#F1F1F1" height="45.1125" rx="2.25" ry="2.25" style="stroke:#181818;stroke-width:0.45;" width="144.8508" x="526.05" y="75.2625"/><rect fill="#F1F1F1" height="9" style="stroke:#181818;stroke-width:0.45;" width="13.5" x="652.9008" y="79.7625"/><rect fill="#F1F1F1" height="1.8" style="stroke:#181818;stroke-width:0.45;" width="3.6" x="651.1008" y="81.5625"/><rect fill="#F1F1F1" height="1.8" style="stroke:#181818;stroke-width:0.45;" width="3.6" x="651.1008" y="85.1625"/><text fill="#000000" font-family="sans-serif" font-size="14.4" lengthAdjust="spacing" textLength="108.8508" x="539.55" y="108.2109">PUT /recetas/{id}</text></g><!--entity DELETE /recetas/{id}--><g class="entity" data-entity="DELETE .recetas..id." data-source-line="13" data-uid="ent0007" id="entity_DELETE .recetas..id."><rect fill="#F1F1F1" height="45.1125" rx="2.25" ry="2.25" style="stroke:#181818;stroke-width:0.45;" width="172.0688" x="688.95" y="75.2625"/><rect fill="#F1F1F1" height="9" style="stroke:#181818;stroke-width:0.45;" width="13.5" x="843.0188" y="79.7625"/><rect fill="#F1F1F1" height="1.8" style="stroke:#181818;stroke-width:0.45;" width="3.6" x="841.2188" y="81.5625"/><rect fill="#F1F1F1" height="1.8" style="stroke:#181818;stroke-width:0.45;" width="3.6" x="841.2188" y="85.1625"/><text fill="#000000" font-family="sans-serif" font-size="14.4" lengthAdjust="spacing" textLength="136.0688" x="702.45" y="108.2109">DELETE /recetas/{id}</text></g><!--entity GET /recetas/usuario/{usuarioId}--><g class="entity" data-entity="GET .recetas.usuario..usuarioId." data-source-line="15" data-uid="ent0008" id="entity_GET .recetas.usuario..usuarioId."><rect fill="#F1F1F1" height="45.1125" rx="2.25" ry="2.25" style="stroke:#181818;stroke-width:0.45;" width="244.9125" x="879.3" y="75.2625"/><rect fill="#F1F1F1" height="9" style="stroke:#181818;stroke-width:0.45;" width="13.5" x="1106.2125" y="79.7625"/><rect fill="#F1F1F1" height="1.8" style="stroke:#181818;stroke-width:0.45;" width="3.6" x="1104.4125" y="81.5625"/><rect fill="#F1F1F1" height="1.8" style="stroke:#181818;stroke-width:0.45;" width="3.6" x="1104.4125" y="85.1625"/><text fill="#000000" font-family="sans-serif" font-size="14.4" lengthAdjust="spacing" textLength="208.9125" x="892.8" y="108.2109">GET /recetas/usuario/{usuarioId}</text></g><!--entity GET /recetas/trending--><g class="entity" data-entity="GET .recetas.trending" data-source-line="16" data-uid="ent0009" id="entity_GET .recetas.trending"><rect fill="#F1F1F1" height="45.1125" rx="2.25" ry="2.25" style="stroke:#181818;stroke-width:0.45;" width="176.8641" x="45.45" y="141.8625"/><rect fill="#F1F1F1" height="9" style="stroke:#181818;stroke-width:0.45;" width="13.5" x="204.3141" y="146.3625"/><rect fill="#F1F1F1" height="1.8" style="stroke:#181818;stroke-width:0.45;" width="3.6" x="202.5141" y="148.1625"/><rect fill="#F1F1F1" height="1.8" style="stroke:#181818;stroke-width:0.45;" width="3.6" x="202.5141" y="151.7625"/><text fill="#000000" font-family="sans-serif" font-size="14.4" lengthAdjust="spacing" textLength="140.8641" x="58.95" y="174.8109">GET /recetas/trending</text></g><!--entity GET /recetas/pais/{idPais}--><g class="entity" data-entity="GET .recetas.pais..idPais." data-source-line="17" data-uid="ent0010" id="entity_GET .recetas.pais..idPais."><rect fill="#F1F1F1" height="45.1125" rx="2.25" ry="2.25" style="stroke:#181818;stroke-width:0.45;" width="204.082" x="240.75" y="141.8625"/><rect fill="#F1F1F1" height="9" style="stroke:#181818;stroke-width:0.45;" width="13.5" x="426.832" y="146.3625"/><rect fill="#F1F1F1" height="1.8" style="stroke:#181818;stroke-width:0.45;" width="3.6" x="425.032" y="148.1625"/><rect fill="#F1F1F1" height="1.8" style="stroke:#181818;stroke-width:0.45;" width="3.6" x="425.032" y="151.7625"/><text fill="#000000" font-family="sans-serif" font-size="14.4" lengthAdjust="spacing" textLength="168.082" x="254.25" y="174.8109">GET /recetas/pais/{idPais}</text></g><!--entity GET /recetas/nombre/{nombre}--><g class="entity" data-entity="GET .recetas.nombre..nombre." data-source-line="18" data-uid="ent0011" id="entity_GET .recetas.nombre..nombre."><rect fill="#F1F1F1" height="45.1125" rx="2.25" ry="2.25" style="stroke:#181818;stroke-width:0.45;" width="236.0953" x="463.5" y="141.8625"/><rect fill="#F1F1F1" height="9" style="stroke:#181818;stroke-width:0.45;" width="13.5" x="681.5953" y="146.3625"/><rect fill="#F1F1F1" height="1.8" style="stroke:#181818;stroke-width:0.45;" width="3.6" x="679.7953" y="148.1625"/><rect fill="#F1F1F1" height="1.8" style="stroke:#181818;stroke-width:0.45;" width="3.6" x="679.7953" y="151.7625"/><text fill="#000000" font-family="sans-serif" font-size="14.4" lengthAdjust="spacing" textLength="200.0953" x="477" y="174.8109">GET /recetas/nombre/{nombre}</text></g><!--entity GET /recetas/del-dia--><g class="entity" data-entity="GET .recetas.del-dia" data-source-line="19" data-uid="ent0012" id="entity_GET .recetas.del-dia"><rect fill="#F1F1F1" height="45.1125" rx="2.25" ry="2.25" style="stroke:#181818;stroke-width:0.45;" width="168.0539" x="717.75" y="141.8625"/><rect fill="#F1F1F1" height="9" style="stroke:#181818;stroke-width:0.45;" width="13.5" x="867.8039" y="146.3625"/><rect fill="#F1F1F1" height="1.8" style="stroke:#181818;stroke-width:0.45;" width="3.6" x="866.0039" y="148.1625"/><rect fill="#F1F1F1" height="1.8" style="stroke:#181818;stroke-width:0.45;" width="3.6" x="866.0039" y="151.7625"/><text fill="#000000" font-family="sans-serif" font-size="14.4" lengthAdjust="spacing" textLength="132.0539" x="731.25" y="174.8109">GET /recetas/del-dia</text></g><!--entity GET /recetas/carrusel--><g class="entity" data-entity="GET .recetas.carrusel" data-source-line="20" data-uid="ent0013" id="entity_GET .recetas.carrusel"><rect fill="#F1F1F1" height="45.1125" rx="2.25" ry="2.25" style="stroke:#181818;stroke-width:0.45;" width="176.0414" x="904.5" y="141.8625"/><rect fill="#F1F1F1" height="9" style="stroke:#181818;stroke-width:0.45;" width="13.5" x="1062.5414" y="146.3625"/><rect fill="#F1F1F1" height="1.8" style="stroke:#181818;stroke-width:0.45;" width="3.6" x="1060.7414" y="148.1625"/><rect fill="#F1F1F1" height="1.8" style="stroke:#181818;stroke-width:0.45;" width="3.6" x="1060.7414" y="151.7625"/><text fill="#000000" font-family="sans-serif" font-size="14.4" lengthAdjust="spacing" textLength="140.0414" x="918" y="174.8109">GET /recetas/carrusel</text></g><!--entity GET /recetas/megusta--><g class="entity" data-entity="GET .recetas.megusta" data-source-line="22" data-uid="ent0014" id="entity_GET .recetas.megusta"><rect fill="#F1F1F1" height="45.1125" rx="2.25" ry="2.25" style="stroke:#181818;stroke-width:0.45;" width="180.0563" x="1098.9" y="141.8625"/><rect fill="#F1F1F1" height="9" style="stroke:#181818;stroke-width:0.45;" width="13.5" x="1260.9563" y="146.3625"/><rect fill="#F1F1F1" height="1.8" style="stroke:#181818;stroke-width:0.45;" width="3.6" x="1259.1563" y="148.1625"/><rect fill="#F1F1F1" height="1.8" style="stroke:#181818;stroke-width:0.45;" width="3.6" x="1259.1563" y="151.7625"/><text fill="#000000" font-family="sans-serif" font-size="14.4" lengthAdjust="spacing" textLength="144.0563" x="1112.4" y="174.8109">GET /recetas/megusta</text></g><!--entity POST /recetas/megusta--><g class="entity" data-entity="POST .recetas.megusta" data-source-line="23" data-uid="ent0015" id="entity_POST .recetas.megusta"><rect fill="#F1F1F1" height="45.1125" rx="2.25" ry="2.25" style="stroke:#181818;stroke-width:0.45;" width="189.6609" x="39.15" y="208.4625"/><rect fill="#F1F1F1" height="9" style="stroke:#181818;stroke-width:0.45;" width="13.5" x="210.8109" y="212.9625"/><rect fill="#F1F1F1" height="1.8" style="stroke:#181818;stroke-width:0.45;" width="3.6" x="209.0109" y="214.7625"/><rect fill="#F1F1F1" height="1.8" style="stroke:#181818;stroke-width:0.45;" width="3.6" x="209.0109" y="218.3625"/><text fill="#000000" font-family="sans-serif" font-size="14.4" lengthAdjust="spacing" textLength="153.6609" x="52.65" y="241.4109">POST /recetas/megusta</text></g><!--entity DELETE /recetas/megusta--><g class="entity" data-entity="DELETE .recetas.megusta" data-source-line="24" data-uid="ent0016" id="entity_DELETE .recetas.megusta"><rect fill="#F1F1F1" height="45.1125" rx="2.25" ry="2.25" style="stroke:#181818;stroke-width:0.45;" width="206.4727" x="247.05" y="208.4625"/><rect fill="#F1F1F1" height="9" style="stroke:#181818;stroke-width:0.45;" width="13.5" x="435.5227" y="212.9625"/><rect fill="#F1F1F1" height="1.8" style="stroke:#181818;stroke-width:0.45;" width="3.6" x="433.7227" y="214.7625"/><rect fill="#F1F1F1" height="1.8" style="stroke:#181818;stroke-width:0.45;" width="3.6" x="433.7227" y="218.3625"/><text fill="#000000" font-family="sans-serif" font-size="14.4" lengthAdjust="spacing" textLength="170.4727" x="260.55" y="241.4109">DELETE /recetas/megusta</text></g><!--entity PUT /recetas/megusta/{id}--><g class="entity" data-entity="PUT .recetas.megusta..id." data-source-line="25" data-uid="ent0017" id="entity_PUT .recetas.megusta..id."><rect fill="#F1F1F1" height="45.1125" rx="2.25" ry="2.25" style="stroke:#181818;stroke-width:0.45;" width="204.082" x="471.15" y="208.4625"/><rect fill="#F1F1F1" height="9" style="stroke:#181818;stroke-width:0.45;" width="13.5" x="657.232" y="212.9625"/><rect fill="#F1F1F1" height="1.8" style="stroke:#181818;stroke-width:0.45;" width="3.6" x="655.432" y="214.7625"/><rect fill="#F1F1F1" height="1.8" style="stroke:#181818;stroke-width:0.45;" width="3.6" x="655.432" y="218.3625"/><text fill="#000000" font-family="sans-serif" font-size="14.4" lengthAdjust="spacing" textLength="168.082" x="484.65" y="241.4109">PUT /recetas/megusta/{id}</text></g><!--entity GET /recetas/favoritos--><g class="entity" data-entity="GET .recetas.favoritos" data-source-line="27" data-uid="ent0018" id="entity_GET .recetas.favoritos"><rect fill="#F1F1F1" height="45.1125" rx="2.25" ry="2.25" style="stroke:#181818;stroke-width:0.45;" width="179.2477" x="693.45" y="208.4625"/><rect fill="#F1F1F1" height="9" style="stroke:#181818;stroke-width:0.45;" width="13.5" x="854.6977" y="212.9625"/><rect fill="#F1F1F1" height="1.8" style="stroke:#181818;stroke-width:0.45;" width="3.6" x="852.8977" y="214.7625"/><rect fill="#F1F1F1" height="1.8" style="stroke:#181818;stroke-width:0.45;" width="3.6" x="852.8977" y="218.3625"/><text fill="#000000" font-family="sans-serif" font-size="14.4" lengthAdjust="spacing" textLength="143.2477" x="706.95" y="241.4109">GET /recetas/favoritos</text></g><!--entity POST /recetas/favoritos--><g class="entity" data-entity="POST .recetas.favoritos" data-source-line="28" data-uid="ent0019" id="entity_POST .recetas.favoritos"><rect fill="#F1F1F1" height="45.1125" rx="2.25" ry="2.25" style="stroke:#181818;stroke-width:0.45;" width="188.8523" x="891" y="208.4625"/><rect fill="#F1F1F1" height="9" style="stroke:#181818;stroke-width:0.45;" width="13.5" x="1061.8523" y="212.9625"/><rect fill="#F1F1F1" height="1.8" style="stroke:#181818;stroke-width:0.45;" width="3.6" x="1060.0523" y="214.7625"/><rect fill="#F1F1F1" height="1.8" style="stroke:#181818;stroke-width:0.45;" width="3.6" x="1060.0523" y="218.3625"/><text fill="#000000" font-family="sans-serif" font-size="14.4" lengthAdjust="spacing" textLength="152.8523" x="904.5" y="241.4109">POST /recetas/favoritos</text></g><!--entity DELETE /recetas/favoritos--><g class="entity" data-entity="DELETE .recetas.favoritos" data-source-line="29" data-uid="ent0020" id="entity_DELETE .recetas.favoritos"><rect fill="#F1F1F1" height="45.1125" rx="2.25" ry="2.25" style="stroke:#181818;stroke-width:0.45;" width="205.6641" x="1098.45" y="208.4625"/><rect fill="#F1F1F1" height="9" style="stroke:#181818;stroke-width:0.45;" width="13.5" x="1286.1141" y="212.9625"/><rect fill="#F1F1F1" height="1.8" style="stroke:#181818;stroke-width:0.45;" width="3.6" x="1284.3141" y="214.7625"/><rect fill="#F1F1F1" height="1.8" style="stroke:#181818;stroke-width:0.45;" width="3.6" x="1284.3141" y="218.3625"/><text fill="#000000" font-family="sans-serif" font-size="14.4" lengthAdjust="spacing" textLength="169.6641" x="1111.95" y="241.4109">DELETE /recetas/favoritos</text></g><!--entity PUT /recetas/favoritos/{id}--><g class="entity" data-entity="PUT .recetas.favoritos..id." data-source-line="30" data-uid="ent0021" id="entity_PUT .recetas.favoritos..id."><rect fill="#F1F1F1" height="45.1125" rx="2.25" ry="2.25" style="stroke:#181818;stroke-width:0.45;" width="203.2734" x="32.4" y="275.0625"/><rect fill="#F1F1F1" height="9" style="stroke:#181818;stroke-width:0.45;" width="13.5" x="217.6734" y="279.5625"/><rect fill="#F1F1F1" height="1.8" style="stroke:#181818;stroke-width:0.45;" width="3.6" x="215.8734" y="281.3625"/><rect fill="#F1F1F1" height="1.8" style="stroke:#181818;stroke-width:0.45;" width="3.6" x="215.8734" y="284.9625"/><text fill="#000000" font-family="sans-serif" font-size="14.4" lengthAdjust="spacing" textLength="167.2734" x="45.9" y="308.0109">PUT /recetas/favoritos/{id}</text></g><!--entity GET /recetas/estrellas--><g class="entity" data-entity="GET .recetas.estrellas" data-source-line="32" data-uid="ent0022" id="entity_GET .recetas.estrellas"><rect fill="#F1F1F1" height="45.1125" rx="2.25" ry="2.25" style="stroke:#181818;stroke-width:0.45;" width="178.4461" x="253.8" y="275.0625"/><rect fill="#F1F1F1" height="9" style="stroke:#181818;stroke-width:0.45;" width="13.5" x="414.2461" y="279.5625"/><rect fill="#F1F1F1" height="1.8" style="stroke:#181818;stroke-width:0.45;" width="3.6" x="412.4461" y="281.3625"/><rect fill="#F1F1F1" height="1.8" style="stroke:#181818;stroke-width:0.45;" width="3.6" x="412.4461" y="284.9625"/><text fill="#000000" font-family="sans-serif" font-size="14.4" lengthAdjust="spacing" textLength="142.4461" x="267.3" y="308.0109">GET /recetas/estrellas</text></g><!--entity POST /recetas/estrellas--><g class="entity" data-entity="POST .recetas.estrellas" data-source-line="33" data-uid="ent0023" id="entity_POST .recetas.estrellas"><rect fill="#F1F1F1" height="45.1125" rx="2.25" ry="2.25" style="stroke:#181818;stroke-width:0.45;" width="188.0508" x="450.45" y="275.0625"/><rect fill="#F1F1F1" height="9" style="stroke:#181818;stroke-width:0.45;" width="13.5" x="620.5008" y="279.5625"/><rect fill="#F1F1F1" height="1.8" style="stroke:#181818;stroke-width:0.45;" width="3.6" x="618.7008" y="281.3625"/><rect fill="#F1F1F1" height="1.8" style="stroke:#181818;stroke-width:0.45;" width="3.6" x="618.7008" y="284.9625"/><text fill="#000000" font-family="sans-serif" font-size="14.4" lengthAdjust="spacing" textLength="152.0508" x="463.95" y="308.0109">POST /recetas/estrellas</text></g><!--entity PUT /recetas/estrellas/{id}--><g class="entity" data-entity="PUT .recetas.estrellas..id." data-source-line="34" data-uid="ent0024" id="entity_PUT .recetas.estrellas..id."><rect fill="#F1F1F1" height="45.1125" rx="2.25" ry="2.25" style="stroke:#181818;stroke-width:0.45;" width="202.4719" x="656.55" y="275.0625"/><rect fill="#F1F1F1" height="9" style="stroke:#181818;stroke-width:0.45;" width="13.5" x="841.0219" y="279.5625"/><rect fill="#F1F1F1" height="1.8" style="stroke:#181818;stroke-width:0.45;" width="3.6" x="839.2219" y="281.3625"/><rect fill="#F1F1F1" height="1.8" style="stroke:#181818;stroke-width:0.45;" width="3.6" x="839.2219" y="284.9625"/><text fill="#000000" font-family="sans-serif" font-size="14.4" lengthAdjust="spacing" textLength="166.4719" x="670.05" y="308.0109">PUT /recetas/estrellas/{id}</text></g><!--entity DELETE /recetas/estrellas/{id}--><g class="entity" data-entity="DELETE .recetas.estrellas..id." data-source-line="35" data-uid="ent0025" id="entity_DELETE .recetas.estrellas..id."><rect fill="#F1F1F1" height="45.1125" rx="2.25" ry="2.25" style="stroke:#181818;stroke-width:0.45;" width="229.6898" x="877.05" y="275.0625"/><rect fill="#F1F1F1" height="9" style="stroke:#181818;stroke-width:0.45;" width="13.5" x="1088.7398" y="279.5625"/><rect fill="#F1F1F1" height="1.8" style="stroke:#181818;stroke-width:0.45;" width="3.6" x="1086.9398" y="281.3625"/><rect fill="#F1F1F1" height="1.8" style="stroke:#181818;stroke-width:0.45;" width="3.6" x="1086.9398" y="284.9625"/><text fill="#000000" font-family="sans-serif" font-size="14.4" lengthAdjust="spacing" textLength="193.6898" x="890.55" y="308.0109">DELETE /recetas/estrellas/{id}</text></g><!--entity GET /recetas/{id}/ingredientes--><g class="entity" data-entity="GET .recetas..id..ingredientes" data-source-line="37" data-uid="ent0026" id="entity_GET .recetas..id..ingredientes"><rect fill="#F1F1F1" height="45.1125" rx="2.25" ry="2.25" style="stroke:#181818;stroke-width:0.45;" width="228.1078" x="1124.55" y="275.0625"/><rect fill="#F1F1F1" height="9" style="stroke:#181818;stroke-width:0.45;" width="13.5" x="1334.6578" y="279.5625"/><rect fill="#F1F1F1" height="1.8" style="stroke:#181818;stroke-width:0.45;" width="3.6" x="1332.8578" y="281.3625"/><rect fill="#F1F1F1" height="1.8" style="stroke:#181818;stroke-width:0.45;" width="3.6" x="1332.8578" y="284.9625"/><text fill="#000000" font-family="sans-serif" font-size="14.4" lengthAdjust="spacing" textLength="192.1078" x="1138.05" y="308.0109">GET /recetas/{id}/ingredientes</text></g><!--entity PUT /recetas/{id}/ingredientes--><g class="entity" data-entity="PUT .recetas..id..ingredientes" data-source-line="38" data-uid="ent0027" id="entity_PUT .recetas..id..ingredientes"><rect fill="#F1F1F1" height="45.1125" rx="2.25" ry="2.25" style="stroke:#181818;stroke-width:0.45;" width="227.3063" x="20.25" y="341.6625"/><rect fill="#F1F1F1" height="9" style="stroke:#181818;stroke-width:0.45;" width="13.5" x="229.5563" y="346.1625"/><rect fill="#F1F1F1" height="1.8" style="stroke:#181818;stroke-width:0.45;" width="3.6" x="227.7563" y="347.9625"/><rect fill="#F1F1F1" height="1.8" style="stroke:#181818;stroke-width:0.45;" width="3.6" x="227.7563" y="351.5625"/><text fill="#000000" font-family="sans-serif" font-size="14.4" lengthAdjust="spacing" textLength="191.3063" x="33.75" y="374.6109">PUT /recetas/{id}/ingredientes</text></g><!--entity POST /recetas/{id}/ingredientes--><g class="entity" data-entity="POST .recetas..id..ingredientes" data-source-line="39" data-uid="ent0028" id="entity_POST .recetas..id..ingredientes"><rect fill="#F1F1F1" height="45.1125" rx="2.25" ry="2.25" style="stroke:#181818;stroke-width:0.45;" width="237.7125" x="266.4" y="341.6625"/><rect fill="#F1F1F1" height="9" style="stroke:#181818;stroke-width:0.45;" width="13.5" x="486.1125" y="346.1625"/><rect fill="#F1F1F1" height="1.8" style="stroke:#181818;stroke-width:0.45;" width="3.6" x="484.3125" y="347.9625"/><rect fill="#F1F1F1" height="1.8" style="stroke:#181818;stroke-width:0.45;" width="3.6" x="484.3125" y="351.5625"/><text fill="#000000" font-family="sans-serif" font-size="14.4" lengthAdjust="spacing" textLength="201.7125" x="279.9" y="374.6109">POST /recetas/{id}/ingredientes</text></g><!--entity DELETE /recetas/{idReceta}/ingredientes/{idIngrediente}--><g class="entity" data-entity="DELETE .recetas..idReceta..ingredientes..idIngrediente." data-source-line="40" data-uid="ent0029" id="entity_DELETE .recetas..idReceta..ingredientes..idIngrediente."><rect fill="#F1F1F1" height="45.1125" rx="2.25" ry="2.25" style="stroke:#181818;stroke-width:0.45;" width="397.0336" x="522.45" y="341.6625"/><rect fill="#F1F1F1" height="9" style="stroke:#181818;stroke-width:0.45;" width="13.5" x="901.4836" y="346.1625"/><rect fill="#F1F1F1" height="1.8" style="stroke:#181818;stroke-width:0.45;" width="3.6" x="899.6836" y="347.9625"/><rect fill="#F1F1F1" height="1.8" style="stroke:#181818;stroke-width:0.45;" width="3.6" x="899.6836" y="351.5625"/><text fill="#000000" font-family="sans-serif" font-size="14.4" lengthAdjust="spacing" textLength="361.0336" x="535.95" y="374.6109">DELETE /recetas/{idReceta}/ingredientes/{idIngrediente}</text></g><!--entity GET /recetas/comentarios--><g class="entity" data-entity="GET .recetas.comentarios" data-source-line="42" data-uid="ent0030" id="entity_GET .recetas.comentarios"><rect fill="#F1F1F1" height="45.1125" rx="2.25" ry="2.25" style="stroke:#181818;stroke-width:0.45;" width="203.2594" x="937.8" y="341.6625"/><rect fill="#F1F1F1" height="9" style="stroke:#181818;stroke-width:0.45;" width="13.5" x="1123.0594" y="346.1625"/><rect fill="#F1F1F1" height="1.8" style="stroke:#181818;stroke-width:0.45;" width="3.6" x="1121.2594" y="347.9625"/><rect fill="#F1F1F1" height="1.8" style="stroke:#181818;stroke-width:0.45;" width="3.6" x="1121.2594" y="351.5625"/><text fill="#000000" font-family="sans-serif" font-size="14.4" lengthAdjust="spacing" textLength="167.2594" x="951.3" y="374.6109">GET /recetas/comentarios</text></g><!--entity POST /recetas/comentarios--><g class="entity" data-entity="POST .recetas.comentarios" data-source-line="43" data-uid="ent0031" id="entity_POST .recetas.comentarios"><rect fill="#F1F1F1" height="45.1125" rx="2.25" ry="2.25" style="stroke:#181818;stroke-width:0.45;" width="212.8641" x="1159.65" y="341.6625"/><rect fill="#F1F1F1" height="9" style="stroke:#181818;stroke-width:0.45;" width="13.5" x="1354.5141" y="346.1625"/><rect fill="#F1F1F1" height="1.8" style="stroke:#181818;stroke-width:0.45;" width="3.6" x="1352.7141" y="347.9625"/><rect fill="#F1F1F1" height="1.8" style="stroke:#181818;stroke-width:0.45;" width="3.6" x="1352.7141" y="351.5625"/><text fill="#000000" font-family="sans-serif" font-size="14.4" lengthAdjust="spacing" textLength="176.8641" x="1173.15" y="374.6109">POST /recetas/comentarios</text></g><!--entity GET /recetas/comentarios/receta/{id}--><g class="entity" data-entity="GET .recetas.comentarios.receta..id." data-source-line="44" data-uid="ent0032" id="entity_GET .recetas.comentarios.receta..id."><rect fill="#F1F1F1" height="45.1125" rx="2.25" ry="2.25" style="stroke:#181818;stroke-width:0.45;" width="272.1094" x="1391.4" y="341.6625"/><rect fill="#F1F1F1" height="9" style="stroke:#181818;stroke-width:0.45;" width="13.5" x="1645.5094" y="346.1625"/><rect fill="#F1F1F1" height="1.8" style="stroke:#181818;stroke-width:0.45;" width="3.6" x="1643.7094" y="347.9625"/><rect fill="#F1F1F1" height="1.8" style="stroke:#181818;stroke-width:0.45;" width="3.6" x="1643.7094" y="351.5625"/><text fill="#000000" font-family="sans-serif" font-size="14.4" lengthAdjust="spacing" textLength="236.1094" x="1404.9" y="374.6109">GET /recetas/comentarios/receta/{id}</text></g><!--entity PUT /recetas/comentarios/{id}--><g class="entity" data-entity="PUT .recetas.comentarios..id." data-source-line="45" data-uid="ent0033" id="entity_PUT .recetas.comentarios..id."><rect fill="#F1F1F1" height="45.1125" rx="2.25" ry="2.25" style="stroke:#181818;stroke-width:0.45;" width="227.2852" x="20.25" y="408.2625"/><rect fill="#F1F1F1" height="9" style="stroke:#181818;stroke-width:0.45;" width="13.5" x="229.5352" y="412.7625"/><rect fill="#F1F1F1" height="1.8" style="stroke:#181818;stroke-width:0.45;" width="3.6" x="227.7352" y="414.5625"/><rect fill="#F1F1F1" height="1.8" style="stroke:#181818;stroke-width:0.45;" width="3.6" x="227.7352" y="418.1625"/><text fill="#000000" font-family="sans-serif" font-size="14.4" lengthAdjust="spacing" textLength="191.2852" x="33.75" y="441.2109">PUT /recetas/comentarios/{id}</text></g><!--entity DELETE /recetas/comentarios/{id}--><g class="entity" data-entity="DELETE .recetas.comentarios..id." data-source-line="46" data-uid="ent0034" id="entity_DELETE .recetas.comentarios..id."><rect fill="#F1F1F1" height="45.1125" rx="2.25" ry="2.25" style="stroke:#181818;stroke-width:0.45;" width="254.5031" x="265.95" y="408.2625"/><rect fill="#F1F1F1" height="9" style="stroke:#181818;stroke-width:0.45;" width="13.5" x="502.4531" y="412.7625"/><rect fill="#F1F1F1" height="1.8" style="stroke:#181818;stroke-width:0.45;" width="3.6" x="500.6531" y="414.5625"/><rect fill="#F1F1F1" height="1.8" style="stroke:#181818;stroke-width:0.45;" width="3.6" x="500.6531" y="418.1625"/><text fill="#000000" font-family="sans-serif" font-size="14.4" lengthAdjust="spacing" textLength="218.5031" x="279.45" y="441.2109">DELETE /recetas/comentarios/{id}</text></g><!--entity GET /recetas/categoria/{idCategoria}--><g class="entity" data-entity="GET .recetas.categoria..idCategoria." data-source-line="48" data-uid="ent0035" id="entity_GET .recetas.categoria..idCategoria."><rect fill="#F1F1F1" height="45.1125" rx="2.25" ry="2.25" style="stroke:#181818;stroke-width:0.45;" width="271.3289" x="538.65" y="408.2625"/><rect fill="#F1F1F1" height="9" style="stroke:#181818;stroke-width:0.45;" width="13.5" x="791.9789" y="412.7625"/><rect fill="#F1F1F1" height="1.8" style="stroke:#181818;stroke-width:0.45;" width="3.6" x="790.1789" y="414.5625"/><rect fill="#F1F1F1" height="1.8" style="stroke:#181818;stroke-width:0.45;" width="3.6" x="790.1789" y="418.1625"/><text fill="#000000" font-family="sans-serif" font-size="14.4" lengthAdjust="spacing" textLength="235.3289" x="552.15" y="441.2109">GET /recetas/categoria/{idCategoria}</text></g><!--entity GET /recetas/megusta/count/{idReceta}--><g class="entity" data-entity="GET .recetas.megusta.count..idReceta." data-source-line="49" data-uid="ent0036" id="entity_GET .recetas.megusta.count..idReceta."><rect fill="#F1F1F1" height="45.1125" rx="2.25" ry="2.25" style="stroke:#181818;stroke-width:0.45;" width="289.7367" x="828" y="408.2625"/><rect fill="#F1F1F1" height="9" style="stroke:#181818;stroke-width:0.45;" width="13.5" x="1099.7367" y="412.7625"/><rect fill="#F1F1F1" height="1.8" style="stroke:#181818;stroke-width:0.45;" width="3.6" x="1097.9367" y="414.5625"/><rect fill="#F1F1F1" height="1.8" style="stroke:#181818;stroke-width:0.45;" width="3.6" x="1097.9367" y="418.1625"/><text fill="#000000" font-family="sans-serif" font-size="14.4" lengthAdjust="spacing" textLength="253.7367" x="841.5" y="441.2109">GET /recetas/megusta/count/{idReceta}</text></g><!--entity GET /recetas/favoritos/count/{idReceta}--><g class="entity" data-entity="GET .recetas.favoritos.count..idReceta." data-source-line="50" data-uid="ent0037" id="entity_GET .recetas.favoritos.count..idReceta."><rect fill="#F1F1F1" height="45.1125" rx="2.25" ry="2.25" style="stroke:#181818;stroke-width:0.45;" width="288.9281" x="1136.25" y="408.2625"/><rect fill="#F1F1F1" height="9" style="stroke:#181818;stroke-width:0.45;" width="13.5" x="1407.1781" y="412.7625"/><rect fill="#F1F1F1" height="1.8" style="stroke:#181818;stroke-width:0.45;" width="3.6" x="1405.3781" y="414.5625"/><rect fill="#F1F1F1" height="1.8" style="stroke:#181818;stroke-width:0.45;" width="3.6" x="1405.3781" y="418.1625"/><text fill="#000000" font-family="sans-serif" font-size="14.4" lengthAdjust="spacing" textLength="252.9281" x="1149.75" y="441.2109">GET /recetas/favoritos/count/{idReceta}</text></g><!--entity GET /recetas/estrellas/stats/{idReceta}--><g class="entity" data-entity="GET .recetas.estrellas.stats..idReceta." data-source-line="51" data-uid="ent0038" id="entity_GET .recetas.estrellas.stats..idReceta."><rect fill="#F1F1F1" height="45.1125" rx="2.25" ry="2.25" style="stroke:#181818;stroke-width:0.45;" width="283.3102" x="1443.15" y="408.2625"/><rect fill="#F1F1F1" height="9" style="stroke:#181818;stroke-width:0.45;" width="13.5" x="1708.4602" y="412.7625"/><rect fill="#F1F1F1" height="1.8" style="stroke:#181818;stroke-width:0.45;" width="3.6" x="1706.6602" y="414.5625"/><rect fill="#F1F1F1" height="1.8" style="stroke:#181818;stroke-width:0.45;" width="3.6" x="1706.6602" y="418.1625"/><text fill="#000000" font-family="sans-serif" font-size="14.4" lengthAdjust="spacing" textLength="247.3102" x="1456.65" y="441.2109">GET /recetas/estrellas/stats/{idReceta}</text></g><!--entity POST /recetas/donaciones--><g class="entity" data-entity="POST .recetas.donaciones" data-source-line="52" data-uid="ent0039" id="entity_POST .recetas.donaciones"><rect fill="#F1F1F1" height="45.1125" rx="2.25" ry="2.25" style="stroke:#181818;stroke-width:0.45;" width="208.0898" x="1518.75" y="75.2625"/><rect fill="#F1F1F1" height="9" style="stroke:#181818;stroke-width:0.45;" width="13.5" x="1708.8398" y="79.7625"/><rect fill="#F1F1F1" height="1.8" style="stroke:#181818;stroke-width:0.45;" width="3.6" x="1707.0398" y="81.5625"/><rect fill="#F1F1F1" height="1.8" style="stroke:#181818;stroke-width:0.45;" width="3.6" x="1707.0398" y="85.1625"/><text fill="#000000" font-family="sans-serif" font-size="14.4" lengthAdjust="spacing" textLength="172.0898" x="1532.25" y="108.2109">POST /recetas/donaciones</text></g><g class="entity" data-entity="GMN40" data-source-line="56" data-uid="ent0041" id="entity_GMN40"><path d="M1756.35,84.2625 L1756.35,94.1625 L1726.74,97.7625 L1756.35,101.3625 L1756.35,111.375 A0,0 0 0 0 1756.35,111.375 L2016.2109,111.375 A0,0 0 0 0 2016.2109,111.375 L2016.2109,93.2625 L2007.2109,84.2625 L1756.35,84.2625 A0,0 0 0 0 1756.35,84.2625" fill="#FAFAFA" style="stroke:#181818;stroke-width:0.45;"/><path d="M2007.2109,84.2625 L2007.2109,93.2625 L2016.2109,93.2625 L2007.2109,84.2625" fill="#FAFAFA" style="stroke:#181818;stroke-width:0.45;"/></g></g></svg>





