<svg xmlns="http://www.w3.org/2000/svg" xmlns:xlink="http://www.w3.org/1999/xlink" contentStyleType="text/css" data-diagram-type="DESCRIPTION" height="441px" preserveAspectRatio="xMidYMid meet" style="width:3015px;height:441px;background:#FFFFFF;" version="1.1" viewBox="0 0 3215 470" width="3015px" zoomAndPan="magnify"><title>Endpoints - Admin</title><defs/><g><g class="title" data-source-line="1"><text fill="#000000" font-family="sans-serif" font-size="12.6" font-weight="bold" lengthAdjust="spacing" textLength="111.985" x="1545.5575" y="22.0799">Endpoints - Admin</text></g><!--cluster Admin - Perfil--><g class="cluster" data-entity="Admin - Perfil" data-source-line="8" data-uid="ent0002" id="cluster_Admin - Perfil"><path d="M1228.05,40.1625 L1322.557,40.1625 A3.375,3.375 0 0 1 1324.807,42.4125 L1331.107,63.675 L1767.15,63.675 A2.25,2.25 0 0 1 1769.4,65.925 L1769.4,199.0125 A2.25,2.25 0 0 1 1767.15,201.2625 L1228.05,201.2625 A2.25,2.25 0 0 1 1225.8,199.0125 L1225.8,42.4125 A2.25,2.25 0 0 1 1228.05,40.1625" fill="none" style="stroke:#000000;stroke-width:1.35;"/><line style="stroke:#000000;stroke-width:1.35;" x1="1225.8" x2="1331.107" y1="63.675" y2="63.675"/><text fill="#000000" font-family="sans-serif" font-size="14.4" font-weight="bold" lengthAdjust="spacing" textLength="93.607" x="1229.4" y="56.9109">Admin - Perfil</text></g><!--cluster Admin - Me Gusta--><g class="cluster" data-entity="Admin - Me Gusta" data-source-line="16" data-uid="ent0008" id="cluster_Admin - Me Gusta"><path d="M1793.25,40.1625 L1916.557,40.1625 A3.375,3.375 0 0 1 1918.807,42.4125 L1925.107,63.675 L2497.95,63.675 A2.25,2.25 0 0 1 2500.2,65.925 L2500.2,315.1125 A2.25,2.25 0 0 1 2497.95,317.3625 L1793.25,317.3625 A2.25,2.25 0 0 1 1791,315.1125 L1791,42.4125 A2.25,2.25 0 0 1 1793.25,40.1625" fill="none" style="stroke:#000000;stroke-width:1.35;"/><line style="stroke:#000000;stroke-width:1.35;" x1="1791" x2="1925.107" y1="63.675" y2="63.675"/><text fill="#000000" font-family="sans-serif" font-size="14.4" font-weight="bold" lengthAdjust="spacing" textLength="122.407" x="1794.6" y="56.9109">Admin - Me Gusta</text></g><!--cluster Admin - Favoritos--><g class="cluster" data-entity="Admin - Favoritos" data-source-line="26" data-uid="ent0016" id="cluster_Admin - Favoritos"><path d="M2524.05,40.1625 L2647.357,40.1625 A3.375,3.375 0 0 1 2649.607,42.4125 L2655.907,63.675 L3133.35,63.675 A2.25,2.25 0 0 1 3135.6,65.925 L3135.6,199.0125 A2.25,2.25 0 0 1 3133.35,201.2625 L2524.05,201.2625 A2.25,2.25 0 0 1 2521.8,199.0125 L2521.8,42.4125 A2.25,2.25 0 0 1 2524.05,40.1625" fill="none" style="stroke:#000000;stroke-width:1.35;"/><line style="stroke:#000000;stroke-width:1.35;" x1="2521.8" x2="2655.907" y1="63.675" y2="63.675"/><text fill="#000000" font-family="sans-serif" font-size="14.4" font-weight="bold" lengthAdjust="spacing" textLength="122.407" x="2525.4" y="56.9109">Admin - Favoritos</text></g><!--cluster Admin - Estrellas--><g class="cluster" data-entity="Admin - Estrellas" data-source-line="34" data-uid="ent0022" id="cluster_Admin - Estrellas"><path d="M1010.25,222.8625 L1128.7828,222.8625 A3.375,3.375 0 0 1 1131.0328,225.1125 L1137.3328,246.375 L1767.15,246.375 A2.25,2.25 0 0 1 1769.4,248.625 L1769.4,462.7125 A2.25,2.25 0 0 1 1767.15,464.9625 L1010.25,464.9625 A2.25,2.25 0 0 1 1008,462.7125 L1008,225.1125 A2.25,2.25 0 0 1 1010.25,222.8625" fill="none" style="stroke:#000000;stroke-width:1.35;"/><line style="stroke:#000000;stroke-width:1.35;" x1="1008" x2="1137.3328" y1="246.375" y2="246.375"/><text fill="#000000" font-family="sans-serif" font-size="14.4" font-weight="bold" lengthAdjust="spacing" textLength="117.6328" x="1011.6" y="239.6109">Admin - Estrellas</text></g><!--cluster Admin - Comentarios--><g class="cluster" data-entity="Admin - Comentarios" data-source-line="44" data-uid="ent0030" id="cluster_Admin - Comentarios"><path d="M2524.05,222.8625 L2670.5602,222.8625 A3.375,3.375 0 0 1 2672.8102,225.1125 L2679.1102,246.375 L3207.15,246.375 A2.25,2.25 0 0 1 3209.4,248.625 L3209.4,388.9125 A2.25,2.25 0 0 1 3207.15,391.1625 L2524.05,391.1625 A2.25,2.25 0 0 1 2521.8,388.9125 L2521.8,225.1125 A2.25,2.25 0 0 1 2524.05,222.8625" fill="none" style="stroke:#000000;stroke-width:1.35;"/><line style="stroke:#000000;stroke-width:1.35;" x1="2521.8" x2="2679.1102" y1="246.375" y2="246.375"/><text fill="#000000" font-family="sans-serif" font-size="14.4" font-weight="bold" lengthAdjust="spacing" textLength="145.6102" x="2525.4" y="239.6109">Admin - Comentarios</text></g><!--cluster Admin - Ingredientes--><g class="cluster" data-entity="Admin - Ingredientes" data-source-line="52" data-uid="ent0036" id="cluster_Admin - Ingredientes"><path d="M7.65,222.8625 L151.7625,222.8625 A3.375,3.375 0 0 1 154.0125,225.1125 L160.3125,246.375 L715.95,246.375 A2.25,2.25 0 0 1 718.2,248.625 L718.2,388.9125 A2.25,2.25 0 0 1 715.95,391.1625 L7.65,391.1625 A2.25,2.25 0 0 1 5.4,388.9125 L5.4,225.1125 A2.25,2.25 0 0 1 7.65,222.8625" fill="none" style="stroke:#000000;stroke-width:1.35;"/><line style="stroke:#000000;stroke-width:1.35;" x1="5.4" x2="160.3125" y1="246.375" y2="246.375"/><text fill="#000000" font-family="sans-serif" font-size="14.4" font-weight="bold" lengthAdjust="spacing" textLength="143.2125" x="9" y="239.6109">Admin - Ingredientes</text></g><!--entity GET /admin/perfil--><g class="entity" data-entity="GET .admin.perfil" data-source-line="9" data-uid="ent0003" id="entity_GET .admin.perfil"><rect fill="#F1F1F1" height="45.1125" rx="2.25" ry="2.25" style="stroke:#181818;stroke-width:0.45;" width="148.0359" x="1240.2" y="75.2625"/><rect fill="#F1F1F1" height="9" style="stroke:#181818;stroke-width:0.45;" width="13.5" x="1370.2359" y="79.7625"/><rect fill="#F1F1F1" height="1.8" style="stroke:#181818;stroke-width:0.45;" width="3.6" x="1368.4359" y="81.5625"/><rect fill="#F1F1F1" height="1.8" style="stroke:#181818;stroke-width:0.45;" width="3.6" x="1368.4359" y="85.1625"/><text fill="#000000" font-family="sans-serif" font-size="14.4" lengthAdjust="spacing" textLength="112.0359" x="1253.7" y="108.2109">GET /admin/perfil</text></g><!--entity POST /admin/perfil--><g class="entity" data-entity="POST .admin.perfil" data-source-line="10" data-uid="ent0004" id="entity_POST .admin.perfil"><rect fill="#F1F1F1" height="45.1125" rx="2.25" ry="2.25" style="stroke:#181818;stroke-width:0.45;" width="157.6406" x="1406.25" y="75.2625"/><rect fill="#F1F1F1" height="9" style="stroke:#181818;stroke-width:0.45;" width="13.5" x="1545.8906" y="79.7625"/><rect fill="#F1F1F1" height="1.8" style="stroke:#181818;stroke-width:0.45;" width="3.6" x="1544.0906" y="81.5625"/><rect fill="#F1F1F1" height="1.8" style="stroke:#181818;stroke-width:0.45;" width="3.6" x="1544.0906" y="85.1625"/><text fill="#000000" font-family="sans-serif" font-size="14.4" lengthAdjust="spacing" textLength="121.6406" x="1419.75" y="108.2109">POST /admin/perfil</text></g><!--entity GET /admin/perfil/{id}--><g class="entity" data-entity="GET .admin.perfil..id." data-source-line="11" data-uid="ent0005" id="entity_GET .admin.perfil..id."><rect fill="#F1F1F1" height="45.1125" rx="2.25" ry="2.25" style="stroke:#181818;stroke-width:0.45;" width="172.8633" x="1582.2" y="75.2625"/><rect fill="#F1F1F1" height="9" style="stroke:#181818;stroke-width:0.45;" width="13.5" x="1737.0633" y="79.7625"/><rect fill="#F1F1F1" height="1.8" style="stroke:#181818;stroke-width:0.45;" width="3.6" x="1735.2633" y="81.5625"/><rect fill="#F1F1F1" height="1.8" style="stroke:#181818;stroke-width:0.45;" width="3.6" x="1735.2633" y="85.1625"/><text fill="#000000" font-family="sans-serif" font-size="14.4" lengthAdjust="spacing" textLength="136.8633" x="1595.7" y="108.2109">GET /admin/perfil/{id}</text></g><!--entity PUT /admin/perfil/{id}--><g class="entity" data-entity="PUT .admin.perfil..id." data-source-line="12" data-uid="ent0006" id="entity_PUT .admin.perfil..id."><rect fill="#F1F1F1" height="45.1125" rx="2.25" ry="2.25" style="stroke:#181818;stroke-width:0.45;" width="172.0617" x="1240.65" y="141.8625"/><rect fill="#F1F1F1" height="9" style="stroke:#181818;stroke-width:0.45;" width="13.5" x="1394.7117" y="146.3625"/><rect fill="#F1F1F1" height="1.8" style="stroke:#181818;stroke-width:0.45;" width="3.6" x="1392.9117" y="148.1625"/><rect fill="#F1F1F1" height="1.8" style="stroke:#181818;stroke-width:0.45;" width="3.6" x="1392.9117" y="151.7625"/><text fill="#000000" font-family="sans-serif" font-size="14.4" lengthAdjust="spacing" textLength="136.0617" x="1254.15" y="174.8109">PUT /admin/perfil/{id}</text></g><!--entity DELETE /admin/perfil/{id}--><g class="entity" data-entity="DELETE .admin.perfil..id." data-source-line="13" data-uid="ent0007" id="entity_DELETE .admin.perfil..id."><rect fill="#F1F1F1" height="45.1125" rx="2.25" ry="2.25" style="stroke:#181818;stroke-width:0.45;" width="199.2797" x="1430.55" y="141.8625"/><rect fill="#F1F1F1" height="9" style="stroke:#181818;stroke-width:0.45;" width="13.5" x="1611.8297" y="146.3625"/><rect fill="#F1F1F1" height="1.8" style="stroke:#181818;stroke-width:0.45;" width="3.6" x="1610.0297" y="148.1625"/><rect fill="#F1F1F1" height="1.8" style="stroke:#181818;stroke-width:0.45;" width="3.6" x="1610.0297" y="151.7625"/><text fill="#000000" font-family="sans-serif" font-size="14.4" lengthAdjust="spacing" textLength="163.2797" x="1444.05" y="174.8109">DELETE /admin/perfil/{id}</text></g><!--entity GET /admin/megusta--><g class="entity" data-entity="GET .admin.megusta" data-source-line="17" data-uid="ent0009" id="entity_GET .admin.megusta"><rect fill="#F1F1F1" height="45.1125" rx="2.25" ry="2.25" style="stroke:#181818;stroke-width:0.45;" width="172.0547" x="1812.15" y="75.2625"/><rect fill="#F1F1F1" height="9" style="stroke:#181818;stroke-width:0.45;" width="13.5" x="1966.2047" y="79.7625"/><rect fill="#F1F1F1" height="1.8" style="stroke:#181818;stroke-width:0.45;" width="3.6" x="1964.4047" y="81.5625"/><rect fill="#F1F1F1" height="1.8" style="stroke:#181818;stroke-width:0.45;" width="3.6" x="1964.4047" y="85.1625"/><text fill="#000000" font-family="sans-serif" font-size="14.4" lengthAdjust="spacing" textLength="136.0547" x="1825.65" y="108.2109">GET /admin/megusta</text></g><!--entity POST /admin/megusta--><g class="entity" data-entity="POST .admin.megusta" data-source-line="18" data-uid="ent0010" id="entity_POST .admin.megusta"><rect fill="#F1F1F1" height="45.1125" rx="2.25" ry="2.25" style="stroke:#181818;stroke-width:0.45;" width="181.6594" x="2045.7" y="75.2625"/><rect fill="#F1F1F1" height="9" style="stroke:#181818;stroke-width:0.45;" width="13.5" x="2209.3594" y="79.7625"/><rect fill="#F1F1F1" height="1.8" style="stroke:#181818;stroke-width:0.45;" width="3.6" x="2207.5594" y="81.5625"/><rect fill="#F1F1F1" height="1.8" style="stroke:#181818;stroke-width:0.45;" width="3.6" x="2207.5594" y="85.1625"/><text fill="#000000" font-family="sans-serif" font-size="14.4" lengthAdjust="spacing" textLength="145.6594" x="2059.2" y="108.2109">POST /admin/megusta</text></g><!--entity GET /admin/megusta/{id}--><g class="entity" data-entity="GET .admin.megusta..id." data-source-line="19" data-uid="ent0011" id="entity_GET .admin.megusta..id."><rect fill="#F1F1F1" height="45.1125" rx="2.25" ry="2.25" style="stroke:#181818;stroke-width:0.45;" width="196.882" x="2288.25" y="75.2625"/><rect fill="#F1F1F1" height="9" style="stroke:#181818;stroke-width:0.45;" width="13.5" x="2467.132" y="79.7625"/><rect fill="#F1F1F1" height="1.8" style="stroke:#181818;stroke-width:0.45;" width="3.6" x="2465.332" y="81.5625"/><rect fill="#F1F1F1" height="1.8" style="stroke:#181818;stroke-width:0.45;" width="3.6" x="2465.332" y="85.1625"/><text fill="#000000" font-family="sans-serif" font-size="14.4" lengthAdjust="spacing" textLength="160.882" x="2301.75" y="108.2109">GET /admin/megusta/{id}</text></g><!--entity PUT /admin/megusta/{id}--><g class="entity" data-entity="PUT .admin.megusta..id." data-source-line="20" data-uid="ent0012" id="entity_PUT .admin.megusta..id."><rect fill="#F1F1F1" height="45.1125" rx="2.25" ry="2.25" style="stroke:#181818;stroke-width:0.45;" width="196.0805" x="1805.4" y="141.8625"/><rect fill="#F1F1F1" height="9" style="stroke:#181818;stroke-width:0.45;" width="13.5" x="1983.4805" y="146.3625"/><rect fill="#F1F1F1" height="1.8" style="stroke:#181818;stroke-width:0.45;" width="3.6" x="1981.6805" y="148.1625"/><rect fill="#F1F1F1" height="1.8" style="stroke:#181818;stroke-width:0.45;" width="3.6" x="1981.6805" y="151.7625"/><text fill="#000000" font-family="sans-serif" font-size="14.4" lengthAdjust="spacing" textLength="160.0805" x="1818.9" y="174.8109">PUT /admin/megusta/{id}</text></g><!--entity DELETE /admin/megusta/{id}--><g class="entity" data-entity="DELETE .admin.megusta..id." data-source-line="21" data-uid="ent0013" id="entity_DELETE .admin.megusta..id."><rect fill="#F1F1F1" height="45.1125" rx="2.25" ry="2.25" style="stroke:#181818;stroke-width:0.45;" width="223.2984" x="2019.6" y="141.8625"/><rect fill="#F1F1F1" height="9" style="stroke:#181818;stroke-width:0.45;" width="13.5" x="2224.8984" y="146.3625"/><rect fill="#F1F1F1" height="1.8" style="stroke:#181818;stroke-width:0.45;" width="3.6" x="2223.0984" y="148.1625"/><rect fill="#F1F1F1" height="1.8" style="stroke:#181818;stroke-width:0.45;" width="3.6" x="2223.0984" y="151.7625"/><text fill="#000000" font-family="sans-serif" font-size="14.4" lengthAdjust="spacing" textLength="187.2984" x="2033.1" y="174.8109">DELETE /admin/megusta/{id}</text></g><!--entity POST /admin/megusta/toggle--><g class="entity" data-entity="POST .admin.megusta.toggle" data-source-line="22" data-uid="ent0014" id="entity_POST .admin.megusta.toggle"><rect fill="#F1F1F1" height="45.1125" rx="2.25" ry="2.25" style="stroke:#181818;stroke-width:0.45;" width="224.8945" x="2260.8" y="141.8625"/><rect fill="#F1F1F1" height="9" style="stroke:#181818;stroke-width:0.45;" width="13.5" x="2467.6945" y="146.3625"/><rect fill="#F1F1F1" height="1.8" style="stroke:#181818;stroke-width:0.45;" width="3.6" x="2465.8945" y="148.1625"/><rect fill="#F1F1F1" height="1.8" style="stroke:#181818;stroke-width:0.45;" width="3.6" x="2465.8945" y="151.7625"/><text fill="#000000" font-family="sans-serif" font-size="14.4" lengthAdjust="spacing" textLength="188.8945" x="2274.3" y="174.8109">POST /admin/megusta/toggle</text></g><!--entity GET /admin/megusta/receta/{recetaId}/count--><g class="entity" data-entity="GET .admin.megusta.receta..recetaId..count" data-source-line="23" data-uid="ent0015" id="entity_GET .admin.megusta.receta..recetaId..count"><rect fill="#F1F1F1" height="45.1125" rx="2.25" ry="2.25" style="stroke:#181818;stroke-width:0.45;" width="320.9555" x="1805.85" y="257.9625"/><rect fill="#F1F1F1" height="9" style="stroke:#181818;stroke-width:0.45;" width="13.5" x="2108.8055" y="262.4625"/><rect fill="#F1F1F1" height="1.8" style="stroke:#181818;stroke-width:0.45;" width="3.6" x="2107.0055" y="264.2625"/><rect fill="#F1F1F1" height="1.8" style="stroke:#181818;stroke-width:0.45;" width="3.6" x="2107.0055" y="267.8625"/><text fill="#000000" font-family="sans-serif" font-size="14.4" lengthAdjust="spacing" textLength="284.9555" x="1819.35" y="290.9109">GET /admin/megusta/receta/{recetaId}/count</text></g><!--entity GET /admin/favoritos--><g class="entity" data-entity="GET .admin.favoritos" data-source-line="27" data-uid="ent0017" id="entity_GET .admin.favoritos"><rect fill="#F1F1F1" height="45.1125" rx="2.25" ry="2.25" style="stroke:#181818;stroke-width:0.45;" width="171.2461" x="2536.2" y="75.2625"/><rect fill="#F1F1F1" height="9" style="stroke:#181818;stroke-width:0.45;" width="13.5" x="2689.4461" y="79.7625"/><rect fill="#F1F1F1" height="1.8" style="stroke:#181818;stroke-width:0.45;" width="3.6" x="2687.6461" y="81.5625"/><rect fill="#F1F1F1" height="1.8" style="stroke:#181818;stroke-width:0.45;" width="3.6" x="2687.6461" y="85.1625"/><text fill="#000000" font-family="sans-serif" font-size="14.4" lengthAdjust="spacing" textLength="135.2461" x="2549.7" y="108.2109">GET /admin/favoritos</text></g><!--entity POST /admin/favoritos--><g class="entity" data-entity="POST .admin.favoritos" data-source-line="28" data-uid="ent0018" id="entity_POST .admin.favoritos"><rect fill="#F1F1F1" height="45.1125" rx="2.25" ry="2.25" style="stroke:#181818;stroke-width:0.45;" width="180.8508" x="2725.65" y="75.2625"/><rect fill="#F1F1F1" height="9" style="stroke:#181818;stroke-width:0.45;" width="13.5" x="2888.5008" y="79.7625"/><rect fill="#F1F1F1" height="1.8" style="stroke:#181818;stroke-width:0.45;" width="3.6" x="2886.7008" y="81.5625"/><rect fill="#F1F1F1" height="1.8" style="stroke:#181818;stroke-width:0.45;" width="3.6" x="2886.7008" y="85.1625"/><text fill="#000000" font-family="sans-serif" font-size="14.4" lengthAdjust="spacing" textLength="144.8508" x="2739.15" y="108.2109">POST /admin/favoritos</text></g><!--entity GET /admin/favoritos/{id}--><g class="entity" data-entity="GET .admin.favoritos..id." data-source-line="29" data-uid="ent0019" id="entity_GET .admin.favoritos..id."><rect fill="#F1F1F1" height="45.1125" rx="2.25" ry="2.25" style="stroke:#181818;stroke-width:0.45;" width="196.0734" x="2925" y="75.2625"/><rect fill="#F1F1F1" height="9" style="stroke:#181818;stroke-width:0.45;" width="13.5" x="3103.0734" y="79.7625"/><rect fill="#F1F1F1" height="1.8" style="stroke:#181818;stroke-width:0.45;" width="3.6" x="3101.2734" y="81.5625"/><rect fill="#F1F1F1" height="1.8" style="stroke:#181818;stroke-width:0.45;" width="3.6" x="3101.2734" y="85.1625"/><text fill="#000000" font-family="sans-serif" font-size="14.4" lengthAdjust="spacing" textLength="160.0734" x="2938.5" y="108.2109">GET /admin/favoritos/{id}</text></g><!--entity PUT /admin/favoritos/{id}--><g class="entity" data-entity="PUT .admin.favoritos..id." data-source-line="30" data-uid="ent0020" id="entity_PUT .admin.favoritos..id."><rect fill="#F1F1F1" height="45.1125" rx="2.25" ry="2.25" style="stroke:#181818;stroke-width:0.45;" width="195.2719" x="2536.65" y="141.8625"/><rect fill="#F1F1F1" height="9" style="stroke:#181818;stroke-width:0.45;" width="13.5" x="2713.9219" y="146.3625"/><rect fill="#F1F1F1" height="1.8" style="stroke:#181818;stroke-width:0.45;" width="3.6" x="2712.1219" y="148.1625"/><rect fill="#F1F1F1" height="1.8" style="stroke:#181818;stroke-width:0.45;" width="3.6" x="2712.1219" y="151.7625"/><text fill="#000000" font-family="sans-serif" font-size="14.4" lengthAdjust="spacing" textLength="159.2719" x="2550.15" y="174.8109">PUT /admin/favoritos/{id}</text></g><!--entity DELETE /admin/favoritos/{id}--><g class="entity" data-entity="DELETE .admin.favoritos..id." data-source-line="31" data-uid="ent0021" id="entity_DELETE .admin.favoritos..id."><rect fill="#F1F1F1" height="45.1125" rx="2.25" ry="2.25" style="stroke:#181818;stroke-width:0.45;" width="222.4898" x="2749.95" y="141.8625"/><rect fill="#F1F1F1" height="9" style="stroke:#181818;stroke-width:0.45;" width="13.5" x="2954.4398" y="146.3625"/><rect fill="#F1F1F1" height="1.8" style="stroke:#181818;stroke-width:0.45;" width="3.6" x="2952.6398" y="148.1625"/><rect fill="#F1F1F1" height="1.8" style="stroke:#181818;stroke-width:0.45;" width="3.6" x="2952.6398" y="151.7625"/><text fill="#000000" font-family="sans-serif" font-size="14.4" lengthAdjust="spacing" textLength="186.4898" x="2763.45" y="174.8109">DELETE /admin/favoritos/{id}</text></g><!--entity GET /admin/estrellas--><g class="entity" data-entity="GET .admin.estrellas" data-source-line="35" data-uid="ent0023" id="entity_GET .admin.estrellas"><rect fill="#F1F1F1" height="45.1125" rx="2.25" ry="2.25" style="stroke:#181818;stroke-width:0.45;" width="170.4445" x="1172.25" y="257.9625"/><rect fill="#F1F1F1" height="9" style="stroke:#181818;stroke-width:0.45;" width="13.5" x="1324.6945" y="262.4625"/><rect fill="#F1F1F1" height="1.8" style="stroke:#181818;stroke-width:0.45;" width="3.6" x="1322.8945" y="264.2625"/><rect fill="#F1F1F1" height="1.8" style="stroke:#181818;stroke-width:0.45;" width="3.6" x="1322.8945" y="267.8625"/><text fill="#000000" font-family="sans-serif" font-size="14.4" lengthAdjust="spacing" textLength="134.4445" x="1185.75" y="290.9109">GET /admin/estrellas</text></g><!--entity POST /admin/estrellas--><g class="entity" data-entity="POST .admin.estrellas" data-source-line="36" data-uid="ent0024" id="entity_POST .admin.estrellas"><rect fill="#F1F1F1" height="45.1125" rx="2.25" ry="2.25" style="stroke:#181818;stroke-width:0.45;" width="180.0492" x="1360.8" y="257.9625"/><rect fill="#F1F1F1" height="9" style="stroke:#181818;stroke-width:0.45;" width="13.5" x="1522.8492" y="262.4625"/><rect fill="#F1F1F1" height="1.8" style="stroke:#181818;stroke-width:0.45;" width="3.6" x="1521.0492" y="264.2625"/><rect fill="#F1F1F1" height="1.8" style="stroke:#181818;stroke-width:0.45;" width="3.6" x="1521.0492" y="267.8625"/><text fill="#000000" font-family="sans-serif" font-size="14.4" lengthAdjust="spacing" textLength="144.0492" x="1374.3" y="290.9109">POST /admin/estrellas</text></g><!--entity GET /admin/estrellas/{id}--><g class="entity" data-entity="GET .admin.estrellas..id." data-source-line="37" data-uid="ent0025" id="entity_GET .admin.estrellas..id."><rect fill="#F1F1F1" height="45.1125" rx="2.25" ry="2.25" style="stroke:#181818;stroke-width:0.45;" width="195.2719" x="1559.25" y="257.9625"/><rect fill="#F1F1F1" height="9" style="stroke:#181818;stroke-width:0.45;" width="13.5" x="1736.5219" y="262.4625"/><rect fill="#F1F1F1" height="1.8" style="stroke:#181818;stroke-width:0.45;" width="3.6" x="1734.7219" y="264.2625"/><rect fill="#F1F1F1" height="1.8" style="stroke:#181818;stroke-width:0.45;" width="3.6" x="1734.7219" y="267.8625"/><text fill="#000000" font-family="sans-serif" font-size="14.4" lengthAdjust="spacing" textLength="159.2719" x="1572.75" y="290.9109">GET /admin/estrellas/{id}</text></g><!--entity PUT /admin/estrellas/{id}--><g class="entity" data-entity="PUT .admin.estrellas..id." data-source-line="38" data-uid="ent0026" id="entity_PUT .admin.estrellas..id."><rect fill="#F1F1F1" height="45.1125" rx="2.25" ry="2.25" style="stroke:#181818;stroke-width:0.45;" width="194.4703" x="1022.4" y="331.7625"/><rect fill="#F1F1F1" height="9" style="stroke:#181818;stroke-width:0.45;" width="13.5" x="1198.8703" y="336.2625"/><rect fill="#F1F1F1" height="1.8" style="stroke:#181818;stroke-width:0.45;" width="3.6" x="1197.0703" y="338.0625"/><rect fill="#F1F1F1" height="1.8" style="stroke:#181818;stroke-width:0.45;" width="3.6" x="1197.0703" y="341.6625"/><text fill="#000000" font-family="sans-serif" font-size="14.4" lengthAdjust="spacing" textLength="158.4703" x="1035.9" y="364.7109">PUT /admin/estrellas/{id}</text></g><!--entity DELETE /admin/estrellas/{id}--><g class="entity" data-entity="DELETE .admin.estrellas..id." data-source-line="39" data-uid="ent0027" id="entity_DELETE .admin.estrellas..id."><rect fill="#F1F1F1" height="45.1125" rx="2.25" ry="2.25" style="stroke:#181818;stroke-width:0.45;" width="221.6883" x="1234.8" y="331.7625"/><rect fill="#F1F1F1" height="9" style="stroke:#181818;stroke-width:0.45;" width="13.5" x="1438.4883" y="336.2625"/><rect fill="#F1F1F1" height="1.8" style="stroke:#181818;stroke-width:0.45;" width="3.6" x="1436.6883" y="338.0625"/><rect fill="#F1F1F1" height="1.8" style="stroke:#181818;stroke-width:0.45;" width="3.6" x="1436.6883" y="341.6625"/><text fill="#000000" font-family="sans-serif" font-size="14.4" lengthAdjust="spacing" textLength="185.6883" x="1248.3" y="364.7109">DELETE /admin/estrellas/{id}</text></g><!--entity GET /admin/estrellas/receta/{recetaId}--><g class="entity" data-entity="GET .admin.estrellas.receta..recetaId." data-source-line="40" data-uid="ent0028" id="entity_GET .admin.estrellas.receta..recetaId."><rect fill="#F1F1F1" height="45.1125" rx="2.25" ry="2.25" style="stroke:#181818;stroke-width:0.45;" width="280.118" x="1474.65" y="331.7625"/><rect fill="#F1F1F1" height="9" style="stroke:#181818;stroke-width:0.45;" width="13.5" x="1736.768" y="336.2625"/><rect fill="#F1F1F1" height="1.8" style="stroke:#181818;stroke-width:0.45;" width="3.6" x="1734.968" y="338.0625"/><rect fill="#F1F1F1" height="1.8" style="stroke:#181818;stroke-width:0.45;" width="3.6" x="1734.968" y="341.6625"/><text fill="#000000" font-family="sans-serif" font-size="14.4" lengthAdjust="spacing" textLength="244.118" x="1488.15" y="364.7109">GET /admin/estrellas/receta/{recetaId}</text></g><!--entity GET /admin/estrellas/receta/{recetaId}/promedio--><g class="entity" data-entity="GET .admin.estrellas.receta..recetaId..promedio" data-source-line="41" data-uid="ent0029" id="entity_GET .admin.estrellas.receta..recetaId..promedio"><rect fill="#F1F1F1" height="45.1125" rx="2.25" ry="2.25" style="stroke:#181818;stroke-width:0.45;" width="344.1516" x="1022.4" y="405.5625"/><rect fill="#F1F1F1" height="9" style="stroke:#181818;stroke-width:0.45;" width="13.5" x="1348.5516" y="410.0625"/><rect fill="#F1F1F1" height="1.8" style="stroke:#181818;stroke-width:0.45;" width="3.6" x="1346.7516" y="411.8625"/><rect fill="#F1F1F1" height="1.8" style="stroke:#181818;stroke-width:0.45;" width="3.6" x="1346.7516" y="415.4625"/><text fill="#000000" font-family="sans-serif" font-size="14.4" lengthAdjust="spacing" textLength="308.1516" x="1035.9" y="438.5109">GET /admin/estrellas/receta/{recetaId}/promedio</text></g><!--entity GET /admin/comentarios--><g class="entity" data-entity="GET .admin.comentarios" data-source-line="45" data-uid="ent0031" id="entity_GET .admin.comentarios"><rect fill="#F1F1F1" height="45.1125" rx="2.25" ry="2.25" style="stroke:#181818;stroke-width:0.45;" width="195.2578" x="2536.65" y="257.9625"/><rect fill="#F1F1F1" height="9" style="stroke:#181818;stroke-width:0.45;" width="13.5" x="2713.9078" y="262.4625"/><rect fill="#F1F1F1" height="1.8" style="stroke:#181818;stroke-width:0.45;" width="3.6" x="2712.1078" y="264.2625"/><rect fill="#F1F1F1" height="1.8" style="stroke:#181818;stroke-width:0.45;" width="3.6" x="2712.1078" y="267.8625"/><text fill="#000000" font-family="sans-serif" font-size="14.4" lengthAdjust="spacing" textLength="159.2578" x="2550.15" y="290.9109">GET /admin/comentarios</text></g><!--entity POST /admin/comentarios--><g class="entity" data-entity="POST .admin.comentarios" data-source-line="46" data-uid="ent0032" id="entity_POST .admin.comentarios"><rect fill="#F1F1F1" height="45.1125" rx="2.25" ry="2.25" style="stroke:#181818;stroke-width:0.45;" width="204.8625" x="2750.4" y="257.9625"/><rect fill="#F1F1F1" height="9" style="stroke:#181818;stroke-width:0.45;" width="13.5" x="2937.2625" y="262.4625"/><rect fill="#F1F1F1" height="1.8" style="stroke:#181818;stroke-width:0.45;" width="3.6" x="2935.4625" y="264.2625"/><rect fill="#F1F1F1" height="1.8" style="stroke:#181818;stroke-width:0.45;" width="3.6" x="2935.4625" y="267.8625"/><text fill="#000000" font-family="sans-serif" font-size="14.4" lengthAdjust="spacing" textLength="168.8625" x="2763.9" y="290.9109">POST /admin/comentarios</text></g><!--entity GET /admin/comentarios/{id}--><g class="entity" data-entity="GET .admin.comentarios..id." data-source-line="47" data-uid="ent0033" id="entity_GET .admin.comentarios..id."><rect fill="#F1F1F1" height="45.1125" rx="2.25" ry="2.25" style="stroke:#181818;stroke-width:0.45;" width="220.0852" x="2974.05" y="257.9625"/><rect fill="#F1F1F1" height="9" style="stroke:#181818;stroke-width:0.45;" width="13.5" x="3176.1352" y="262.4625"/><rect fill="#F1F1F1" height="1.8" style="stroke:#181818;stroke-width:0.45;" width="3.6" x="3174.3352" y="264.2625"/><rect fill="#F1F1F1" height="1.8" style="stroke:#181818;stroke-width:0.45;" width="3.6" x="3174.3352" y="267.8625"/><text fill="#000000" font-family="sans-serif" font-size="14.4" lengthAdjust="spacing" textLength="184.0852" x="2987.55" y="290.9109">GET /admin/comentarios/{id}</text></g><!--entity PUT /admin/comentarios/{id}--><g class="entity" data-entity="PUT .admin.comentarios..id." data-source-line="48" data-uid="ent0034" id="entity_PUT .admin.comentarios..id."><rect fill="#F1F1F1" height="45.1125" rx="2.25" ry="2.25" style="stroke:#181818;stroke-width:0.45;" width="219.2836" x="2536.2" y="331.7625"/><rect fill="#F1F1F1" height="9" style="stroke:#181818;stroke-width:0.45;" width="13.5" x="2737.4836" y="336.2625"/><rect fill="#F1F1F1" height="1.8" style="stroke:#181818;stroke-width:0.45;" width="3.6" x="2735.6836" y="338.0625"/><rect fill="#F1F1F1" height="1.8" style="stroke:#181818;stroke-width:0.45;" width="3.6" x="2735.6836" y="341.6625"/><text fill="#000000" font-family="sans-serif" font-size="14.4" lengthAdjust="spacing" textLength="183.2836" x="2549.7" y="364.7109">PUT /admin/comentarios/{id}</text></g><!--entity DELETE /admin/comentarios/{id}--><g class="entity" data-entity="DELETE .admin.comentarios..id." data-source-line="49" data-uid="ent0035" id="entity_DELETE .admin.comentarios..id."><rect fill="#F1F1F1" height="45.1125" rx="2.25" ry="2.25" style="stroke:#181818;stroke-width:0.45;" width="246.5016" x="2773.8" y="331.7625"/><rect fill="#F1F1F1" height="9" style="stroke:#181818;stroke-width:0.45;" width="13.5" x="3002.3016" y="336.2625"/><rect fill="#F1F1F1" height="1.8" style="stroke:#181818;stroke-width:0.45;" width="3.6" x="3000.5016" y="338.0625"/><rect fill="#F1F1F1" height="1.8" style="stroke:#181818;stroke-width:0.45;" width="3.6" x="3000.5016" y="341.6625"/><text fill="#000000" font-family="sans-serif" font-size="14.4" lengthAdjust="spacing" textLength="210.5016" x="2787.3" y="364.7109">DELETE /admin/comentarios/{id}</text></g><!--entity GET /admin/ingredientes--><g class="entity" data-entity="GET .admin.ingredientes" data-source-line="53" data-uid="ent0037" id="entity_GET .admin.ingredientes"><rect fill="#F1F1F1" height="45.1125" rx="2.25" ry="2.25" style="stroke:#181818;stroke-width:0.45;" width="195.2789" x="20.25" y="257.9625"/><rect fill="#F1F1F1" height="9" style="stroke:#181818;stroke-width:0.45;" width="13.5" x="197.5289" y="262.4625"/><rect fill="#F1F1F1" height="1.8" style="stroke:#181818;stroke-width:0.45;" width="3.6" x="195.7289" y="264.2625"/><rect fill="#F1F1F1" height="1.8" style="stroke:#181818;stroke-width:0.45;" width="3.6" x="195.7289" y="267.8625"/><text fill="#000000" font-family="sans-serif" font-size="14.4" lengthAdjust="spacing" textLength="159.2789" x="33.75" y="290.9109">GET /admin/ingredientes</text></g><!--entity POST /admin/ingredientes--><g class="entity" data-entity="POST .admin.ingredientes" data-source-line="54" data-uid="ent0038" id="entity_POST .admin.ingredientes"><rect fill="#F1F1F1" height="45.1125" rx="2.25" ry="2.25" style="stroke:#181818;stroke-width:0.45;" width="204.8836" x="234" y="257.9625"/><rect fill="#F1F1F1" height="9" style="stroke:#181818;stroke-width:0.45;" width="13.5" x="420.8836" y="262.4625"/><rect fill="#F1F1F1" height="1.8" style="stroke:#181818;stroke-width:0.45;" width="3.6" x="419.0836" y="264.2625"/><rect fill="#F1F1F1" height="1.8" style="stroke:#181818;stroke-width:0.45;" width="3.6" x="419.0836" y="267.8625"/><text fill="#000000" font-family="sans-serif" font-size="14.4" lengthAdjust="spacing" textLength="168.8836" x="247.5" y="290.9109">POST /admin/ingredientes</text></g><!--entity GET /admin/ingredientes/{id}--><g class="entity" data-entity="GET .admin.ingredientes..id." data-source-line="55" data-uid="ent0039" id="entity_GET .admin.ingredientes..id."><rect fill="#F1F1F1" height="45.1125" rx="2.25" ry="2.25" style="stroke:#181818;stroke-width:0.45;" width="220.1063" x="20.25" y="331.7625"/><rect fill="#F1F1F1" height="9" style="stroke:#181818;stroke-width:0.45;" width="13.5" x="222.3563" y="336.2625"/><rect fill="#F1F1F1" height="1.8" style="stroke:#181818;stroke-width:0.45;" width="3.6" x="220.5563" y="338.0625"/><rect fill="#F1F1F1" height="1.8" style="stroke:#181818;stroke-width:0.45;" width="3.6" x="220.5563" y="341.6625"/><text fill="#000000" font-family="sans-serif" font-size="14.4" lengthAdjust="spacing" textLength="184.1063" x="33.75" y="364.7109">GET /admin/ingredientes/{id}</text></g><!--entity PUT /admin/ingredientes/{id}--><g class="entity" data-entity="PUT .admin.ingredientes..id." data-source-line="56" data-uid="ent0040" id="entity_PUT .admin.ingredientes..id."><rect fill="#F1F1F1" height="45.1125" rx="2.25" ry="2.25" style="stroke:#181818;stroke-width:0.45;" width="219.3047" x="259.2" y="331.7625"/><rect fill="#F1F1F1" height="9" style="stroke:#181818;stroke-width:0.45;" width="13.5" x="460.5047" y="336.2625"/><rect fill="#F1F1F1" height="1.8" style="stroke:#181818;stroke-width:0.45;" width="3.6" x="458.7047" y="338.0625"/><rect fill="#F1F1F1" height="1.8" style="stroke:#181818;stroke-width:0.45;" width="3.6" x="458.7047" y="341.6625"/><text fill="#000000" font-family="sans-serif" font-size="14.4" lengthAdjust="spacing" textLength="183.3047" x="272.7" y="364.7109">PUT /admin/ingredientes/{id}</text></g><!--entity DELETE /admin/ingredientes/{id}--><g class="entity" data-entity="DELETE .admin.ingredientes..id." data-source-line="57" data-uid="ent0041" id="entity_DELETE .admin.ingredientes..id."><rect fill="#F1F1F1" height="45.1125" rx="2.25" ry="2.25" style="stroke:#181818;stroke-width:0.45;" width="246.5227" x="457.2" y="257.9625"/><rect fill="#F1F1F1" height="9" style="stroke:#181818;stroke-width:0.45;" width="13.5" x="685.7227" y="262.4625"/><rect fill="#F1F1F1" height="1.8" style="stroke:#181818;stroke-width:0.45;" width="3.6" x="683.9227" y="264.2625"/><rect fill="#F1F1F1" height="1.8" style="stroke:#181818;stroke-width:0.45;" width="3.6" x="683.9227" y="267.8625"/><text fill="#000000" font-family="sans-serif" font-size="14.4" lengthAdjust="spacing" textLength="210.5227" x="470.7" y="290.9109">DELETE /admin/ingredientes/{id}</text></g><g class="entity" data-entity="GMN42" data-source-line="61" data-uid="ent0043" id="entity_GMN42"><path d="M733.05,266.9625 L733.05,276.8625 L703.863,280.4625 L733.05,284.0625 L733.05,294.075 A0,0 0 0 0 733.05,294.075 L992.9109,294.075 A0,0 0 0 0 992.9109,294.075 L992.9109,275.9625 L983.9109,266.9625 L733.05,266.9625 A0,0 0 0 0 733.05,266.9625" fill="#FAFAFA" style="stroke:#181818;stroke-width:0.45;"/><path d="M983.9109,266.9625 L983.9109,275.9625 L992.9109,275.9625 L983.9109,266.9625" fill="#FAFAFA" style="stroke:#181818;stroke-width:0.45;"/></g></g></svg>





