<svg xmlns="http://www.w3.org/2000/svg" xmlns:xlink="http://www.w3.org/1999/xlink" contentStyleType="text/css" data-diagram-type="DESCRIPTION" height="187.875px" preserveAspectRatio="none" style="width:712px;height:187px;background:#FFFFFF;" version="1.1" viewBox="0 0 1112 187" width="1112.625px" zoomAndPan="magnify"><title>Endpoints - Donaciones</title><defs/><g><g class="title" data-source-line="1"><text fill="#000000" font-family="sans-serif" font-size="15.75" font-weight="bold" lengthAdjust="spacing" textLength="180.256" x="458.6852" y="27.5999">Endpoints - Donaciones</text></g><!--cluster Donaciones--><g class="cluster" data-entity="Donaciones" data-source-line="8" data-uid="ent0002" id="cluster_Donaciones"><path d="M9.5625,51.1919 L138.2168,51.1919 A4.2188,4.2188 0 0 1 141.0293,54.0044 L148.9043,86.2427 L684.5625,86.2427 A2.8125,2.8125 0 0 1 687.375,89.0552 L687.375,177.7544 A2.8125,2.8125 0 0 1 684.5625,180.5669 L9.5625,180.5669 A2.8125,2.8125 0 0 1 6.75,177.7544 L6.75,54.0044 A2.8125,2.8125 0 0 1 9.5625,51.1919" fill="none" style="stroke:#000000;stroke-width:1.6875;"/><line style="stroke:#000000;stroke-width:1.6875;" x1="6.75" x2="148.9043" y1="86.2427" y2="86.2427"/><text fill="#000000" font-family="sans-serif" font-size="22.5" font-weight="bold" lengthAdjust="spacing" textLength="127.5293" x="11.25" y="76.7988">Donaciones</text></g><!--entity POST /recetas/donaciones--><g class="entity" data-entity="POST .recetas.donaciones" data-source-line="9" data-uid="ent0003" id="entity_POST .recetas.donaciones"><rect fill="#F1F1F1" height="62.0508" rx="2.8125" ry="2.8125" style="stroke:#181818;stroke-width:0.5625;" width="313.8904" x="25.3125" y="100.6919"/><rect fill="#F1F1F1" height="11.25" style="stroke:#181818;stroke-width:0.5625;" width="16.875" x="316.7029" y="106.3169"/><rect fill="#F1F1F1" height="2.25" style="stroke:#181818;stroke-width:0.5625;" width="4.5" x="314.4529" y="108.5669"/><rect fill="#F1F1F1" height="2.25" style="stroke:#181818;stroke-width:0.5625;" width="4.5" x="314.4529" y="113.0669"/><text fill="#000000" font-family="sans-serif" font-size="22.5" lengthAdjust="spacing" textLength="268.8904" x="42.1875" y="146.5488">POST /recetas/donaciones</text></g><!--entity POST /admin/donaciones--><g class="entity" data-entity="POST .admin.donaciones" data-source-line="10" data-uid="ent0004" id="entity_POST .admin.donaciones"><rect fill="#F1F1F1" height="62.0508" rx="2.8125" ry="2.8125" style="stroke:#181818;stroke-width:0.5625;" width="301.3879" x="367.875" y="100.6919"/><rect fill="#F1F1F1" height="11.25" style="stroke:#181818;stroke-width:0.5625;" width="16.875" x="646.7629" y="106.3169"/><rect fill="#F1F1F1" height="2.25" style="stroke:#181818;stroke-width:0.5625;" width="4.5" x="644.5129" y="108.5669"/><rect fill="#F1F1F1" height="2.25" style="stroke:#181818;stroke-width:0.5625;" width="4.5" x="644.5129" y="113.0669"/><text fill="#000000" font-family="sans-serif" font-size="22.5" lengthAdjust="spacing" textLength="256.3879" x="384.75" y="146.5488">POST /admin/donaciones</text></g><g class="entity" data-entity="GMN5" data-source-line="14" data-uid="ent0006" id="entity_GMN5"><path d="M705.375,111.9419 L705.375,127.1294 L669.42,131.6294 L705.375,136.1294 L705.375,151.4927 A0,0 0 0 0 705.375,151.4927 L1105.5015,151.4927 A0,0 0 0 0 1105.5015,151.4927 L1105.5015,123.1919 L1094.2515,111.9419 L705.375,111.9419 A0,0 0 0 0 705.375,111.9419" fill="#FAFAFA" style="stroke:#181818;stroke-width:0.5625;"/><path d="M1094.2515,111.9419 L1094.2515,123.1919 L1105.5015,123.1919 L1094.2515,111.9419" fill="#FAFAFA" style="stroke:#181818;stroke-width:0.5625;"/></g></g></svg>

