<svg xmlns="http://www.w3.org/2000/svg" xmlns:xlink="http://www.w3.org/1999/xlink" contentStyleType="text/css" data-diagram-type="DESCRIPTION" height="187.875px" preserveAspectRatio="none" style="width:140px;height:187px;background:#FFFFFF;" version="1.1" viewBox="0 0 540 187" width="340px" zoomAndPan="magnify"><title>Endpoints - Autenticaci&#243;n</title><defs/><g><g class="title" data-source-line="1"><text fill="#000000" font-family="sans-serif" font-size="15.75" font-weight="bold" lengthAdjust="spacing" textLength="195.1216" x="164.5642" y="27.5999">Endpoints - Autenticaci&#243;n</text></g><!--cluster Autenticaci?n--><g class="cluster" data-entity="Autenticaci.n" data-source-line="8" data-uid="ent0002" id="cluster_Autenticaci.n"><path d="M9.5625,51.1919 L159.4534,51.1919 A4.2188,4.2188 0 0 1 162.2659,54.0044 L170.1409,86.2427 L529.3125,86.2427 A2.8125,2.8125 0 0 1 532.125,89.0552 L532.125,177.7544 A2.8125,2.8125 0 0 1 529.3125,180.5669 L9.5625,180.5669 A2.8125,2.8125 0 0 1 6.75,177.7544 L6.75,54.0044 A2.8125,2.8125 0 0 1 9.5625,51.1919" fill="none" style="stroke:#000000;stroke-width:1.6875;"/><line style="stroke:#000000;stroke-width:1.6875;" x1="6.75" x2="170.1409" y1="86.2427" y2="86.2427"/><text fill="#000000" font-family="sans-serif" font-size="22.5" font-weight="bold" lengthAdjust="spacing" textLength="148.7659" x="11.25" y="76.7988">Autenticaci&#243;n</text></g><!--entity POST /auth/register--><g class="entity" data-entity="POST .auth.register" data-source-line="9" data-uid="ent0003" id="entity_POST .auth.register"><rect fill="#F1F1F1" height="62.0508" rx="2.8125" ry="2.8125" style="stroke:#181818;stroke-width:0.5625;" width="243.8306" x="269.4375" y="100.6919"/><rect fill="#F1F1F1" height="11.25" style="stroke:#181818;stroke-width:0.5625;" width="16.875" x="490.7681" y="106.3169"/><rect fill="#F1F1F1" height="2.25" style="stroke:#181818;stroke-width:0.5625;" width="4.5" x="488.5181" y="108.5669"/><rect fill="#F1F1F1" height="2.25" style="stroke:#181818;stroke-width:0.5625;" width="4.5" x="488.5181" y="113.0669"/><text fill="#000000" font-family="sans-serif" font-size="22.5" lengthAdjust="spacing" textLength="198.8306" x="286.3125" y="146.5488">POST /auth/register</text></g><!--entity POST /auth/login--><g class="entity" data-entity="POST .auth.login" data-source-line="10" data-uid="ent0004" id="entity_POST .auth.login"><rect fill="#F1F1F1" height="62.0508" rx="2.8125" ry="2.8125" style="stroke:#181818;stroke-width:0.5625;" width="216.3428" x="24.75" y="100.6919"/><rect fill="#F1F1F1" height="11.25" style="stroke:#181818;stroke-width:0.5625;" width="16.875" x="218.5928" y="106.3169"/><rect fill="#F1F1F1" height="2.25" style="stroke:#181818;stroke-width:0.5625;" width="4.5" x="216.3428" y="108.5669"/><rect fill="#F1F1F1" height="2.25" style="stroke:#181818;stroke-width:0.5625;" width="4.5" x="216.3428" y="113.0669"/><text fill="#000000" font-family="sans-serif" font-size="22.5" lengthAdjust="spacing" textLength="171.3428" x="41.625" y="146.5488">POST /auth/login</text></g></g></svg>

