<svg xmlns="http://www.w3.org/2000/svg" xmlns:xlink="http://www.w3.org/1999/xlink" contentStyleType="text/css" data-diagram-type="DESCRIPTION" height="664.7px" preserveAspectRatio="none" style="width:325px;height:664px;background:#FFFFFF;" version="1.1" viewBox="0 0 725 664" width="725.65px" zoomAndPan="magnify"><title>Endpoints - Pa&#237;ses y Categor&#237;as</title><defs/><g><g class="title" data-source-line="1"><text fill="#000000" font-family="sans-serif" font-size="16.1" font-weight="bold" lengthAdjust="spacing" textLength="245.1477" x="232.2012" y="28.2132">Endpoints - Pa&#237;ses y Categor&#237;as</text></g><!--cluster Pa?ses--><g class="cluster" data-entity="Pa.ses" data-source-line="9" data-uid="ent0002" id="cluster_Pa.ses"><path d="M50.6,378.9295 L124.647,378.9295 A4.3125,4.3125 0 0 1 127.522,381.8045 L135.572,414.7592 L714.725,414.7592 A2.875,2.875 0 0 1 717.6,417.6342 L717.6,654.3545 A2.875,2.875 0 0 1 714.725,657.2295 L50.6,657.2295 A2.875,2.875 0 0 1 47.725,654.3545 L47.725,381.8045 A2.875,2.875 0 0 1 50.6,378.9295" fill="none" style="stroke:#000000;stroke-width:1.725;"/><line style="stroke:#000000;stroke-width:1.725;" x1="47.725" x2="135.572" y1="414.7592" y2="414.7592"/><text fill="#000000" font-family="sans-serif" font-size="23" font-weight="bold" lengthAdjust="spacing" textLength="72.897" x="52.325" y="405.1055">Pa&#237;ses</text></g><!--cluster Categor?as--><g class="cluster" data-entity="Categor.as" data-source-line="18" data-uid="ent0009" id="cluster_Categor.as"><path d="M9.775,52.3295 L129.7995,52.3295 A4.3125,4.3125 0 0 1 132.6745,55.2045 L140.7245,88.1592 L662.4,88.1592 A2.875,2.875 0 0 1 665.275,91.0342 L665.275,327.7545 A2.875,2.875 0 0 1 662.4,330.6295 L9.775,330.6295 A2.875,2.875 0 0 1 6.9,327.7545 L6.9,55.2045 A2.875,2.875 0 0 1 9.775,52.3295" fill="none" style="stroke:#000000;stroke-width:1.725;"/><line style="stroke:#000000;stroke-width:1.725;" x1="6.9" x2="140.7245" y1="88.1592" y2="88.1592"/><text fill="#000000" font-family="sans-serif" font-size="23" font-weight="bold" lengthAdjust="spacing" textLength="118.8745" x="11.5" y="78.5055">Categor&#237;as</text></g><!--entity GET /paises--><g class="entity" data-entity="GET .paises" data-source-line="10" data-uid="ent0003" id="entity_GET .paises"><rect fill="#F1F1F1" height="63.4297" rx="2.875" ry="2.875" style="stroke:#181818;stroke-width:0.575;" width="172.5449" x="86.25" y="575.0045"/><rect fill="#F1F1F1" height="11.5" style="stroke:#181818;stroke-width:0.575;" width="17.25" x="235.7949" y="580.7545"/><rect fill="#F1F1F1" height="2.3" style="stroke:#181818;stroke-width:0.575;" width="4.6" x="233.4949" y="583.0545"/><rect fill="#F1F1F1" height="2.3" style="stroke:#181818;stroke-width:0.575;" width="4.6" x="233.4949" y="587.6545"/><text fill="#000000" font-family="sans-serif" font-size="23" lengthAdjust="spacing" textLength="126.5449" x="103.5" y="621.8805">GET /paises</text></g><!--entity POST /paises--><g class="entity" data-entity="POST .paises" data-source-line="11" data-uid="ent0004" id="entity_POST .paises"><rect fill="#F1F1F1" height="63.4297" rx="2.875" ry="2.875" style="stroke:#181818;stroke-width:0.575;" width="187.8857" x="78.775" y="502.5545"/><rect fill="#F1F1F1" height="11.5" style="stroke:#181818;stroke-width:0.575;" width="17.25" x="243.6607" y="508.3045"/><rect fill="#F1F1F1" height="2.3" style="stroke:#181818;stroke-width:0.575;" width="4.6" x="241.3607" y="510.6045"/><rect fill="#F1F1F1" height="2.3" style="stroke:#181818;stroke-width:0.575;" width="4.6" x="241.3607" y="515.2045"/><text fill="#000000" font-family="sans-serif" font-size="23" lengthAdjust="spacing" textLength="141.8857" x="96.025" y="549.4305">POST /paises</text></g><!--entity GET /paises/{id}--><g class="entity" data-entity="GET .paises..id." data-source-line="12" data-uid="ent0005" id="entity_GET .paises..id."><rect fill="#F1F1F1" height="63.4297" rx="2.875" ry="2.875" style="stroke:#181818;stroke-width:0.575;" width="212.1997" x="66.125" y="430.1045"/><rect fill="#F1F1F1" height="11.5" style="stroke:#181818;stroke-width:0.575;" width="17.25" x="255.3247" y="435.8545"/><rect fill="#F1F1F1" height="2.3" style="stroke:#181818;stroke-width:0.575;" width="4.6" x="253.0247" y="438.1545"/><rect fill="#F1F1F1" height="2.3" style="stroke:#181818;stroke-width:0.575;" width="4.6" x="253.0247" y="442.7545"/><text fill="#000000" font-family="sans-serif" font-size="23" lengthAdjust="spacing" textLength="166.1997" x="83.375" y="476.9805">GET /paises/{id}</text></g><!--entity PUT /paises/{id}--><g class="entity" data-entity="PUT .paises..id." data-source-line="13" data-uid="ent0006" id="entity_PUT .paises..id."><rect fill="#F1F1F1" height="63.4297" rx="2.875" ry="2.875" style="stroke:#181818;stroke-width:0.575;" width="210.9194" x="415.725" y="575.0045"/><rect fill="#F1F1F1" height="11.5" style="stroke:#181818;stroke-width:0.575;" width="17.25" x="603.6444" y="580.7545"/><rect fill="#F1F1F1" height="2.3" style="stroke:#181818;stroke-width:0.575;" width="4.6" x="601.3444" y="583.0545"/><rect fill="#F1F1F1" height="2.3" style="stroke:#181818;stroke-width:0.575;" width="4.6" x="601.3444" y="587.6545"/><text fill="#000000" font-family="sans-serif" font-size="23" lengthAdjust="spacing" textLength="164.9194" x="432.975" y="621.8805">PUT /paises/{id}</text></g><!--entity DELETE /paises/{id}--><g class="entity" data-entity="DELETE .paises..id." data-source-line="14" data-uid="ent0007" id="entity_DELETE .paises..id."><rect fill="#F1F1F1" height="63.4297" rx="2.875" ry="2.875" style="stroke:#181818;stroke-width:0.575;" width="254.3926" x="393.875" y="502.5545"/><rect fill="#F1F1F1" height="11.5" style="stroke:#181818;stroke-width:0.575;" width="17.25" x="625.2676" y="508.3045"/><rect fill="#F1F1F1" height="2.3" style="stroke:#181818;stroke-width:0.575;" width="4.6" x="622.9676" y="510.6045"/><rect fill="#F1F1F1" height="2.3" style="stroke:#181818;stroke-width:0.575;" width="4.6" x="622.9676" y="515.2045"/><text fill="#000000" font-family="sans-serif" font-size="23" lengthAdjust="spacing" textLength="208.3926" x="411.125" y="549.4305">DELETE /paises/{id}</text></g><!--entity GET /paises/nombre/{nombre}--><g class="entity" data-entity="GET .paises.nombre..nombre." data-source-line="15" data-uid="ent0008" id="entity_GET .paises.nombre..nombre."><rect fill="#F1F1F1" height="63.4297" rx="2.875" ry="2.875" style="stroke:#181818;stroke-width:0.575;" width="356.6572" x="342.7" y="430.1045"/><rect fill="#F1F1F1" height="11.5" style="stroke:#181818;stroke-width:0.575;" width="17.25" x="676.3572" y="435.8545"/><rect fill="#F1F1F1" height="2.3" style="stroke:#181818;stroke-width:0.575;" width="4.6" x="674.0572" y="438.1545"/><rect fill="#F1F1F1" height="2.3" style="stroke:#181818;stroke-width:0.575;" width="4.6" x="674.0572" y="442.7545"/><text fill="#000000" font-family="sans-serif" font-size="23" lengthAdjust="spacing" textLength="310.6572" x="359.95" y="476.9805">GET /paises/nombre/{nombre}</text></g><!--entity GET /categorias--><g class="entity" data-entity="GET .categorias" data-source-line="19" data-uid="ent0010" id="entity_GET .categorias"><rect fill="#F1F1F1" height="63.4297" rx="2.875" ry="2.875" style="stroke:#181818;stroke-width:0.575;" width="212.1772" x="66.125" y="175.9545"/><rect fill="#F1F1F1" height="11.5" style="stroke:#181818;stroke-width:0.575;" width="17.25" x="255.3022" y="181.7045"/><rect fill="#F1F1F1" height="2.3" style="stroke:#181818;stroke-width:0.575;" width="4.6" x="253.0022" y="184.0045"/><rect fill="#F1F1F1" height="2.3" style="stroke:#181818;stroke-width:0.575;" width="4.6" x="253.0022" y="188.6045"/><text fill="#000000" font-family="sans-serif" font-size="23" lengthAdjust="spacing" textLength="166.1772" x="83.375" y="222.8305">GET /categorias</text></g><!--entity POST /categorias--><g class="entity" data-entity="POST .categorias" data-source-line="20" data-uid="ent0011" id="entity_POST .categorias"><rect fill="#F1F1F1" height="63.4297" rx="2.875" ry="2.875" style="stroke:#181818;stroke-width:0.575;" width="227.5181" x="58.65" y="103.5045"/><rect fill="#F1F1F1" height="11.5" style="stroke:#181818;stroke-width:0.575;" width="17.25" x="263.1681" y="109.2545"/><rect fill="#F1F1F1" height="2.3" style="stroke:#181818;stroke-width:0.575;" width="4.6" x="260.8681" y="111.5545"/><rect fill="#F1F1F1" height="2.3" style="stroke:#181818;stroke-width:0.575;" width="4.6" x="260.8681" y="116.1545"/><text fill="#000000" font-family="sans-serif" font-size="23" lengthAdjust="spacing" textLength="181.5181" x="75.9" y="150.3805">POST /categorias</text></g><!--entity GET /categorias/{id}--><g class="entity" data-entity="GET .categorias..id." data-source-line="21" data-uid="ent0012" id="entity_GET .categorias..id."><rect fill="#F1F1F1" height="63.4297" rx="2.875" ry="2.875" style="stroke:#181818;stroke-width:0.575;" width="251.832" x="395.025" y="175.9545"/><rect fill="#F1F1F1" height="11.5" style="stroke:#181818;stroke-width:0.575;" width="17.25" x="623.857" y="181.7045"/><rect fill="#F1F1F1" height="2.3" style="stroke:#181818;stroke-width:0.575;" width="4.6" x="621.557" y="184.0045"/><rect fill="#F1F1F1" height="2.3" style="stroke:#181818;stroke-width:0.575;" width="4.6" x="621.557" y="188.6045"/><text fill="#000000" font-family="sans-serif" font-size="23" lengthAdjust="spacing" textLength="205.832" x="412.275" y="222.8305">GET /categorias/{id}</text></g><!--entity PUT /categorias/{id}--><g class="entity" data-entity="PUT .categorias..id." data-source-line="22" data-uid="ent0013" id="entity_PUT .categorias..id."><rect fill="#F1F1F1" height="63.4297" rx="2.875" ry="2.875" style="stroke:#181818;stroke-width:0.575;" width="250.5518" x="395.6" y="103.5045"/><rect fill="#F1F1F1" height="11.5" style="stroke:#181818;stroke-width:0.575;" width="17.25" x="623.1518" y="109.2545"/><rect fill="#F1F1F1" height="2.3" style="stroke:#181818;stroke-width:0.575;" width="4.6" x="620.8518" y="111.5545"/><rect fill="#F1F1F1" height="2.3" style="stroke:#181818;stroke-width:0.575;" width="4.6" x="620.8518" y="116.1545"/><text fill="#000000" font-family="sans-serif" font-size="23" lengthAdjust="spacing" textLength="204.5518" x="412.85" y="150.3805">PUT /categorias/{id}</text></g><!--entity DELETE /categorias/{id}--><g class="entity" data-entity="DELETE .categorias..id." data-source-line="23" data-uid="ent0014" id="entity_DELETE .categorias..id."><rect fill="#F1F1F1" height="63.4297" rx="2.875" ry="2.875" style="stroke:#181818;stroke-width:0.575;" width="294.0249" x="25.3" y="248.4045"/><rect fill="#F1F1F1" height="11.5" style="stroke:#181818;stroke-width:0.575;" width="17.25" x="296.3249" y="254.1545"/><rect fill="#F1F1F1" height="2.3" style="stroke:#181818;stroke-width:0.575;" width="4.6" x="294.0249" y="256.4545"/><rect fill="#F1F1F1" height="2.3" style="stroke:#181818;stroke-width:0.575;" width="4.6" x="294.0249" y="261.0545"/><text fill="#000000" font-family="sans-serif" font-size="23" lengthAdjust="spacing" textLength="248.0249" x="42.55" y="295.2805">DELETE /categorias/{id}</text></g><g class="entity" data-entity="GMN15" data-source-line="27" data-uid="ent0016" id="entity_GMN15"><path d="M508.875,349.0295 L508.875,360.5295 L533.025,360.5295 L533.025,360.5295 L521.525,349.0295 L508.875,349.0295" fill="#FAFAFA" style="stroke:#181818;stroke-width:0.575;"/><path d="M521.525,349.0295 L521.525,360.5295 L533.025,360.5295 L521.525,349.0295" fill="#FAFAFA" style="stroke:#181818;stroke-width:1.15;"/></g><!--link DELETE /categorias/{id} to GMN15--><g class="link" data-entity-1="DELETE .categorias..id." data-entity-2="GMN15" data-source-line="27" data-uid="lnk17" id="link_DELETE .categorias..id._GMN15"><path d="M291.134,311.6775 C308.3725,315.9555 325.956,320.107 342.7,323.7295 C404.938,337.2075 480.447,348.926 508.553,353.1235" fill="none" id="DELETE /categorias/{id}-GMN15" style="stroke:#181818;stroke-width:1.15;stroke-dasharray:8.05,8.05;"/></g></g></svg>

