<svg xmlns="http://www.w3.org/2000/svg" xmlns:xlink="http://www.w3.org/1999/xlink" contentStyleType="text/css" data-diagram-type="DESCRIPTION" height="1276.5px" preserveAspectRatio="none" style="width:1894px;height:1276px;background:#FFFFFF;" version="1.1" viewBox="0 0 2294 1276" width="2294.25px" zoomAndPan="magnify"><title>Endpoints - Admin</title><defs/><g><g class="title" data-source-line="1"><text fill="#000000" font-family="sans-serif" font-size="16.1" font-weight="bold" lengthAdjust="spacing" textLength="143.0919" x="1067.8166" y="28.2132">Endpoints - Admin</text></g><!--cluster Admin - Perfil--><g class="cluster" data-entity="Admin - Perfil" data-source-line="9" data-uid="ent0002" id="cluster_Admin - Perfil"><path d="M28.75,990.7295 L179.4112,990.7295 A4.3125,4.3125 0 0 1 182.2862,993.6045 L190.3362,1026.5592 L693.45,1026.5592 A2.875,2.875 0 0 1 696.325,1029.4342 L696.325,1266.1545 A2.875,2.875 0 0 1 693.45,1269.0295 L28.75,1269.0295 A2.875,2.875 0 0 1 25.875,1266.1545 L25.875,993.6045 A2.875,2.875 0 0 1 28.75,990.7295" fill="none" style="stroke:#000000;stroke-width:1.725;"/><line style="stroke:#000000;stroke-width:1.725;" x1="25.875" x2="190.3362" y1="1026.5592" y2="1026.5592"/><text fill="#000000" font-family="sans-serif" font-size="23" font-weight="bold" lengthAdjust="spacing" textLength="149.5112" x="30.475" y="1016.9055">Admin - Perfil</text></g><!--cluster Admin - Me Gusta--><g class="cluster" data-entity="Admin - Me Gusta" data-source-line="17" data-uid="ent0008" id="cluster_Admin - Me Gusta"><path d="M9.775,684.8295 L206.4362,684.8295 A4.3125,4.3125 0 0 1 209.3112,687.7045 L217.3612,720.6592 L1250.05,720.6592 A2.875,2.875 0 0 1 1252.925,723.5342 L1252.925,960.2545 A2.875,2.875 0 0 1 1250.05,963.1295 L9.775,963.1295 A2.875,2.875 0 0 1 6.9,960.2545 L6.9,687.7045 A2.875,2.875 0 0 1 9.775,684.8295" fill="none" style="stroke:#000000;stroke-width:1.725;"/><line style="stroke:#000000;stroke-width:1.725;" x1="6.9" x2="217.3612" y1="720.6592" y2="720.6592"/><text fill="#000000" font-family="sans-serif" font-size="23" font-weight="bold" lengthAdjust="spacing" textLength="195.5112" x="11.5" y="711.0055">Admin - Me Gusta</text></g><!--cluster Admin - Favoritos--><g class="cluster" data-entity="Admin - Favoritos" data-source-line="27" data-uid="ent0016" id="cluster_Admin - Favoritos"><path d="M10.35,378.9295 L207.0112,378.9295 A4.3125,4.3125 0 0 1 209.8862,381.8045 L217.9362,414.7592 L711.85,414.7592 A2.875,2.875 0 0 1 714.725,417.6342 L714.725,654.3545 A2.875,2.875 0 0 1 711.85,657.2295 L10.35,657.2295 A2.875,2.875 0 0 1 7.475,654.3545 L7.475,381.8045 A2.875,2.875 0 0 1 10.35,378.9295" fill="none" style="stroke:#000000;stroke-width:1.725;"/><line style="stroke:#000000;stroke-width:1.725;" x1="7.475" x2="217.9362" y1="414.7592" y2="414.7592"/><text fill="#000000" font-family="sans-serif" font-size="23" font-weight="bold" lengthAdjust="spacing" textLength="195.5112" x="12.075" y="405.1055">Admin - Favoritos</text></g><!--cluster Admin - Estrellas--><g class="cluster" data-entity="Admin - Estrellas" data-source-line="35" data-uid="ent0022" id="cluster_Admin - Estrellas"><path d="M818.225,990.7295 L1007.2607,990.7295 A4.3125,4.3125 0 0 1 1010.1357,993.6045 L1018.1857,1026.5592 L2283.9,1026.5592 A2.875,2.875 0 0 1 2286.775,1029.4342 L2286.775,1266.1545 A2.875,2.875 0 0 1 2283.9,1269.0295 L818.225,1269.0295 A2.875,2.875 0 0 1 815.35,1266.1545 L815.35,993.6045 A2.875,2.875 0 0 1 818.225,990.7295" fill="none" style="stroke:#000000;stroke-width:1.725;"/><line style="stroke:#000000;stroke-width:1.725;" x1="815.35" x2="1018.1857" y1="1026.5592" y2="1026.5592"/><text fill="#000000" font-family="sans-serif" font-size="23" font-weight="bold" lengthAdjust="spacing" textLength="187.8857" x="819.95" y="1016.9055">Admin - Estrellas</text></g><!--cluster Admin - Comentarios--><g class="cluster" data-entity="Admin - Comentarios" data-source-line="45" data-uid="ent0030" id="cluster_Admin - Comentarios"><path d="M798.1,378.9295 L1031.8218,378.9295 A4.3125,4.3125 0 0 1 1034.6968,381.8045 L1042.7468,414.7592 L1695.675,414.7592 A2.875,2.875 0 0 1 1698.55,417.6342 L1698.55,654.3545 A2.875,2.875 0 0 1 1695.675,657.2295 L798.1,657.2295 A2.875,2.875 0 0 1 795.225,654.3545 L795.225,381.8045 A2.875,2.875 0 0 1 798.1,378.9295" fill="none" style="stroke:#000000;stroke-width:1.725;"/><line style="stroke:#000000;stroke-width:1.725;" x1="795.225" x2="1042.7468" y1="414.7592" y2="414.7592"/><text fill="#000000" font-family="sans-serif" font-size="23" font-weight="bold" lengthAdjust="spacing" textLength="232.5718" x="799.825" y="405.1055">Admin - Comentarios</text></g><!--cluster Admin - Ingredientes--><g class="cluster" data-entity="Admin - Ingredientes" data-source-line="53" data-uid="ent0036" id="cluster_Admin - Ingredientes"><path d="M777.4,52.3295 L1007.2922,52.3295 A4.3125,4.3125 0 0 1 1010.1672,55.2045 L1018.2172,88.1592 L1674.975,88.1592 A2.875,2.875 0 0 1 1677.85,91.0342 L1677.85,327.7545 A2.875,2.875 0 0 1 1674.975,330.6295 L777.4,330.6295 A2.875,2.875 0 0 1 774.525,327.7545 L774.525,55.2045 A2.875,2.875 0 0 1 777.4,52.3295" fill="none" style="stroke:#000000;stroke-width:1.725;"/><line style="stroke:#000000;stroke-width:1.725;" x1="774.525" x2="1018.2172" y1="88.1592" y2="88.1592"/><text fill="#000000" font-family="sans-serif" font-size="23" font-weight="bold" lengthAdjust="spacing" textLength="228.7422" x="779.125" y="78.5055">Admin - Ingredientes</text></g><!--entity GET /admin/perfil--><g class="entity" data-entity="GET .admin.perfil" data-source-line="10" data-uid="ent0003" id="entity_GET .admin.perfil"><rect fill="#F1F1F1" height="63.4297" rx="2.875" ry="2.875" style="stroke:#181818;stroke-width:0.575;" width="224.9463" x="63.825" y="1186.8045"/><rect fill="#F1F1F1" height="11.5" style="stroke:#181818;stroke-width:0.575;" width="17.25" x="265.7713" y="1192.5545"/><rect fill="#F1F1F1" height="2.3" style="stroke:#181818;stroke-width:0.575;" width="4.6" x="263.4713" y="1194.8545"/><rect fill="#F1F1F1" height="2.3" style="stroke:#181818;stroke-width:0.575;" width="4.6" x="263.4713" y="1199.4545"/><text fill="#000000" font-family="sans-serif" font-size="23" lengthAdjust="spacing" textLength="178.9463" x="81.075" y="1233.6805">GET /admin/perfil</text></g><!--entity POST /admin/perfil--><g class="entity" data-entity="POST .admin.perfil" data-source-line="11" data-uid="ent0004" id="entity_POST .admin.perfil"><rect fill="#F1F1F1" height="63.4297" rx="2.875" ry="2.875" style="stroke:#181818;stroke-width:0.575;" width="240.2871" x="56.35" y="1114.3545"/><rect fill="#F1F1F1" height="11.5" style="stroke:#181818;stroke-width:0.575;" width="17.25" x="273.6371" y="1120.1045"/><rect fill="#F1F1F1" height="2.3" style="stroke:#181818;stroke-width:0.575;" width="4.6" x="271.3371" y="1122.4045"/><rect fill="#F1F1F1" height="2.3" style="stroke:#181818;stroke-width:0.575;" width="4.6" x="271.3371" y="1127.0045"/><text fill="#000000" font-family="sans-serif" font-size="23" lengthAdjust="spacing" textLength="194.2871" x="73.6" y="1161.2305">POST /admin/perfil</text></g><!--entity GET /admin/perfil/{id}--><g class="entity" data-entity="GET .admin.perfil..id." data-source-line="12" data-uid="ent0005" id="entity_GET .admin.perfil..id."><rect fill="#F1F1F1" height="63.4297" rx="2.875" ry="2.875" style="stroke:#181818;stroke-width:0.575;" width="264.6011" x="44.275" y="1041.9045"/><rect fill="#F1F1F1" height="11.5" style="stroke:#181818;stroke-width:0.575;" width="17.25" x="285.8761" y="1047.6545"/><rect fill="#F1F1F1" height="2.3" style="stroke:#181818;stroke-width:0.575;" width="4.6" x="283.5761" y="1049.9545"/><rect fill="#F1F1F1" height="2.3" style="stroke:#181818;stroke-width:0.575;" width="4.6" x="283.5761" y="1054.5545"/><text fill="#000000" font-family="sans-serif" font-size="23" lengthAdjust="spacing" textLength="218.6011" x="61.525" y="1088.7805">GET /admin/perfil/{id}</text></g><!--entity PUT /admin/perfil/{id}--><g class="entity" data-entity="PUT .admin.perfil..id." data-source-line="13" data-uid="ent0006" id="entity_PUT .admin.perfil..id."><rect fill="#F1F1F1" height="63.4297" rx="2.875" ry="2.875" style="stroke:#181818;stroke-width:0.575;" width="263.3208" x="392.725" y="1186.8045"/><rect fill="#F1F1F1" height="11.5" style="stroke:#181818;stroke-width:0.575;" width="17.25" x="633.0458" y="1192.5545"/><rect fill="#F1F1F1" height="2.3" style="stroke:#181818;stroke-width:0.575;" width="4.6" x="630.7458" y="1194.8545"/><rect fill="#F1F1F1" height="2.3" style="stroke:#181818;stroke-width:0.575;" width="4.6" x="630.7458" y="1199.4545"/><text fill="#000000" font-family="sans-serif" font-size="23" lengthAdjust="spacing" textLength="217.3208" x="409.975" y="1233.6805">PUT /admin/perfil/{id}</text></g><!--entity DELETE /admin/perfil/{id}--><g class="entity" data-entity="DELETE .admin.perfil..id." data-source-line="14" data-uid="ent0007" id="entity_DELETE .admin.perfil..id."><rect fill="#F1F1F1" height="63.4297" rx="2.875" ry="2.875" style="stroke:#181818;stroke-width:0.575;" width="306.7939" x="370.875" y="1114.3545"/><rect fill="#F1F1F1" height="11.5" style="stroke:#181818;stroke-width:0.575;" width="17.25" x="654.6689" y="1120.1045"/><rect fill="#F1F1F1" height="2.3" style="stroke:#181818;stroke-width:0.575;" width="4.6" x="652.3689" y="1122.4045"/><rect fill="#F1F1F1" height="2.3" style="stroke:#181818;stroke-width:0.575;" width="4.6" x="652.3689" y="1127.0045"/><text fill="#000000" font-family="sans-serif" font-size="23" lengthAdjust="spacing" textLength="260.7939" x="388.125" y="1161.2305">DELETE /admin/perfil/{id}</text></g><!--entity GET /admin/megusta--><g class="entity" data-entity="GET .admin.megusta" data-source-line="18" data-uid="ent0009" id="entity_GET .admin.megusta"><rect fill="#F1F1F1" height="63.4297" rx="2.875" ry="2.875" style="stroke:#181818;stroke-width:0.575;" width="263.3096" x="44.85" y="880.9045"/><rect fill="#F1F1F1" height="11.5" style="stroke:#181818;stroke-width:0.575;" width="17.25" x="285.1596" y="886.6545"/><rect fill="#F1F1F1" height="2.3" style="stroke:#181818;stroke-width:0.575;" width="4.6" x="282.8596" y="888.9545"/><rect fill="#F1F1F1" height="2.3" style="stroke:#181818;stroke-width:0.575;" width="4.6" x="282.8596" y="893.5545"/><text fill="#000000" font-family="sans-serif" font-size="23" lengthAdjust="spacing" textLength="217.3096" x="62.1" y="927.7805">GET /admin/megusta</text></g><!--entity POST /admin/megusta--><g class="entity" data-entity="POST .admin.megusta" data-source-line="19" data-uid="ent0010" id="entity_POST .admin.megusta"><rect fill="#F1F1F1" height="63.4297" rx="2.875" ry="2.875" style="stroke:#181818;stroke-width:0.575;" width="278.6504" x="37.375" y="808.4545"/><rect fill="#F1F1F1" height="11.5" style="stroke:#181818;stroke-width:0.575;" width="17.25" x="293.0254" y="814.2045"/><rect fill="#F1F1F1" height="2.3" style="stroke:#181818;stroke-width:0.575;" width="4.6" x="290.7254" y="816.5045"/><rect fill="#F1F1F1" height="2.3" style="stroke:#181818;stroke-width:0.575;" width="4.6" x="290.7254" y="821.1045"/><text fill="#000000" font-family="sans-serif" font-size="23" lengthAdjust="spacing" textLength="232.6504" x="54.625" y="855.3305">POST /admin/megusta</text></g><!--entity GET /admin/megusta/{id}--><g class="entity" data-entity="GET .admin.megusta..id." data-source-line="20" data-uid="ent0011" id="entity_GET .admin.megusta..id."><rect fill="#F1F1F1" height="63.4297" rx="2.875" ry="2.875" style="stroke:#181818;stroke-width:0.575;" width="302.9644" x="25.3" y="736.0045"/><rect fill="#F1F1F1" height="11.5" style="stroke:#181818;stroke-width:0.575;" width="17.25" x="305.2644" y="741.7545"/><rect fill="#F1F1F1" height="2.3" style="stroke:#181818;stroke-width:0.575;" width="4.6" x="302.9644" y="744.0545"/><rect fill="#F1F1F1" height="2.3" style="stroke:#181818;stroke-width:0.575;" width="4.6" x="302.9644" y="748.6545"/><text fill="#000000" font-family="sans-serif" font-size="23" lengthAdjust="spacing" textLength="256.9644" x="42.55" y="782.8805">GET /admin/megusta/{id}</text></g><!--entity PUT /admin/megusta/{id}--><g class="entity" data-entity="PUT .admin.megusta..id." data-source-line="21" data-uid="ent0012" id="entity_PUT .admin.megusta..id."><rect fill="#F1F1F1" height="63.4297" rx="2.875" ry="2.875" style="stroke:#181818;stroke-width:0.575;" width="301.6841" x="373.75" y="880.9045"/><rect fill="#F1F1F1" height="11.5" style="stroke:#181818;stroke-width:0.575;" width="17.25" x="652.4341" y="886.6545"/><rect fill="#F1F1F1" height="2.3" style="stroke:#181818;stroke-width:0.575;" width="4.6" x="650.1341" y="888.9545"/><rect fill="#F1F1F1" height="2.3" style="stroke:#181818;stroke-width:0.575;" width="4.6" x="650.1341" y="893.5545"/><text fill="#000000" font-family="sans-serif" font-size="23" lengthAdjust="spacing" textLength="255.6841" x="391" y="927.7805">PUT /admin/megusta/{id}</text></g><!--entity DELETE /admin/megusta/{id}--><g class="entity" data-entity="DELETE .admin.megusta..id." data-source-line="22" data-uid="ent0013" id="entity_DELETE .admin.megusta..id."><rect fill="#F1F1F1" height="63.4297" rx="2.875" ry="2.875" style="stroke:#181818;stroke-width:0.575;" width="345.1572" x="351.9" y="808.4545"/><rect fill="#F1F1F1" height="11.5" style="stroke:#181818;stroke-width:0.575;" width="17.25" x="674.0572" y="814.2045"/><rect fill="#F1F1F1" height="2.3" style="stroke:#181818;stroke-width:0.575;" width="4.6" x="671.7572" y="816.5045"/><rect fill="#F1F1F1" height="2.3" style="stroke:#181818;stroke-width:0.575;" width="4.6" x="671.7572" y="821.1045"/><text fill="#000000" font-family="sans-serif" font-size="23" lengthAdjust="spacing" textLength="299.1572" x="369.15" y="855.3305">DELETE /admin/megusta/{id}</text></g><!--entity POST /admin/megusta/toggle--><g class="entity" data-entity="POST .admin.megusta.toggle" data-source-line="23" data-uid="ent0014" id="entity_POST .admin.megusta.toggle"><rect fill="#F1F1F1" height="63.4297" rx="2.875" ry="2.875" style="stroke:#181818;stroke-width:0.575;" width="347.7065" x="350.75" y="736.0045"/><rect fill="#F1F1F1" height="11.5" style="stroke:#181818;stroke-width:0.575;" width="17.25" x="675.4565" y="741.7545"/><rect fill="#F1F1F1" height="2.3" style="stroke:#181818;stroke-width:0.575;" width="4.6" x="673.1565" y="744.0545"/><rect fill="#F1F1F1" height="2.3" style="stroke:#181818;stroke-width:0.575;" width="4.6" x="673.1565" y="748.6545"/><text fill="#000000" font-family="sans-serif" font-size="23" lengthAdjust="spacing" textLength="301.7065" x="368" y="782.8805">POST /admin/megusta/toggle</text></g><!--entity GET /admin/megusta/receta/{recetaId}/count--><g class="entity" data-entity="GET .admin.megusta.receta..recetaId..count" data-source-line="24" data-uid="ent0015" id="entity_GET .admin.megusta.receta..recetaId..count"><rect fill="#F1F1F1" height="63.4297" rx="2.875" ry="2.875" style="stroke:#181818;stroke-width:0.575;" width="501.1372" x="733.125" y="880.9045"/><rect fill="#F1F1F1" height="11.5" style="stroke:#181818;stroke-width:0.575;" width="17.25" x="1211.2622" y="886.6545"/><rect fill="#F1F1F1" height="2.3" style="stroke:#181818;stroke-width:0.575;" width="4.6" x="1208.9622" y="888.9545"/><rect fill="#F1F1F1" height="2.3" style="stroke:#181818;stroke-width:0.575;" width="4.6" x="1208.9622" y="893.5545"/><text fill="#000000" font-family="sans-serif" font-size="23" lengthAdjust="spacing" textLength="455.1372" x="750.375" y="927.7805">GET /admin/megusta/receta/{recetaId}/count</text></g><!--entity GET /admin/favoritos--><g class="entity" data-entity="GET .admin.favoritos" data-source-line="28" data-uid="ent0017" id="entity_GET .admin.favoritos"><rect fill="#F1F1F1" height="63.4297" rx="2.875" ry="2.875" style="stroke:#181818;stroke-width:0.575;" width="262.0181" x="45.425" y="575.0045"/><rect fill="#F1F1F1" height="11.5" style="stroke:#181818;stroke-width:0.575;" width="17.25" x="284.4431" y="580.7545"/><rect fill="#F1F1F1" height="2.3" style="stroke:#181818;stroke-width:0.575;" width="4.6" x="282.1431" y="583.0545"/><rect fill="#F1F1F1" height="2.3" style="stroke:#181818;stroke-width:0.575;" width="4.6" x="282.1431" y="587.6545"/><text fill="#000000" font-family="sans-serif" font-size="23" lengthAdjust="spacing" textLength="216.0181" x="62.675" y="621.8805">GET /admin/favoritos</text></g><!--entity POST /admin/favoritos--><g class="entity" data-entity="POST .admin.favoritos" data-source-line="29" data-uid="ent0018" id="entity_POST .admin.favoritos"><rect fill="#F1F1F1" height="63.4297" rx="2.875" ry="2.875" style="stroke:#181818;stroke-width:0.575;" width="277.3589" x="37.95" y="502.5545"/><rect fill="#F1F1F1" height="11.5" style="stroke:#181818;stroke-width:0.575;" width="17.25" x="292.3089" y="508.3045"/><rect fill="#F1F1F1" height="2.3" style="stroke:#181818;stroke-width:0.575;" width="4.6" x="290.0089" y="510.6045"/><rect fill="#F1F1F1" height="2.3" style="stroke:#181818;stroke-width:0.575;" width="4.6" x="290.0089" y="515.2045"/><text fill="#000000" font-family="sans-serif" font-size="23" lengthAdjust="spacing" textLength="231.3589" x="55.2" y="549.4305">POST /admin/favoritos</text></g><!--entity GET /admin/favoritos/{id}--><g class="entity" data-entity="GET .admin.favoritos..id." data-source-line="30" data-uid="ent0019" id="entity_GET .admin.favoritos..id."><rect fill="#F1F1F1" height="63.4297" rx="2.875" ry="2.875" style="stroke:#181818;stroke-width:0.575;" width="301.6729" x="25.875" y="430.1045"/><rect fill="#F1F1F1" height="11.5" style="stroke:#181818;stroke-width:0.575;" width="17.25" x="304.5479" y="435.8545"/><rect fill="#F1F1F1" height="2.3" style="stroke:#181818;stroke-width:0.575;" width="4.6" x="302.2479" y="438.1545"/><rect fill="#F1F1F1" height="2.3" style="stroke:#181818;stroke-width:0.575;" width="4.6" x="302.2479" y="442.7545"/><text fill="#000000" font-family="sans-serif" font-size="23" lengthAdjust="spacing" textLength="255.6729" x="43.125" y="476.9805">GET /admin/favoritos/{id}</text></g><!--entity PUT /admin/favoritos/{id}--><g class="entity" data-entity="PUT .admin.favoritos..id." data-source-line="31" data-uid="ent0020" id="entity_PUT .admin.favoritos..id."><rect fill="#F1F1F1" height="63.4297" rx="2.875" ry="2.875" style="stroke:#181818;stroke-width:0.575;" width="300.3926" x="374.325" y="575.0045"/><rect fill="#F1F1F1" height="11.5" style="stroke:#181818;stroke-width:0.575;" width="17.25" x="651.7176" y="580.7545"/><rect fill="#F1F1F1" height="2.3" style="stroke:#181818;stroke-width:0.575;" width="4.6" x="649.4176" y="583.0545"/><rect fill="#F1F1F1" height="2.3" style="stroke:#181818;stroke-width:0.575;" width="4.6" x="649.4176" y="587.6545"/><text fill="#000000" font-family="sans-serif" font-size="23" lengthAdjust="spacing" textLength="254.3926" x="391.575" y="621.8805">PUT /admin/favoritos/{id}</text></g><!--entity DELETE /admin/favoritos/{id}--><g class="entity" data-entity="DELETE .admin.favoritos..id." data-source-line="32" data-uid="ent0021" id="entity_DELETE .admin.favoritos..id."><rect fill="#F1F1F1" height="63.4297" rx="2.875" ry="2.875" style="stroke:#181818;stroke-width:0.575;" width="343.8657" x="352.475" y="502.5545"/><rect fill="#F1F1F1" height="11.5" style="stroke:#181818;stroke-width:0.575;" width="17.25" x="673.3407" y="508.3045"/><rect fill="#F1F1F1" height="2.3" style="stroke:#181818;stroke-width:0.575;" width="4.6" x="671.0407" y="510.6045"/><rect fill="#F1F1F1" height="2.3" style="stroke:#181818;stroke-width:0.575;" width="4.6" x="671.0407" y="515.2045"/><text fill="#000000" font-family="sans-serif" font-size="23" lengthAdjust="spacing" textLength="297.8657" x="369.725" y="549.4305">DELETE /admin/favoritos/{id}</text></g><!--entity GET /admin/estrellas--><g class="entity" data-entity="GET .admin.estrellas" data-source-line="36" data-uid="ent0023" id="entity_GET .admin.estrellas"><rect fill="#F1F1F1" height="63.4297" rx="2.875" ry="2.875" style="stroke:#181818;stroke-width:0.575;" width="260.7378" x="853.3" y="1186.8045"/><rect fill="#F1F1F1" height="11.5" style="stroke:#181818;stroke-width:0.575;" width="17.25" x="1091.0378" y="1192.5545"/><rect fill="#F1F1F1" height="2.3" style="stroke:#181818;stroke-width:0.575;" width="4.6" x="1088.7378" y="1194.8545"/><rect fill="#F1F1F1" height="2.3" style="stroke:#181818;stroke-width:0.575;" width="4.6" x="1088.7378" y="1199.4545"/><text fill="#000000" font-family="sans-serif" font-size="23" lengthAdjust="spacing" textLength="214.7378" x="870.55" y="1233.6805">GET /admin/estrellas</text></g><!--entity POST /admin/estrellas--><g class="entity" data-entity="POST .admin.estrellas" data-source-line="37" data-uid="ent0024" id="entity_POST .admin.estrellas"><rect fill="#F1F1F1" height="63.4297" rx="2.875" ry="2.875" style="stroke:#181818;stroke-width:0.575;" width="276.0786" x="845.825" y="1114.3545"/><rect fill="#F1F1F1" height="11.5" style="stroke:#181818;stroke-width:0.575;" width="17.25" x="1098.9036" y="1120.1045"/><rect fill="#F1F1F1" height="2.3" style="stroke:#181818;stroke-width:0.575;" width="4.6" x="1096.6036" y="1122.4045"/><rect fill="#F1F1F1" height="2.3" style="stroke:#181818;stroke-width:0.575;" width="4.6" x="1096.6036" y="1127.0045"/><text fill="#000000" font-family="sans-serif" font-size="23" lengthAdjust="spacing" textLength="230.0786" x="863.075" y="1161.2305">POST /admin/estrellas</text></g><!--entity GET /admin/estrellas/{id}--><g class="entity" data-entity="GET .admin.estrellas..id." data-source-line="38" data-uid="ent0025" id="entity_GET .admin.estrellas..id."><rect fill="#F1F1F1" height="63.4297" rx="2.875" ry="2.875" style="stroke:#181818;stroke-width:0.575;" width="300.3926" x="833.75" y="1041.9045"/><rect fill="#F1F1F1" height="11.5" style="stroke:#181818;stroke-width:0.575;" width="17.25" x="1111.1426" y="1047.6545"/><rect fill="#F1F1F1" height="2.3" style="stroke:#181818;stroke-width:0.575;" width="4.6" x="1108.8426" y="1049.9545"/><rect fill="#F1F1F1" height="2.3" style="stroke:#181818;stroke-width:0.575;" width="4.6" x="1108.8426" y="1054.5545"/><text fill="#000000" font-family="sans-serif" font-size="23" lengthAdjust="spacing" textLength="254.3926" x="851" y="1088.7805">GET /admin/estrellas/{id}</text></g><!--entity PUT /admin/estrellas/{id}--><g class="entity" data-entity="PUT .admin.estrellas..id." data-source-line="39" data-uid="ent0026" id="entity_PUT .admin.estrellas..id."><rect fill="#F1F1F1" height="63.4297" rx="2.875" ry="2.875" style="stroke:#181818;stroke-width:0.575;" width="299.1123" x="1339.75" y="1186.8045"/><rect fill="#F1F1F1" height="11.5" style="stroke:#181818;stroke-width:0.575;" width="17.25" x="1615.8623" y="1192.5545"/><rect fill="#F1F1F1" height="2.3" style="stroke:#181818;stroke-width:0.575;" width="4.6" x="1613.5623" y="1194.8545"/><rect fill="#F1F1F1" height="2.3" style="stroke:#181818;stroke-width:0.575;" width="4.6" x="1613.5623" y="1199.4545"/><text fill="#000000" font-family="sans-serif" font-size="23" lengthAdjust="spacing" textLength="253.1123" x="1357" y="1233.6805">PUT /admin/estrellas/{id}</text></g><!--entity DELETE /admin/estrellas/{id}--><g class="entity" data-entity="DELETE .admin.estrellas..id." data-source-line="40" data-uid="ent0027" id="entity_DELETE .admin.estrellas..id."><rect fill="#F1F1F1" height="63.4297" rx="2.875" ry="2.875" style="stroke:#181818;stroke-width:0.575;" width="342.5854" x="1317.9" y="1114.3545"/><rect fill="#F1F1F1" height="11.5" style="stroke:#181818;stroke-width:0.575;" width="17.25" x="1637.4854" y="1120.1045"/><rect fill="#F1F1F1" height="2.3" style="stroke:#181818;stroke-width:0.575;" width="4.6" x="1635.1854" y="1122.4045"/><rect fill="#F1F1F1" height="2.3" style="stroke:#181818;stroke-width:0.575;" width="4.6" x="1635.1854" y="1127.0045"/><text fill="#000000" font-family="sans-serif" font-size="23" lengthAdjust="spacing" textLength="296.5854" x="1335.15" y="1161.2305">DELETE /admin/estrellas/{id}</text></g><!--entity GET /admin/estrellas/receta/{recetaId}--><g class="entity" data-entity="GET .admin.estrellas.receta..recetaId." data-source-line="41" data-uid="ent0028" id="entity_GET .admin.estrellas.receta..recetaId."><rect fill="#F1F1F1" height="63.4297" rx="2.875" ry="2.875" style="stroke:#181818;stroke-width:0.575;" width="435.9106" x="1271.325" y="1041.9045"/><rect fill="#F1F1F1" height="11.5" style="stroke:#181818;stroke-width:0.575;" width="17.25" x="1684.2356" y="1047.6545"/><rect fill="#F1F1F1" height="2.3" style="stroke:#181818;stroke-width:0.575;" width="4.6" x="1681.9356" y="1049.9545"/><rect fill="#F1F1F1" height="2.3" style="stroke:#181818;stroke-width:0.575;" width="4.6" x="1681.9356" y="1054.5545"/><text fill="#000000" font-family="sans-serif" font-size="23" lengthAdjust="spacing" textLength="389.9106" x="1288.575" y="1088.7805">GET /admin/estrellas/receta/{recetaId}</text></g><!--entity GET /admin/estrellas/receta/{recetaId}/promedio--><g class="entity" data-entity="GET .admin.estrellas.receta..recetaId..promedio" data-source-line="42" data-uid="ent0029" id="entity_GET .admin.estrellas.receta..recetaId..promedio"><rect fill="#F1F1F1" height="63.4297" rx="2.875" ry="2.875" style="stroke:#181818;stroke-width:0.575;" width="538.1865" x="1730.175" y="1186.8045"/><rect fill="#F1F1F1" height="11.5" style="stroke:#181818;stroke-width:0.575;" width="17.25" x="2245.3615" y="1192.5545"/><rect fill="#F1F1F1" height="2.3" style="stroke:#181818;stroke-width:0.575;" width="4.6" x="2243.0615" y="1194.8545"/><rect fill="#F1F1F1" height="2.3" style="stroke:#181818;stroke-width:0.575;" width="4.6" x="2243.0615" y="1199.4545"/><text fill="#000000" font-family="sans-serif" font-size="23" lengthAdjust="spacing" textLength="492.1865" x="1747.425" y="1233.6805">GET /admin/estrellas/receta/{recetaId}/promedio</text></g><!--entity GET /admin/comentarios--><g class="entity" data-entity="GET .admin.comentarios" data-source-line="46" data-uid="ent0031" id="entity_GET .admin.comentarios"><rect fill="#F1F1F1" height="63.4297" rx="2.875" ry="2.875" style="stroke:#181818;stroke-width:0.575;" width="300.3701" x="833.75" y="575.0045"/><rect fill="#F1F1F1" height="11.5" style="stroke:#181818;stroke-width:0.575;" width="17.25" x="1111.1201" y="580.7545"/><rect fill="#F1F1F1" height="2.3" style="stroke:#181818;stroke-width:0.575;" width="4.6" x="1108.8201" y="583.0545"/><rect fill="#F1F1F1" height="2.3" style="stroke:#181818;stroke-width:0.575;" width="4.6" x="1108.8201" y="587.6545"/><text fill="#000000" font-family="sans-serif" font-size="23" lengthAdjust="spacing" textLength="254.3701" x="851" y="621.8805">GET /admin/comentarios</text></g><!--entity POST /admin/comentarios--><g class="entity" data-entity="POST .admin.comentarios" data-source-line="47" data-uid="ent0032" id="entity_POST .admin.comentarios"><rect fill="#F1F1F1" height="63.4297" rx="2.875" ry="2.875" style="stroke:#181818;stroke-width:0.575;" width="315.7109" x="825.7" y="502.5545"/><rect fill="#F1F1F1" height="11.5" style="stroke:#181818;stroke-width:0.575;" width="17.25" x="1118.4109" y="508.3045"/><rect fill="#F1F1F1" height="2.3" style="stroke:#181818;stroke-width:0.575;" width="4.6" x="1116.1109" y="510.6045"/><rect fill="#F1F1F1" height="2.3" style="stroke:#181818;stroke-width:0.575;" width="4.6" x="1116.1109" y="515.2045"/><text fill="#000000" font-family="sans-serif" font-size="23" lengthAdjust="spacing" textLength="269.7109" x="842.95" y="549.4305">POST /admin/comentarios</text></g><!--entity GET /admin/comentarios/{id}--><g class="entity" data-entity="GET .admin.comentarios..id." data-source-line="48" data-uid="ent0033" id="entity_GET .admin.comentarios..id."><rect fill="#F1F1F1" height="63.4297" rx="2.875" ry="2.875" style="stroke:#181818;stroke-width:0.575;" width="340.0249" x="813.625" y="430.1045"/><rect fill="#F1F1F1" height="11.5" style="stroke:#181818;stroke-width:0.575;" width="17.25" x="1130.6499" y="435.8545"/><rect fill="#F1F1F1" height="2.3" style="stroke:#181818;stroke-width:0.575;" width="4.6" x="1128.3499" y="438.1545"/><rect fill="#F1F1F1" height="2.3" style="stroke:#181818;stroke-width:0.575;" width="4.6" x="1128.3499" y="442.7545"/><text fill="#000000" font-family="sans-serif" font-size="23" lengthAdjust="spacing" textLength="294.0249" x="830.875" y="476.9805">GET /admin/comentarios/{id}</text></g><!--entity PUT /admin/comentarios/{id}--><g class="entity" data-entity="PUT .admin.comentarios..id." data-source-line="49" data-uid="ent0034" id="entity_PUT .admin.comentarios..id."><rect fill="#F1F1F1" height="63.4297" rx="2.875" ry="2.875" style="stroke:#181818;stroke-width:0.575;" width="338.7446" x="1319.625" y="575.0045"/><rect fill="#F1F1F1" height="11.5" style="stroke:#181818;stroke-width:0.575;" width="17.25" x="1635.3696" y="580.7545"/><rect fill="#F1F1F1" height="2.3" style="stroke:#181818;stroke-width:0.575;" width="4.6" x="1633.0696" y="583.0545"/><rect fill="#F1F1F1" height="2.3" style="stroke:#181818;stroke-width:0.575;" width="4.6" x="1633.0696" y="587.6545"/><text fill="#000000" font-family="sans-serif" font-size="23" lengthAdjust="spacing" textLength="292.7446" x="1336.875" y="621.8805">PUT /admin/comentarios/{id}</text></g><!--entity DELETE /admin/comentarios/{id}--><g class="entity" data-entity="DELETE .admin.comentarios..id." data-source-line="50" data-uid="ent0035" id="entity_DELETE .admin.comentarios..id."><rect fill="#F1F1F1" height="63.4297" rx="2.875" ry="2.875" style="stroke:#181818;stroke-width:0.575;" width="382.2178" x="1298.35" y="502.5545"/><rect fill="#F1F1F1" height="11.5" style="stroke:#181818;stroke-width:0.575;" width="17.25" x="1657.5678" y="508.3045"/><rect fill="#F1F1F1" height="2.3" style="stroke:#181818;stroke-width:0.575;" width="4.6" x="1655.2678" y="510.6045"/><rect fill="#F1F1F1" height="2.3" style="stroke:#181818;stroke-width:0.575;" width="4.6" x="1655.2678" y="515.2045"/><text fill="#000000" font-family="sans-serif" font-size="23" lengthAdjust="spacing" textLength="336.2178" x="1315.6" y="549.4305">DELETE /admin/comentarios/{id}</text></g><!--entity GET /admin/ingredientes--><g class="entity" data-entity="GET .admin.ingredientes" data-source-line="54" data-uid="ent0037" id="entity_GET .admin.ingredientes"><rect fill="#F1F1F1" height="63.4297" rx="2.875" ry="2.875" style="stroke:#181818;stroke-width:0.575;" width="300.4038" x="833.75" y="175.9545"/><rect fill="#F1F1F1" height="11.5" style="stroke:#181818;stroke-width:0.575;" width="17.25" x="1111.1538" y="181.7045"/><rect fill="#F1F1F1" height="2.3" style="stroke:#181818;stroke-width:0.575;" width="4.6" x="1108.8538" y="184.0045"/><rect fill="#F1F1F1" height="2.3" style="stroke:#181818;stroke-width:0.575;" width="4.6" x="1108.8538" y="188.6045"/><text fill="#000000" font-family="sans-serif" font-size="23" lengthAdjust="spacing" textLength="254.4038" x="851" y="222.8305">GET /admin/ingredientes</text></g><!--entity POST /admin/ingredientes--><g class="entity" data-entity="POST .admin.ingredientes" data-source-line="55" data-uid="ent0038" id="entity_POST .admin.ingredientes"><rect fill="#F1F1F1" height="63.4297" rx="2.875" ry="2.875" style="stroke:#181818;stroke-width:0.575;" width="315.7446" x="825.7" y="103.5045"/><rect fill="#F1F1F1" height="11.5" style="stroke:#181818;stroke-width:0.575;" width="17.25" x="1118.4446" y="109.2545"/><rect fill="#F1F1F1" height="2.3" style="stroke:#181818;stroke-width:0.575;" width="4.6" x="1116.1446" y="111.5545"/><rect fill="#F1F1F1" height="2.3" style="stroke:#181818;stroke-width:0.575;" width="4.6" x="1116.1446" y="116.1545"/><text fill="#000000" font-family="sans-serif" font-size="23" lengthAdjust="spacing" textLength="269.7446" x="842.95" y="150.3805">POST /admin/ingredientes</text></g><!--entity GET /admin/ingredientes/{id}--><g class="entity" data-entity="GET .admin.ingredientes..id." data-source-line="56" data-uid="ent0039" id="entity_GET .admin.ingredientes..id."><rect fill="#F1F1F1" height="63.4297" rx="2.875" ry="2.875" style="stroke:#181818;stroke-width:0.575;" width="340.0586" x="1319.05" y="175.9545"/><rect fill="#F1F1F1" height="11.5" style="stroke:#181818;stroke-width:0.575;" width="17.25" x="1636.1086" y="181.7045"/><rect fill="#F1F1F1" height="2.3" style="stroke:#181818;stroke-width:0.575;" width="4.6" x="1633.8086" y="184.0045"/><rect fill="#F1F1F1" height="2.3" style="stroke:#181818;stroke-width:0.575;" width="4.6" x="1633.8086" y="188.6045"/><text fill="#000000" font-family="sans-serif" font-size="23" lengthAdjust="spacing" textLength="294.0586" x="1336.3" y="222.8305">GET /admin/ingredientes/{id}</text></g><!--entity PUT /admin/ingredientes/{id}--><g class="entity" data-entity="PUT .admin.ingredientes..id." data-source-line="57" data-uid="ent0040" id="entity_PUT .admin.ingredientes..id."><rect fill="#F1F1F1" height="63.4297" rx="2.875" ry="2.875" style="stroke:#181818;stroke-width:0.575;" width="338.7783" x="1319.625" y="103.5045"/><rect fill="#F1F1F1" height="11.5" style="stroke:#181818;stroke-width:0.575;" width="17.25" x="1635.4033" y="109.2545"/><rect fill="#F1F1F1" height="2.3" style="stroke:#181818;stroke-width:0.575;" width="4.6" x="1633.1033" y="111.5545"/><rect fill="#F1F1F1" height="2.3" style="stroke:#181818;stroke-width:0.575;" width="4.6" x="1633.1033" y="116.1545"/><text fill="#000000" font-family="sans-serif" font-size="23" lengthAdjust="spacing" textLength="292.7783" x="1336.875" y="150.3805">PUT /admin/ingredientes/{id}</text></g><!--entity DELETE /admin/ingredientes/{id}--><g class="entity" data-entity="DELETE .admin.ingredientes..id." data-source-line="58" data-uid="ent0041" id="entity_DELETE .admin.ingredientes..id."><rect fill="#F1F1F1" height="63.4297" rx="2.875" ry="2.875" style="stroke:#181818;stroke-width:0.575;" width="382.2515" x="792.925" y="248.4045"/><rect fill="#F1F1F1" height="11.5" style="stroke:#181818;stroke-width:0.575;" width="17.25" x="1152.1765" y="254.1545"/><rect fill="#F1F1F1" height="2.3" style="stroke:#181818;stroke-width:0.575;" width="4.6" x="1149.8765" y="256.4545"/><rect fill="#F1F1F1" height="2.3" style="stroke:#181818;stroke-width:0.575;" width="4.6" x="1149.8765" y="261.0545"/><text fill="#000000" font-family="sans-serif" font-size="23" lengthAdjust="spacing" textLength="336.2515" x="810.175" y="295.2805">DELETE /admin/ingredientes/{id}</text></g><g class="entity" data-entity="GMN42" data-source-line="62" data-uid="ent0043" id="entity_GMN42"><path d="M1477.175,349.0295 L1477.175,360.5295 L1501.325,360.5295 L1501.325,360.5295 L1489.825,349.0295 L1477.175,349.0295" fill="#FAFAFA" style="stroke:#181818;stroke-width:0.575;"/><path d="M1489.825,349.0295 L1489.825,360.5295 L1501.325,360.5295 L1489.825,349.0295" fill="#FAFAFA" style="stroke:#181818;stroke-width:1.15;"/></g><!--link DELETE /admin/ingredientes/{id} to GMN42--><g class="link" data-entity-1="DELETE .admin.ingredientes..id." data-entity-2="GMN42" data-source-line="62" data-uid="lnk44" id="link_DELETE .admin.ingredientes..id._GMN42"><path d="M1174.7825,309.251 C1206.994,314.127 1240.1025,319.1065 1271.325,323.7295 C1349.9275,335.356 1444.676,348.696 1476.807,353.204" fill="none" id="DELETE /admin/ingredientes/{id}-GMN42" style="stroke:#181818;stroke-width:1.15;stroke-dasharray:8.05,8.05;"/></g></g></svg>

